ShimenkanMaster-ExtraLight.ufo
<glyph name="E" format="2">
  <advance width="510"/>
  <unicode hex="0045"/>
  <anchor x="282" y="682" name="aboveUC"/>
  <anchor x="300" y="-22" name="belowLC"/>
  <anchor x="384" y="0" name="ogonekUC"/>
  <outline>
    <contour>
      <point x="100" y="0" type="line"/>
      <point x="464" y="0" type="line"/>
      <point x="464" y="28" type="line"/>
      <point x="132" y="28" type="line"/>
      <point x="132" y="338" type="line"/>
      <point x="402" y="338" type="line"/>
      <point x="402" y="366" type="line"/>
      <point x="132" y="366" type="line"/>
      <point x="132" y="632" type="line"/>
      <point x="454" y="632" type="line"/>
      <point x="454" y="660" type="line"/>
      <point x="100" y="660" type="line"/>
    </contour>
  </outline>
</glyph>
<glyph name="F" format="2">
  <advance width="470"/>
  <unicode hex="0046"/>
  <anchor x="284" y="682" name="aboveUC"/>
  <anchor x="116" y="-22" name="belowLC"/>
  <outline>
    <contour>
      <point x="100" y="0" type="line"/>
      <point x="132" y="0" type="line"/>
      <point x="132" y="326" type="line"/>
      <point x="402" y="326" type="line"/>
      <point x="402" y="354" type="line"/>
      <point x="132" y="354" type="line"/>
      <point x="132" y="632" type="line"/>
      <point x="452" y="632" type="line"/>
      <point x="452" y="660" type="line"/>
      <point x="100" y="660" type="line"/>
    </contour>
  </outline>
</glyph>
<glyph name="H" format="2">
  <advance width="634"/>
  <unicode hex="0048"/>
  <anchor x="316" y="682" name="aboveUC"/>
  <anchor x="316" y="-22" name="belowLC"/>
  <outline>
    <contour>
      <point x="100" y="0" type="line"/>
      <point x="132" y="0" type="line"/>
      <point x="132" y="338" type="line"/>
      <point x="502" y="338" type="line"/>
      <point x="502" y="0" type="line"/>
      <point x="534" y="0" type="line"/>
      <point x="534" y="660" type="line"/>
      <point x="502" y="660" type="line"/>
      <point x="502" y="366" type="line"/>
      <point x="132" y="366" type="line"/>
      <point x="132" y="660" type="line"/>
      <point x="100" y="660" type="line"/>
    </contour>
  </outline>
</glyph>
<glyph name="I" format="2">
  <advance width="232"/>
  <unicode hex="0049"/>
  <anchor x="116" y="682" name="aboveUC"/>
  <anchor x="116" y="-22" name="belowLC"/>
  <anchor x="90" y="0" name="ogonekUC"/>
  <outline>
    <contour>
      <point x="100" y="0" type="line"/>
      <point x="132" y="0" type="line"/>
      <point x="132" y="660" type="line"/>
      <point x="100" y="660" type="line"/>
    </contour>
  </outline>
</glyph>
<glyph name="L" format="2">
  <advance width="460"/>
  <unicode hex="004C"/>
  <anchor x="116" y="682" name="aboveUC"/>
  <anchor x="288" y="-22" name="belowLC"/>
  <outline>
    <contour>
      <point x="100" y="0" type="line"/>
      <point x="442" y="0" type="line"/>
      <point x="442" y="28" type="line"/>
      <point x="132" y="28" type="line"/>
      <point x="132" y="660" type="line"/>
      <point x="100" y="660" type="line"/>
    </contour>
  </outline>
</glyph>
<glyph name="i" format="2">
  <advance width="222"/>
  <unicode hex="0069"/>
  <anchor x="110" y="672" name="aboveLC"/>
  <anchor x="110" y="-22" name="belowLC"/>
  <anchor x="130" y="0" name="ogonekLC"/>
  <outline>
    <contour>
      <point x="96" y="0" type="line"/>
      <point x="126" y="0" type="line"/>
      <point x="126" y="478" type="line"/>
      <point x="96" y="478" type="line"/>
    </contour>
    <contour>
      <point x="112" y="600" type="curve" smooth="yes"/>
      <point x="130" y="600"/>
      <point x="146" y="614"/>
      <point x="146" y="634" type="curve" smooth="yes"/>
      <point x="146" y="656"/>
      <point x="130" y="668"/>
      <point x="112" y="668" type="curve" smooth="yes"/>
      <point x="94" y="668"/>
      <point x="78" y="656"/>
      <point x="78" y="634" type="curve" smooth="yes"/>
      <point x="78" y="614"/>
      <point x="94" y="600"/>
    </contour>
  </outline>
</glyph>
<glyph name="k" format="2">
  <advance width="452"/>
  <unicode hex="006B"/>
  <anchor x="114" y="730" name="aboveLC"/>
  <anchor x="252" y="-22" name="belowLC"/>
  <outline>
    <contour>
      <point x="96" y="0" type="line"/>
      <point x="126" y="0" type="line"/>
      <point x="126" y="132" type="line"/>
      <point x="240" y="266" type="line"/>
      <point x="406" y="0" type="line"/>
      <point x="440" y="0" type="line"/>
      <point x="258" y="290" type="line"/>
      <point x="412" y="478" type="line"/>
      <point x="376" y="478" type="line"/>
      <point x="128" y="174" type="line"/>
      <point x="126" y="174" type="line"/>
      <point x="126" y="722" type="line"/>
      <point x="96" y="722" type="line"/>
    </contour>
  </outline>
</glyph>
<glyph name="Oslash" format="2">
  <advance width="648"/>
  <unicode hex="00D8"/>
  <anchor x="322" y="682" name="aboveUC"/>
  <outline>
    <component base="O" xOffset="4"/>
    <contour>
      <point x="80" y="-20" type="line"/>
      <point x="586" y="664" type="line"/>
      <point x="564" y="680" type="line"/>
      <point x="58" y="-4" type="line"/>
    </contour>
  </outline>
</glyph>
<glyph name="Hbar" format="2">
  <advance width="666"/>
  <unicode hex="0126"/>
  <outline>
    <component base="H" xOffset="20"/>
    <contour>
      <point x="38" y="496" type="line"/>
      <point x="628" y="496" type="line"/>
      <point x="628" y="524" type="line"/>
      <point x="121" y="524" type="line"/>
      <point x="38" y="520" type="line"/>
    </contour>
  </outline>
</glyph>
<glyph name="dotlessi" format="2">
  <advance width="222"/>
  <unicode hex="0131"/>
  <anchor x="112" y="502" name="aboveLC"/>
  <anchor x="110" y="-22" name="belowLC"/>
  <anchor x="130" y="0" name="ogonekLC"/>
  <outline>
    <contour>
      <point x="96" y="0" type="line"/>
      <point x="126" y="0" type="line"/>
      <point x="126" y="478" type="line"/>
      <point x="96" y="478" type="line"/>
    </contour>
  </outline>
</glyph>
<glyph name="uhorn" format="2">
  <advance width="524"/>
  <unicode hex="01B0"/>
  <anchor x="262" y="502" name="aboveLC"/>
  <anchor x="280" y="-22" name="belowLC"/>
  <outline>
    <contour>
      <point x="428" y="458" type="line"/>
      <point x="466" y="471"/>
      <point x="518" y="499"/>
      <point x="518" y="580" type="curve" smooth="yes"/>
      <point x="518" y="602"/>
      <point x="512" y="624"/>
      <point x="500" y="646" type="curve"/>
      <point x="472" y="630" type="line"/>
      <point x="482" y="613"/>
      <point x="486" y="593"/>
      <point x="486" y="578" type="curve" smooth="yes"/>
      <point x="486" y="520"/>
      <point x="454" y="489"/>
      <point x="400" y="478" type="curve"/>
    </contour>
    <component base="u"/>
  </outline>
</glyph>
<glyph name="dotlessjstroke" format="2">
  <advance width="230"/>
  <unicode hex="025F"/>
  <anchor x="116" y="502" name="aboveLC"/>
  <outline>
    <contour>
      <point x="4" y="238" type="line"/>
      <point x="222" y="238" type="line"/>
      <point x="222" y="266" type="line"/>
      <point x="100" y="266" type="line"/>
      <point x="4" y="262" type="line"/>
    </contour>
    <component base="dotlessj" xOffset="4"/>
  </outline>
</glyph>
<glyph name="Ismall" format="2">
  <advance width="298"/>
  <unicode hex="026A"/>
  <anchor x="150" y="502" name="aboveLC"/>
  <anchor x="150" y="-22" name="belowLC"/>
  <anchor x="124" y="0" name="ogonekUC"/>
  <outline>
    <contour>
      <point x="42" y="0" type="line"/>
      <point x="256" y="0" type="line"/>
      <point x="256" y="28" type="line"/>
      <point x="164" y="28" type="line"/>
      <point x="164" y="450" type="line"/>
      <point x="256" y="450" type="line"/>
      <point x="256" y="478" type="line"/>
      <point x="42" y="478" type="line"/>
      <point x="42" y="450" type="line"/>
      <point x="134" y="450" type="line"/>
      <point x="134" y="28" type="line"/>
      <point x="42" y="28" type="line"/>
    </contour>
  </outline>
</glyph>
<glyph name="ubar" format="2">
  <advance width="540"/>
  <unicode hex="0289"/>
  <anchor x="274" y="502" name="aboveLC"/>
  <outline>
    <contour>
      <point x="4" y="258" type="line"/>
      <point x="532" y="258" type="line"/>
      <point x="532" y="286" type="line"/>
      <point x="100" y="286" type="line"/>
      <point x="4" y="282" type="line"/>
    </contour>
    <component base="u" xOffset="12"/>
  </outline>
</glyph>
<glyph name="Lsmall" format="2">
  <advance width="394"/>
  <unicode hex="029F"/>
  <anchor x="118" y="562" name="aboveUC"/>
  <anchor x="252" y="-22" name="belowLC"/>
  <outline>
    <contour>
      <point x="96" y="0" type="line"/>
      <point x="368" y="0" type="line"/>
      <point x="368" y="28" type="line"/>
      <point x="126" y="28" type="line"/>
      <point x="126" y="478" type="line"/>
      <point x="96" y="478" type="line"/>
    </contour>
  </outline>
</glyph>
<glyph name="macroncmb" format="2">
  <unicode hex="0304"/>
  <anchor x="0" y="502" name="_aboveLC"/>
  <outline>
    <contour>
      <point x="-120" y="608" type="line"/>
      <point x="120" y="608" type="line"/>
      <point x="120" y="636" type="line"/>
      <point x="-120" y="636" type="line"/>
    </contour>
  </outline>
</glyph>
<glyph name="righttackbelowcmb" format="2">
  <unicode hex="0319"/>
  <anchor x="0" y="-22" name="_belowLC"/>
  <outline>
    <contour>
      <point x="66" y="-166" type="line"/>
      <point x="66" y="-138" type="line"/>
      <point x="-46" y="-138" type="line"/>
      <point x="-46" y="-62" type="line"/>
      <point x="-74" y="-62" type="line"/>
      <point x="-74" y="-242" type="line"/>
      <point x="-46" y="-242" type="line"/>
      <point x="-46" y="-166" type="line"/>
    </contour>
  </outline>
</glyph>
<glyph name="leftangleabovecmb" format="2">
  <unicode hex="031A"/>
  <anchor x="0" y="502" name="_aboverightLC"/>
  <outline>
    <contour>
      <point x="74" y="572" type="line"/>
      <point x="74" y="706" type="line"/>
      <point x="-66" y="706" type="line"/>
      <point x="-66" y="678" type="line"/>
      <point x="46" y="678" type="line"/>
      <point x="46" y="572" type="line"/>
    </contour>
  </outline>
</glyph>
<glyph name="downtackbelowcmb" format="2">
  <unicode hex="031E"/>
  <anchor x="0" y="-22" name="_belowLC"/>
  <outline>
    <contour>
      <point x="86" y="-136" type="line"/>
      <point x="86" y="-108" type="line"/>
      <point x="-86" y="-108" type="line"/>
      <point x="-86" y="-136" type="line"/>
      <point x="-14" y="-136" type="line"/>
      <point x="-14" y="-242" type="line"/>
      <point x="14" y="-242" type="line"/>
      <point x="14" y="-136" type="line"/>
    </contour>
  </outline>
</glyph>
<glyph name="plusbelowcmb" format="2">
  <unicode hex="031F"/>
  <anchor x="0" y="-22" name="_belowLC"/>
  <outline>
    <contour>
      <point x="86" y="-166" type="line"/>
      <point x="86" y="-138" type="line"/>
      <point x="14" y="-138" type="line"/>
      <point x="14" y="-62" type="line"/>
      <point x="-14" y="-62" type="line"/>
      <point x="-14" y="-138" type="line"/>
      <point x="-86" y="-138" type="line"/>
      <point x="-86" y="-166" type="line"/>
      <point x="-14" y="-166" type="line"/>
      <point x="-14" y="-242" type="line"/>
      <point x="14" y="-242" type="line"/>
      <point x="14" y="-166" type="line"/>
    </contour>
  </outline>
</glyph>
<glyph name="minusbelowcmb" format="2">
  <unicode hex="0320"/>
  <anchor x="0" y="-22" name="_belowLC"/>
  <outline>
    <contour>
      <point x="-86" y="-166" type="line"/>
      <point x="86" y="-166" type="line"/>
      <point x="86" y="-138" type="line"/>
      <point x="-86" y="-138" type="line"/>
    </contour>
  </outline>
</glyph>
<glyph name="bridgebelowcmb" format="2">
  <unicode hex="032A"/>
  <anchor x="0" y="-22" name="_belowLC"/>
  <outline>
    <contour>
      <point x="90" y="-230" type="line"/>
      <point x="116" y="-230" type="line"/>
      <point x="116" y="-86" type="line"/>
      <point x="-116" y="-86" type="line"/>
      <point x="-116" y="-230" type="line"/>
      <point x="-90" y="-230" type="line"/>
      <point x="-90" y="-114" type="line"/>
      <point x="90" y="-114" type="line"/>
    </contour>
  </outline>
</glyph>
<glyph name="bridgeinvertedbelowcmb" format="2">
  <unicode hex="033A"/>
  <anchor x="0" y="-22" name="_belowLC"/>
  <outline>
    <contour>
      <point x="-116" y="-234" type="line"/>
      <point x="116" y="-234" type="line"/>
      <point x="116" y="-90" type="line"/>
      <point x="90" y="-90" type="line"/>
      <point x="90" y="-206" type="line"/>
      <point x="-90" y="-206" type="line"/>
      <point x="-90" y="-90" type="line"/>
      <point x="-116" y="-90" type="line"/>
    </contour>
  </outline>
</glyph>
<glyph name="xabovecmb" format="2">
  <unicode hex="033D"/>
  <anchor x="0" y="502" name="_aboveLC"/>
  <outline>
    <contour>
      <point x="-51" y="567" type="line"/>
      <point x="0" y="618" type="line"/>
      <point x="51" y="567" type="line"/>
      <point x="71" y="587" type="line"/>
      <point x="20" y="638" type="line"/>
      <point x="71" y="689" type="line"/>
      <point x="51" y="709" type="line"/>
      <point x="0" y="658" type="line"/>
      <point x="-51" y="709" type="line"/>
      <point x="-71" y="689" type="line"/>
      <point x="-20" y="638" type="line"/>
      <point x="-71" y="587" type="line"/>
    </contour>
  </outline>
</glyph>
<glyph name="ghe" format="2">
  <advance width="394"/>
  <unicode hex="0433"/>
  <anchor x="250" y="502" name="aboveLC"/>
  <outline>
    <contour>
      <point x="96" y="0" type="line"/>
      <point x="126" y="0" type="line"/>
      <point x="126" y="450" type="line"/>
      <point x="368" y="450" type="line"/>
      <point x="368" y="478" type="line"/>
      <point x="96" y="478" type="line"/>
    </contour>
  </outline>
</glyph>
<glyph name="tse" format="2">
  <advance width="522"/>
  <unicode hex="0446"/>
  <anchor x="268" y="502" name="aboveLC"/>
  <outline>
    <contour>
      <point x="96" y="0" type="line"/>
      <point x="432" y="0" type="line"/>
      <point x="432" y="478" type="line"/>
      <point x="402" y="478" type="line"/>
      <point x="402" y="28" type="line"/>
      <point x="126" y="28" type="line"/>
      <point x="126" y="478" type="line"/>
      <point x="96" y="478" type="line"/>
    </contour>
    <contour>
      <point x="466" y="-172" type="line"/>
      <point x="492" y="-172" type="line"/>
      <point x="496" y="12" type="line"/>
      <point x="496" y="28" type="line"/>
      <point x="422" y="28" type="line"/>
      <point x="422" y="0" type="line"/>
      <point x="466" y="0" type="line"/>
    </contour>
  </outline>
</glyph>
<glyph name="diamondblack" format="2">
  <advance width="910"/>
  <unicode hex="25C6"/>
  <outline>
    <contour>
      <point x="455" y="-80" type="line"/>
      <point x="885" y="350" type="line"/>
      <point x="455" y="780" type="line"/>
      <point x="25" y="350" type="line"/>
    </contour>
  </outline>
</glyph>
<glyph name="uni3002" format="2">
  <advance width="500"/>
  <unicode hex="3002"/>
  <outline>
    <contour>
      <point x="222" y="-142" type="curve" smooth="yes"/>
      <point x="294" y="-142"/>
      <point x="343" y="-87"/>
      <point x="343" y="-19" type="curve" smooth="yes"/>
      <point x="343" y="48"/>
      <point x="294" y="102"/>
      <point x="222" y="102" type="curve" smooth="yes"/>
      <point x="149" y="102"/>
      <point x="100" y="48"/>
      <point x="100" y="-19" type="curve" smooth="yes"/>
      <point x="100" y="-87"/>
      <point x="149" y="-142"/>
    </contour>
    <contour>
      <point x="222" y="-114" type="curve" smooth="yes"/>
      <point x="165" y="-114"/>
      <point x="128" y="-72"/>
      <point x="128" y="-19" type="curve" smooth="yes"/>
      <point x="128" y="32"/>
      <point x="165" y="74"/>
      <point x="222" y="74" type="curve" smooth="yes"/>
      <point x="278" y="74"/>
      <point x="315" y="32"/>
      <point x="315" y="-19" type="curve" smooth="yes"/>
      <point x="315" y="-72"/>
      <point x="278" y="-114"/>
    </contour>
  </outline>
</glyph>
<glyph name="uni3007" format="2">
  <advance width="800"/>
  <unicode hex="3007"/>
  <outline>
    <contour>
      <point x="400" y="0" type="curve" smooth="yes"/>
      <point x="241" y="0"/>
      <point x="80" y="114"/>
      <point x="80" y="330" type="curve" smooth="yes"/>
      <point x="80" y="546"/>
      <point x="241" y="660"/>
      <point x="400" y="660" type="curve" smooth="yes"/>
      <point x="559" y="660"/>
      <point x="720" y="546"/>
      <point x="720" y="330" type="curve" smooth="yes"/>
      <point x="720" y="114"/>
      <point x="559" y="0"/>
    </contour>
    <contour>
      <point x="400" y="32" type="curve" smooth="yes"/>
      <point x="549" y="32"/>
      <point x="688" y="143"/>
      <point x="688" y="330" type="curve" smooth="yes"/>
      <point x="688" y="517"/>
      <point x="549" y="628"/>
      <point x="400" y="628" type="curve" smooth="yes"/>
      <point x="251" y="628"/>
      <point x="112" y="517"/>
      <point x="112" y="330" type="curve" smooth="yes"/>
      <point x="112" y="143"/>
      <point x="251" y="32"/>
    </contour>
  </outline>
</glyph>
<glyph name="uni3008" format="2">
  <advance width="800"/>
  <unicode hex="3008"/>
  <outline>
    <contour>
      <point x="669" y="-42" type="line"/>
      <point x="700" y="-42" type="line"/>
      <point x="555" y="330" type="line"/>
      <point x="700" y="702" type="line"/>
      <point x="669" y="702" type="line"/>
      <point x="524" y="330" type="line"/>
    </contour>
  </outline>
</glyph>
<glyph name="uni3009" format="2">
  <advance width="800"/>
  <unicode hex="3009"/>
  <outline>
    <contour>
      <point x="131" y="702" type="line"/>
      <point x="100" y="702" type="line"/>
      <point x="245" y="330" type="line"/>
      <point x="100" y="-42" type="line"/>
      <point x="131" y="-42" type="line"/>
      <point x="276" y="330" type="line"/>
    </contour>
  </outline>
</glyph>
<glyph name="uni300A" format="2">
  <advance width="800"/>
  <unicode hex="300A"/>
  <outline>
    <contour>
      <point x="689" y="-42" type="line"/>
      <point x="720" y="-42" type="line"/>
      <point x="575" y="330" type="line"/>
      <point x="720" y="702" type="line"/>
      <point x="689" y="702" type="line"/>
      <point x="544" y="330" type="line"/>
    </contour>
    <contour>
      <point x="545" y="-42" type="line"/>
      <point x="576" y="-42" type="line"/>
      <point x="431" y="330" type="line"/>
      <point x="576" y="702" type="line"/>
      <point x="545" y="702" type="line"/>
      <point x="400" y="330" type="line"/>
    </contour>
  </outline>
</glyph>
<glyph name="uni300B" format="2">
  <advance width="800"/>
  <unicode hex="300B"/>
  <outline>
    <contour>
      <point x="111" y="702" type="line"/>
      <point x="80" y="702" type="line"/>
      <point x="225" y="330" type="line"/>
      <point x="80" y="-42" type="line"/>
      <point x="111" y="-42" type="line"/>
      <point x="256" y="330" type="line"/>
    </contour>
    <contour>
      <point x="255" y="702" type="line"/>
      <point x="224" y="702" type="line"/>
      <point x="369" y="330" type="line"/>
      <point x="224" y="-42" type="line"/>
      <point x="255" y="-42" type="line"/>
      <point x="400" y="330" type="line"/>
    </contour>
  </outline>
</glyph>
<glyph name="uni300C" format="2">
  <advance width="800"/>
  <unicode hex="300C"/>
  <outline>
    <contour>
      <point x="430" y="702" type="line"/>
      <point x="430" y="-42" type="line"/>
      <point x="458" y="-42" type="line"/>
      <point x="458" y="674" type="line"/>
      <point x="700" y="674" type="line"/>
      <point x="700" y="702" type="line"/>
    </contour>
  </outline>
</glyph>
<glyph name="uni300D" format="2">
  <advance width="800"/>
  <unicode hex="300D"/>
  <outline>
    <contour>
      <point x="370" y="-42" type="line"/>
      <point x="370" y="702" type="line"/>
      <point x="342" y="702" type="line"/>
      <point x="342" y="-14" type="line"/>
      <point x="100" y="-14" type="line"/>
      <point x="100" y="-42" type="line"/>
    </contour>
  </outline>
</glyph>
<glyph name="uni300E" format="2">
  <advance width="800"/>
  <unicode hex="300E"/>
  <outline>
    <contour>
      <point x="410" y="-42" type="line"/>
      <point x="478" y="-42" type="line"/>
      <point x="478" y="634" type="line"/>
      <point x="720" y="634" type="line"/>
      <point x="720" y="702" type="line"/>
      <point x="410" y="702" type="line"/>
    </contour>
    <contour>
      <point x="430" y="-22" type="line"/>
      <point x="430" y="682" type="line"/>
      <point x="700" y="682" type="line"/>
      <point x="700" y="654" type="line"/>
      <point x="458" y="654" type="line"/>
      <point x="458" y="-22" type="line"/>
    </contour>
  </outline>
</glyph>
<glyph name="uni3010" format="2">
  <advance width="800"/>
  <unicode hex="3010"/>
  <outline>
    <contour>
      <point x="482" y="-42" type="curve"/>
      <point x="700" y="-42" type="line"/>
      <point x="578" y="58"/>
      <point x="522" y="192"/>
      <point x="522" y="330" type="curve" smooth="yes"/>
      <point x="522" y="468"/>
      <point x="578" y="602"/>
      <point x="700" y="702" type="curve"/>
      <point x="482" y="702" type="line"/>
      <point x="482" y="516"/>
      <point x="482" y="90"/>
    </contour>
  </outline>
</glyph>
<glyph name="uni3011" format="2">
  <advance width="800"/>
  <unicode hex="3011"/>
  <outline>
    <contour>
      <point x="318" y="702" type="curve"/>
      <point x="100" y="702" type="line"/>
      <point x="222" y="602"/>
      <point x="278" y="468"/>
      <point x="278" y="330" type="curve" smooth="yes"/>
      <point x="278" y="192"/>
      <point x="222" y="58"/>
      <point x="100" y="-42" type="curve"/>
      <point x="318" y="-42" type="line"/>
      <point x="318" y="144"/>
      <point x="318" y="570"/>
    </contour>
  </outline>
</glyph>
<glyph name="uni301D" format="2">
  <advance width="800"/>
  <unicode hex="301D"/>
  <outline>
    <contour>
      <point x="709" y="376" type="curve"/>
      <point x="720" y="384" type="line"/>
      <point x="707" y="408"/>
      <point x="682" y="446"/>
      <point x="666" y="471" type="curve" smooth="yes"/>
      <point x="531" y="685" type="line"/>
      <point x="521" y="699"/>
      <point x="506" y="708"/>
      <point x="492" y="698" type="curve" smooth="yes"/>
      <point x="477" y="688"/>
      <point x="480" y="670"/>
      <point x="490" y="657" type="curve"/>
      <point x="645" y="456" type="line" smooth="yes"/>
      <point x="663" y="432"/>
      <point x="691" y="396"/>
    </contour>
    <contour>
      <point x="509" y="376" type="curve"/>
      <point x="520" y="384" type="line"/>
      <point x="507" y="408"/>
      <point x="482" y="446"/>
      <point x="466" y="471" type="curve" smooth="yes"/>
      <point x="331" y="685" type="line"/>
      <point x="321" y="699"/>
      <point x="306" y="708"/>
      <point x="292" y="698" type="curve" smooth="yes"/>
      <point x="277" y="688"/>
      <point x="280" y="670"/>
      <point x="290" y="657" type="curve"/>
      <point x="445" y="456" type="line" smooth="yes"/>
      <point x="463" y="432"/>
      <point x="491" y="396"/>
    </contour>
  </outline>
</glyph>
<glyph name="uni301E" format="2">
  <advance width="800"/>
  <unicode hex="301E"/>
  <outline>
    <contour>
      <point x="291" y="376" type="line"/>
      <point x="309" y="396"/>
      <point x="337" y="432"/>
      <point x="355" y="456" type="curve" smooth="yes"/>
      <point x="510" y="657" type="line"/>
      <point x="520" y="670"/>
      <point x="523" y="688"/>
      <point x="508" y="698" type="curve" smooth="yes"/>
      <point x="494" y="708"/>
      <point x="479" y="699"/>
      <point x="469" y="685" type="curve"/>
      <point x="334" y="471" type="line" smooth="yes"/>
      <point x="318" y="446"/>
      <point x="293" y="408"/>
      <point x="280" y="384" type="curve"/>
    </contour>
    <contour>
      <point x="91" y="376" type="line"/>
      <point x="109" y="396"/>
      <point x="137" y="432"/>
      <point x="155" y="456" type="curve" smooth="yes"/>
      <point x="310" y="657" type="line"/>
      <point x="320" y="670"/>
      <point x="323" y="688"/>
      <point x="308" y="698" type="curve" smooth="yes"/>
      <point x="294" y="708"/>
      <point x="279" y="699"/>
      <point x="269" y="685" type="curve"/>
      <point x="134" y="471" type="line" smooth="yes"/>
      <point x="118" y="446"/>
      <point x="93" y="408"/>
      <point x="80" y="384" type="curve"/>
    </contour>
  </outline>
</glyph>
<glyph name="uni301F" format="2">
  <advance width="800"/>
  <unicode hex="301F"/>
  <outline>
    <contour>
      <point x="291" y="-42" type="line"/>
      <point x="309" y="-22"/>
      <point x="337" y="14"/>
      <point x="355" y="38" type="curve" smooth="yes"/>
      <point x="510" y="239" type="line"/>
      <point x="520" y="252"/>
      <point x="523" y="270"/>
      <point x="508" y="280" type="curve" smooth="yes"/>
      <point x="494" y="290"/>
      <point x="479" y="281"/>
      <point x="469" y="267" type="curve"/>
      <point x="334" y="53" type="line" smooth="yes"/>
      <point x="318" y="28"/>
      <point x="293" y="-10"/>
      <point x="280" y="-34" type="curve"/>
    </contour>
    <contour>
      <point x="91" y="-42" type="line"/>
      <point x="109" y="-22"/>
      <point x="137" y="14"/>
      <point x="155" y="38" type="curve" smooth="yes"/>
      <point x="310" y="239" type="line"/>
      <point x="320" y="252"/>
      <point x="323" y="270"/>
      <point x="308" y="280" type="curve" smooth="yes"/>
      <point x="294" y="290"/>
      <point x="279" y="281"/>
      <point x="269" y="267" type="curve"/>
      <point x="134" y="53" type="line" smooth="yes"/>
      <point x="118" y="28"/>
      <point x="93" y="-10"/>
      <point x="80" y="-34" type="curve"/>
    </contour>
  </outline>
</glyph>
<glyph name="u16F00" format="2">
  <advance width="460"/>
  <unicode hex="16F00"/>
  <outline>
    <contour>
      <point x="360" y="0" type="line"/>
      <point x="360" y="660" type="line"/>
      <point x="328" y="660" type="line"/>
      <point x="328" y="28" type="line"/>
      <point x="18" y="28" type="line"/>
      <point x="18" y="0" type="line"/>
    </contour>
  </outline>
</glyph>
<glyph name="u16F02" format="2">
  <advance width="518"/>
  <unicode hex="16F02"/>
  <anchor x="518" y="646" name="D"/>
  <anchor x="518" y="463" name="E"/>
  <anchor x="259" y="690" name="H"/>
  <anchor x="518" y="237" name="K"/>
  <anchor x="259" y="-30" name="L"/>
  <anchor x="518" y="660" name="S"/>
  <anchor x="518" y="350" name="W"/>
  <outline>
    <contour>
      <point x="360" y="28" type="line"/>
      <point x="360" y="660" type="line"/>
      <point x="328" y="660" type="line"/>
      <point x="328" y="28" type="line"/>
      <point x="18" y="28" type="line"/>
      <point x="18" y="0" type="line"/>
      <point x="488" y="0" type="line"/>
      <point x="488" y="28" type="line"/>
    </contour>
  </outline>
</glyph>
<glyph name="u16F03" format="2">
  <advance width="546"/>
  <unicode hex="16F03"/>
  <anchor x="273" y="690" name="H"/>
  <anchor x="546" y="660" name="S"/>
  <anchor x="546" y="350" name="W"/>
  <anchor x="546" y="463" name="E"/>
  <anchor x="546" y="237" name="K"/>
  <anchor x="546" y="646" name="D"/>
  <anchor x="273" y="-30" name="L"/>
  <outline>
    <contour>
      <point x="446" y="0" type="line"/>
      <point x="446" y="660" type="line"/>
      <point x="414" y="660" type="line"/>
      <point x="414" y="28" type="line"/>
      <point x="184" y="28" type="line"/>
      <point x="168" y="0" type="line"/>
    </contour>
    <contour>
      <point x="167" y="0" type="curve" smooth="yes"/>
      <point x="186" y="0"/>
      <point x="224" y="16"/>
      <point x="213" y="16" type="curve"/>
      <point x="240" y="27"/>
      <point x="269" y="67"/>
      <point x="269" y="121" type="curve" smooth="yes"/>
      <point x="269" y="189"/>
      <point x="225" y="244"/>
      <point x="157" y="244" type="curve" smooth="yes"/>
      <point x="90" y="244"/>
      <point x="46" y="189"/>
      <point x="46" y="121" type="curve" smooth="yes"/>
      <point x="46" y="54"/>
      <point x="80" y="0"/>
    </contour>
    <contour>
      <point x="157" y="216" type="curve" smooth="yes"/>
      <point x="209" y="216"/>
      <point x="241" y="174"/>
      <point x="241" y="121" type="curve" smooth="yes"/>
      <point x="241" y="70"/>
      <point x="209" y="28"/>
      <point x="157" y="28" type="curve" smooth="yes"/>
      <point x="106" y="28"/>
      <point x="74" y="70"/>
      <point x="74" y="121" type="curve" smooth="yes"/>
      <point x="74" y="174"/>
      <point x="106" y="216"/>
    </contour>
  </outline>
</glyph>
<glyph name="u16F04" format="2">
  <advance width="534"/>
  <unicode hex="16F04"/>
  <anchor x="550" y="646" name="D"/>
  <anchor x="550" y="463" name="E"/>
  <anchor x="277" y="690" name="H"/>
  <anchor x="550" y="237" name="K"/>
  <anchor x="277" y="-30" name="L"/>
  <anchor x="550" y="660" name="S"/>
  <anchor x="550" y="350" name="W"/>
  <outline>
    <contour>
      <point x="198" y="660" type="curve" smooth="yes"/>
      <point x="60" y="660" type="line"/>
      <point x="60" y="632" type="line"/>
      <point x="194" y="632" type="line" smooth="yes"/>
      <point x="382" y="632"/>
      <point x="460" y="506"/>
      <point x="460" y="332" type="curve" smooth="yes"/>
      <point x="460" y="158"/>
      <point x="382" y="28"/>
      <point x="194" y="28" type="curve" smooth="yes"/>
      <point x="50" y="28" type="line"/>
      <point x="50" y="0" type="line"/>
      <point x="198" y="0" type="line" smooth="yes"/>
      <point x="402" y="0"/>
      <point x="494" y="136"/>
      <point x="494" y="332" type="curve" smooth="yes"/>
      <point x="494" y="528"/>
      <point x="402" y="660"/>
    </contour>
  </outline>
</glyph>
<glyph name="u16F06" format="2">
  <advance width="724"/>
  <unicode hex="16F06"/>
  <anchor x="724" y="646" name="D"/>
  <anchor x="724" y="453" name="E"/>
  <anchor x="724" y="0" name="F"/>
  <anchor x="724" y="10" name="FR"/>
  <anchor x="360" y="700" name="H"/>
  <anchor x="674" y="700" name="HD"/>
  <anchor x="724" y="217" name="K"/>
  <anchor x="360" y="-45" name="L"/>
  <anchor x="724" y="660" name="S"/>
  <anchor x="724" y="650" name="SR"/>
  <anchor x="724" y="680" name="SRT"/>
  <anchor x="724" y="690" name="ST"/>
  <anchor x="724" y="335" name="W"/>
  <outline>
    <contour>
      <point x="30" y="150" type="curve" smooth="yes"/>
      <point x="30" y="0" type="line"/>
      <point x="62" y="0" type="line"/>
      <point x="62" y="146" type="line" smooth="yes"/>
      <point x="62" y="334"/>
      <point x="184" y="412"/>
      <point x="360" y="412" type="curve" smooth="yes"/>
      <point x="535" y="412"/>
      <point x="662" y="333"/>
      <point x="662" y="146" type="curve" smooth="yes"/>
      <point x="662" y="0" type="line"/>
      <point x="694" y="0" type="line"/>
      <point x="694" y="150" type="line" smooth="yes"/>
      <point x="694" y="347"/>
      <point x="556" y="442"/>
      <point x="360" y="442" type="curve" smooth="yes"/>
      <point x="166" y="442"/>
      <point x="30" y="350"/>
    </contour>
  </outline>
</glyph>
<glyph name="u16F07" format="2">
  <advance width="460"/>
  <unicode hex="16F07"/>
  <outline>
    <contour>
      <point x="100" y="660" type="line"/>
      <point x="100" y="0" type="line"/>
      <point x="132" y="0" type="line"/>
      <point x="132" y="632" type="line"/>
      <point x="442" y="632" type="line"/>
      <point x="442" y="660" type="line"/>
    </contour>
  </outline>
</glyph>
<glyph name="u16F08" format="2">
  <advance width="550"/>
  <unicode hex="16F08"/>
  <anchor x="516" y="646" name="D"/>
  <anchor x="516" y="463" name="E"/>
  <anchor x="275" y="690" name="H"/>
  <anchor x="516" y="237" name="K"/>
  <anchor x="275" y="-30" name="L"/>
  <anchor x="516" y="660" name="S"/>
  <anchor x="516" y="350" name="W"/>
  <outline>
    <contour>
      <point x="260" y="0" type="line"/>
      <point x="292" y="0" type="line"/>
      <point x="510" y="660" type="line"/>
      <point x="478" y="660" type="line"/>
      <point x="350" y="264" type="line" smooth="yes"/>
      <point x="324" y="182"/>
      <point x="306" y="122"/>
      <point x="278" y="41" type="curve"/>
      <point x="274" y="41" type="line"/>
      <point x="246" y="122"/>
      <point x="228" y="182"/>
      <point x="202" y="264" type="curve" smooth="yes"/>
      <point x="74" y="660" type="line"/>
      <point x="40" y="660" type="line"/>
    </contour>
  </outline>
</glyph>
<glyph name="u16F0A" format="2">
  <advance width="520"/>
  <unicode hex="16F0A"/>
  <outline>
    <contour>
      <point x="244" y="0" type="line"/>
      <point x="276" y="0" type="line"/>
      <point x="276" y="632" type="line"/>
      <point x="490" y="632" type="line"/>
      <point x="490" y="660" type="line"/>
      <point x="30" y="660" type="line"/>
      <point x="30" y="632" type="line"/>
      <point x="244" y="632" type="line"/>
    </contour>
  </outline>
</glyph>
<glyph name="u16F0C" format="2">
  <advance width="556"/>
  <unicode hex="16F0C"/>
  <anchor x="556" y="646" name="D"/>
  <anchor x="556" y="450" name="E"/>
  <anchor x="556" y="0" name="F"/>
  <anchor x="278" y="700" name="H"/>
  <anchor x="556" y="240" name="K"/>
  <anchor x="278" y="-40" name="L"/>
  <anchor x="556" y="660" name="S"/>
  <anchor x="556" y="345" name="W"/>
  <outline>
    <contour>
      <point x="244" y="0" type="line"/>
      <point x="276" y="0" type="line"/>
      <point x="276" y="632" type="line"/>
      <point x="490" y="632" type="line"/>
      <point x="490" y="660" type="line"/>
      <point x="30" y="660" type="line"/>
      <point x="30" y="632" type="line"/>
      <point x="244" y="632" type="line"/>
    </contour>
    <contour>
      <point x="474" y="660" type="line"/>
      <point x="474" y="432" type="line"/>
      <point x="506" y="432" type="line"/>
      <point x="506" y="660" type="line"/>
    </contour>
  </outline>
</glyph>
<glyph name="u16F0D" format="2">
  <advance width="520"/>
  <unicode hex="16F0D"/>
  <anchor x="520" y="646" name="D"/>
  <anchor x="520" y="463" name="E"/>
  <anchor x="260" y="690" name="H"/>
  <anchor x="520" y="237" name="K"/>
  <anchor x="260" y="-30" name="L"/>
  <anchor x="520" y="660" name="S"/>
  <anchor x="520" y="350" name="W"/>
  <outline>
    <contour>
      <point x="244" y="632" type="line"/>
      <point x="244" y="0" type="line"/>
      <point x="276" y="0" type="line"/>
      <point x="276" y="632" type="line"/>
      <point x="490" y="632" type="line"/>
      <point x="490" y="660" type="line"/>
      <point x="30" y="660" type="line"/>
      <point x="30" y="632" type="line"/>
    </contour>
    <contour>
      <point x="130" y="28" type="line"/>
      <point x="130" y="0" type="line"/>
      <point x="390" y="0" type="line"/>
      <point x="390" y="28" type="line"/>
    </contour>
  </outline>
</glyph>
<glyph name="u16F0E" format="2">
  <advance width="550"/>
  <unicode hex="16F0E"/>
  <anchor x="550" y="646" name="D"/>
  <anchor x="550" y="443" name="E"/>
  <anchor x="550" y="0" name="F"/>
  <anchor x="550" y="10" name="FR"/>
  <anchor x="260" y="700" name="H"/>
  <anchor x="500" y="700" name="HD"/>
  <anchor x="550" y="227" name="K"/>
  <anchor x="352" y="-45" name="L"/>
  <anchor x="550" y="660" name="S"/>
  <anchor x="550" y="650" name="SR"/>
  <anchor x="550" y="680" name="SRT"/>
  <anchor x="550" y="690" name="ST"/>
  <anchor x="361" y="335" name="W"/>
  <outline>
    <contour>
      <point x="244" y="632" type="line"/>
      <point x="244" y="0" type="line"/>
      <point x="500" y="0" type="line"/>
      <point x="500" y="28" type="line"/>
      <point x="276" y="28" type="line"/>
      <point x="276" y="632" type="line"/>
      <point x="490" y="632" type="line"/>
      <point x="490" y="660" type="line"/>
      <point x="30" y="660" type="line"/>
      <point x="30" y="632" type="line"/>
    </contour>
  </outline>
</glyph>
<glyph name="u16F10" format="2">
  <advance width="534"/>
  <unicode hex="16F10"/>
  <anchor x="534" y="646" name="D"/>
  <anchor x="534" y="443" name="E"/>
  <anchor x="534" y="0" name="F"/>
  <anchor x="282" y="700" name="H"/>
  <anchor x="534" y="227" name="K"/>
  <anchor x="282" y="-45" name="L"/>
  <anchor x="534" y="660" name="S"/>
  <anchor x="374" y="335" name="W"/>
  <outline>
    <contour>
      <point x="336" y="0" type="curve" smooth="yes"/>
      <point x="484" y="0" type="line"/>
      <point x="484" y="28" type="line"/>
      <point x="340" y="28" type="line" smooth="yes"/>
      <point x="152" y="28"/>
      <point x="74" y="154"/>
      <point x="74" y="328" type="curve" smooth="yes"/>
      <point x="74" y="502"/>
      <point x="152" y="632"/>
      <point x="340" y="632" type="curve" smooth="yes"/>
      <point x="474" y="632" type="line"/>
      <point x="474" y="660" type="line"/>
      <point x="336" y="660" type="line" smooth="yes"/>
      <point x="132" y="660"/>
      <point x="40" y="524"/>
      <point x="40" y="328" type="curve" smooth="yes"/>
      <point x="40" y="132"/>
      <point x="132" y="0"/>
    </contour>
  </outline>
</glyph>
<glyph name="u16F12" format="2">
  <advance width="394"/>
  <unicode hex="16F12"/>
  <anchor x="394" y="646" name="D"/>
  <anchor x="394" y="443" name="E"/>
  <anchor x="394" y="0" name="F"/>
  <anchor x="189" y="700" name="H"/>
  <anchor x="394" y="227" name="K"/>
  <anchor x="189" y="-45" name="L"/>
  <anchor x="394" y="660" name="S"/>
  <anchor x="264" y="335" name="W"/>
  <outline>
    <contour>
      <point x="296" y="0" type="curve" smooth="yes"/>
      <point x="344" y="0" type="line"/>
      <point x="344" y="28" type="line"/>
      <point x="300" y="28" type="line" smooth="yes"/>
      <point x="147" y="28"/>
      <point x="84" y="104"/>
      <point x="84" y="208" type="curve" smooth="yes"/>
      <point x="84" y="317"/>
      <point x="143" y="431"/>
      <point x="334" y="632" type="curve"/>
      <point x="320" y="660" type="line"/>
      <point x="122" y="454"/>
      <point x="50" y="339"/>
      <point x="50" y="208" type="curve" smooth="yes"/>
      <point x="50" y="82"/>
      <point x="127" y="0"/>
    </contour>
    <contour>
      <point x="50" y="632" type="line"/>
      <point x="334" y="632" type="line"/>
      <point x="334" y="660" type="line"/>
      <point x="50" y="660" type="line"/>
    </contour>
  </outline>
</glyph>
<glyph name="u16F13" format="2">
  <advance width="724"/>
  <unicode hex="16F13"/>
  <anchor x="602" y="646" name="D"/>
  <anchor x="724" y="443" name="E"/>
  <anchor x="724" y="0" name="F"/>
  <anchor x="364" y="700" name="H"/>
  <anchor x="546" y="700" name="HD"/>
  <anchor x="724" y="227" name="K"/>
  <anchor x="364" y="-45" name="L"/>
  <anchor x="724" y="660" name="S"/>
  <anchor x="724" y="335" name="W"/>
  <outline>
    <contour>
      <point x="694" y="280" type="curve" smooth="yes"/>
      <point x="694" y="430" type="line"/>
      <point x="662" y="430" type="line"/>
      <point x="662" y="284" type="line" smooth="yes"/>
      <point x="662" y="96"/>
      <point x="540" y="18"/>
      <point x="364" y="18" type="curve" smooth="yes"/>
      <point x="189" y="18"/>
      <point x="62" y="97"/>
      <point x="62" y="284" type="curve" smooth="yes"/>
      <point x="62" y="430" type="line"/>
      <point x="30" y="430" type="line"/>
      <point x="30" y="280" type="line" smooth="yes"/>
      <point x="30" y="83"/>
      <point x="168" y="-12"/>
      <point x="364" y="-12" type="curve" smooth="yes"/>
      <point x="558" y="-12"/>
      <point x="694" y="80"/>
    </contour>
  </outline>
</glyph>
<glyph name="u16F14" format="2">
  <advance width="556"/>
  <unicode hex="16F14"/>
  <outline>
    <contour>
      <point x="352" y="0" type="curve" smooth="yes"/>
      <point x="500" y="0" type="line"/>
      <point x="500" y="28" type="line"/>
      <point x="356" y="28" type="line" smooth="yes"/>
      <point x="168" y="28"/>
      <point x="90" y="154"/>
      <point x="90" y="334" type="curve" smooth="yes"/>
      <point x="90" y="508"/>
      <point x="169" y="644"/>
      <point x="359" y="644" type="curve"/>
      <point x="359" y="672" type="line"/>
      <point x="144" y="672"/>
      <point x="56" y="530"/>
      <point x="56" y="334" type="curve" smooth="yes"/>
      <point x="56" y="132"/>
      <point x="148" y="0"/>
    </contour>
    <contour>
      <point x="359" y="672" type="curve" smooth="yes"/>
      <point x="350" y="672"/>
      <point x="332" y="651"/>
      <point x="343" y="651" type="curve"/>
      <point x="316" y="640"/>
      <point x="287" y="600"/>
      <point x="287" y="546" type="curve" smooth="yes"/>
      <point x="287" y="478"/>
      <point x="331" y="423"/>
      <point x="399" y="423" type="curve" smooth="yes"/>
      <point x="466" y="423"/>
      <point x="510" y="478"/>
      <point x="510" y="546" type="curve" smooth="yes"/>
      <point x="510" y="613"/>
      <point x="476" y="672"/>
    </contour>
    <contour>
      <point x="399" y="451" type="curve" smooth="yes"/>
      <point x="347" y="451"/>
      <point x="315" y="493"/>
      <point x="315" y="546" type="curve" smooth="yes"/>
      <point x="315" y="597"/>
      <point x="347" y="639"/>
      <point x="399" y="639" type="curve" smooth="yes"/>
      <point x="450" y="639"/>
      <point x="482" y="597"/>
      <point x="482" y="546" type="curve" smooth="yes"/>
      <point x="482" y="493"/>
      <point x="450" y="451"/>
    </contour>
  </outline>
</glyph>
<glyph name="u16F16" format="2">
  <advance width="460"/>
  <unicode hex="16F16"/>
  <outline>
    <contour>
      <point x="100" y="0" type="line"/>
      <point x="442" y="0" type="line"/>
      <point x="442" y="28" type="line"/>
      <point x="132" y="28" type="line"/>
      <point x="132" y="660" type="line"/>
      <point x="100" y="660" type="line"/>
    </contour>
  </outline>
</glyph>
<glyph name="u16F18" format="2">
  <advance width="505"/>
  <unicode hex="16F18"/>
  <anchor x="511" y="646" name="D"/>
  <anchor x="511" y="463" name="E"/>
  <anchor x="238" y="690" name="H"/>
  <anchor x="511" y="237" name="K"/>
  <anchor x="238" y="-30" name="L"/>
  <anchor x="511" y="660" name="S"/>
  <anchor x="511" y="350" name="W"/>
  <outline>
    <contour>
      <point x="65" y="0" type="line"/>
      <point x="343" y="0" type="line"/>
      <point x="327" y="28" type="line"/>
      <point x="97" y="28" type="line"/>
      <point x="97" y="660" type="line"/>
      <point x="65" y="660" type="line"/>
    </contour>
    <contour>
      <point x="344" y="0" type="curve" smooth="yes"/>
      <point x="431" y="0"/>
      <point x="465" y="54"/>
      <point x="465" y="121" type="curve" smooth="yes"/>
      <point x="465" y="189"/>
      <point x="421" y="244"/>
      <point x="354" y="244" type="curve" smooth="yes"/>
      <point x="286" y="244"/>
      <point x="242" y="189"/>
      <point x="242" y="121" type="curve" smooth="yes"/>
      <point x="242" y="67"/>
      <point x="271" y="27"/>
      <point x="298" y="16" type="curve"/>
      <point x="287" y="16"/>
      <point x="325" y="0"/>
    </contour>
    <contour>
      <point x="354" y="216" type="curve" smooth="yes"/>
      <point x="405" y="216"/>
      <point x="437" y="174"/>
      <point x="437" y="121" type="curve" smooth="yes"/>
      <point x="437" y="70"/>
      <point x="405" y="28"/>
      <point x="354" y="28" type="curve" smooth="yes"/>
      <point x="302" y="28"/>
      <point x="270" y="70"/>
      <point x="270" y="121" type="curve" smooth="yes"/>
      <point x="270" y="174"/>
      <point x="302" y="216"/>
    </contour>
  </outline>
</glyph>
<glyph name="u16F1A" format="2">
  <advance width="520"/>
  <unicode hex="16F1A"/>
  <anchor x="520" y="646" name="D"/>
  <anchor x="520" y="463" name="E"/>
  <anchor x="260" y="690" name="H"/>
  <anchor x="520" y="237" name="K"/>
  <anchor x="260" y="-30" name="L"/>
  <anchor x="520" y="660" name="S"/>
  <anchor x="520" y="350" name="W"/>
  <outline>
    <contour>
      <point x="10" y="0" type="line"/>
      <point x="42" y="0" type="line"/>
      <point x="182" y="396" type="line" smooth="yes"/>
      <point x="210" y="476"/>
      <point x="234" y="544"/>
      <point x="258" y="626" type="curve"/>
      <point x="262" y="626" type="line"/>
      <point x="286" y="544"/>
      <point x="310" y="476"/>
      <point x="338" y="396" type="curve" smooth="yes"/>
      <point x="476" y="0" type="line"/>
      <point x="510" y="0" type="line"/>
      <point x="274" y="660" type="line"/>
      <point x="246" y="660" type="line"/>
    </contour>
    <contour>
      <point x="32" y="0" type="line"/>
      <point x="485" y="0" type="line"/>
      <point x="485" y="28" type="line"/>
      <point x="32" y="28" type="line"/>
    </contour>
  </outline>
</glyph>
<glyph name="u16F1E" format="2">
  <advance width="510"/>
  <unicode hex="16F1E"/>
  <outline>
    <contour>
      <point x="410" y="0" type="line"/>
      <point x="410" y="660" type="line"/>
      <point x="56" y="660" type="line"/>
      <point x="56" y="632" type="line"/>
      <point x="378" y="632" type="line"/>
      <point x="378" y="28" type="line"/>
      <point x="46" y="28" type="line"/>
      <point x="46" y="0" type="line"/>
    </contour>
  </outline>
</glyph>
<glyph name="u16F20" format="2">
  <advance width="556"/>
  <unicode hex="16F20"/>
  <outline>
    <contour>
      <point x="366" y="632" type="line"/>
      <point x="366" y="0" type="line"/>
      <point x="398" y="0" type="line"/>
      <point x="398" y="632" type="line"/>
      <point x="526" y="632" type="line"/>
      <point x="526" y="660" type="line"/>
      <point x="56" y="660" type="line"/>
      <point x="56" y="632" type="line"/>
    </contour>
    <contour>
      <point x="46" y="28" type="line"/>
      <point x="46" y="0" type="line"/>
      <point x="398" y="0" type="line"/>
      <point x="398" y="28" type="line"/>
    </contour>
  </outline>
</glyph>
<glyph name="u16F21" format="2">
  <advance width="546"/>
  <unicode hex="16F21"/>
  <anchor x="546" y="646" name="D"/>
  <anchor x="546" y="463" name="E"/>
  <anchor x="273" y="690" name="H"/>
  <anchor x="546" y="237" name="K"/>
  <anchor x="273" y="-30" name="L"/>
  <anchor x="546" y="660" name="S"/>
  <anchor x="546" y="350" name="W"/>
  <outline>
    <contour>
      <point x="270" y="632" type="line"/>
      <point x="270" y="0" type="line"/>
      <point x="302" y="0" type="line"/>
      <point x="302" y="632" type="line"/>
      <point x="516" y="632" type="line"/>
      <point x="516" y="660" type="line"/>
      <point x="56" y="660" type="line"/>
      <point x="56" y="632" type="line"/>
    </contour>
    <contour>
      <point x="46" y="28" type="line"/>
      <point x="46" y="0" type="line"/>
      <point x="302" y="0" type="line"/>
      <point x="302" y="28" type="line"/>
    </contour>
  </outline>
</glyph>
<glyph name="u16F23" format="2">
  <advance width="556"/>
  <unicode hex="16F23"/>
  <anchor x="556" y="646" name="D"/>
  <anchor x="556" y="463" name="E"/>
  <anchor x="278" y="690" name="H"/>
  <anchor x="556" y="237" name="K"/>
  <anchor x="278" y="-30" name="L"/>
  <anchor x="556" y="660" name="S"/>
  <anchor x="556" y="350" name="W"/>
  <outline>
    <contour>
      <point x="352" y="660" type="line" smooth="yes"/>
      <point x="148" y="660"/>
      <point x="56" y="528"/>
      <point x="56" y="326" type="curve" smooth="yes"/>
      <point x="56" y="130"/>
      <point x="144" y="-12"/>
      <point x="359" y="-12" type="curve"/>
      <point x="359" y="16" type="line"/>
      <point x="169" y="16"/>
      <point x="90" y="152"/>
      <point x="90" y="326" type="curve" smooth="yes"/>
      <point x="90" y="506"/>
      <point x="168" y="632"/>
      <point x="356" y="632" type="curve" smooth="yes"/>
      <point x="500" y="632" type="line"/>
      <point x="500" y="660" type="line"/>
    </contour>
    <contour>
      <point x="359" y="-12" type="curve" smooth="yes"/>
      <point x="476" y="-12"/>
      <point x="510" y="47"/>
      <point x="510" y="114" type="curve" smooth="yes"/>
      <point x="510" y="182"/>
      <point x="466" y="237"/>
      <point x="399" y="237" type="curve" smooth="yes"/>
      <point x="331" y="237"/>
      <point x="287" y="182"/>
      <point x="287" y="114" type="curve" smooth="yes"/>
      <point x="287" y="60"/>
      <point x="316" y="20"/>
      <point x="343" y="9" type="curve"/>
      <point x="332" y="9"/>
      <point x="350" y="-12"/>
    </contour>
    <contour>
      <point x="399" y="209" type="curve" smooth="yes"/>
      <point x="450" y="209"/>
      <point x="482" y="167"/>
      <point x="482" y="114" type="curve" smooth="yes"/>
      <point x="482" y="63"/>
      <point x="450" y="21"/>
      <point x="399" y="21" type="curve" smooth="yes"/>
      <point x="347" y="21"/>
      <point x="315" y="63"/>
      <point x="315" y="114" type="curve" smooth="yes"/>
      <point x="315" y="167"/>
      <point x="347" y="209"/>
    </contour>
  </outline>
</glyph>
<glyph name="u16F25" format="2">
  <advance width="727"/>
  <unicode hex="16F25"/>
  <anchor x="727" y="646" name="D"/>
  <anchor x="727" y="443" name="E"/>
  <anchor x="727" y="0" name="F"/>
  <anchor x="364" y="700" name="H"/>
  <anchor x="677" y="700" name="HD"/>
  <anchor x="727" y="227" name="K"/>
  <anchor x="364" y="-45" name="L"/>
  <anchor x="727" y="660" name="S"/>
  <anchor x="727" y="335" name="W"/>
  <outline>
    <contour>
      <point x="30" y="280" type="line" smooth="yes"/>
      <point x="30" y="83"/>
      <point x="168" y="-12"/>
      <point x="364" y="-12" type="curve" smooth="yes"/>
      <point x="560" y="-12"/>
      <point x="697" y="74"/>
      <point x="697" y="289" type="curve"/>
      <point x="666" y="289" type="line"/>
      <point x="666" y="98"/>
      <point x="549" y="18"/>
      <point x="364" y="18" type="curve" smooth="yes"/>
      <point x="189" y="18"/>
      <point x="62" y="97"/>
      <point x="62" y="284" type="curve" smooth="yes"/>
      <point x="62" y="430" type="line"/>
      <point x="30" y="430" type="line"/>
    </contour>
    <contour>
      <point x="697" y="289" type="curve" smooth="yes"/>
      <point x="697" y="405"/>
      <point x="640" y="440"/>
      <point x="576" y="440" type="curve" smooth="yes"/>
      <point x="510" y="440"/>
      <point x="458" y="394"/>
      <point x="458" y="329" type="curve" smooth="yes"/>
      <point x="458" y="263"/>
      <point x="510" y="217"/>
      <point x="576" y="217" type="curve" smooth="yes"/>
      <point x="628" y="217"/>
      <point x="665" y="246"/>
      <point x="676" y="273" type="curve"/>
      <point x="676" y="262"/>
      <point x="697" y="282"/>
    </contour>
    <contour>
      <point x="486" y="329" type="curve" smooth="yes"/>
      <point x="486" y="378"/>
      <point x="525" y="412"/>
      <point x="576" y="412" type="curve" smooth="yes"/>
      <point x="629" y="412"/>
      <point x="664" y="379"/>
      <point x="664" y="329" type="curve" smooth="yes"/>
      <point x="664" y="279"/>
      <point x="625" y="245"/>
      <point x="576" y="245" type="curve" smooth="yes"/>
      <point x="525" y="245"/>
      <point x="486" y="279"/>
    </contour>
  </outline>
</glyph>
<glyph name="u16F26" format="2">
  <advance width="447"/>
  <unicode hex="16F26"/>
  <anchor x="447" y="646" name="D"/>
  <anchor x="447" y="450" name="E"/>
  <anchor x="447" y="0" name="F"/>
  <anchor x="223" y="700" name="H"/>
  <anchor x="447" y="240" name="K"/>
  <anchor x="223" y="-40" name="L"/>
  <anchor x="447" y="660" name="S"/>
  <anchor x="447" y="345" name="W"/>
  <outline>
    <contour>
      <point x="372" y="660" type="line"/>
      <point x="30" y="660" type="line"/>
      <point x="30" y="632" type="line"/>
      <point x="340" y="632" type="line"/>
      <point x="340" y="0" type="line"/>
      <point x="372" y="0" type="line"/>
    </contour>
  </outline>
</glyph>
<glyph name="u16F28" format="2">
  <advance width="212"/>
  <unicode hex="16F28"/>
  <anchor x="222" y="646" name="D"/>
  <anchor x="222" y="463" name="E"/>
  <anchor x="106" y="690" name="H"/>
  <anchor x="222" y="237" name="K"/>
  <anchor x="106" y="-30" name="L"/>
  <anchor x="222" y="660" name="S"/>
  <anchor x="222" y="350" name="W"/>
  <outline>
    <contour>
      <point x="90" y="0" type="line"/>
      <point x="122" y="0" type="line"/>
      <point x="122" y="660" type="line"/>
      <point x="90" y="660" type="line"/>
    </contour>
  </outline>
</glyph>
<glyph name="u16F2A" format="2">
  <advance width="550"/>
  <unicode hex="16F2A"/>
  <anchor x="550" y="646" name="D"/>
  <anchor x="550" y="463" name="E"/>
  <anchor x="277" y="690" name="H"/>
  <anchor x="550" y="237" name="K"/>
  <anchor x="277" y="-30" name="L"/>
  <anchor x="550" y="660" name="S"/>
  <anchor x="550" y="350" name="W"/>
  <outline>
    <contour>
      <point x="306" y="28" type="line"/>
      <point x="306" y="660" type="line"/>
      <point x="60" y="660" type="line"/>
      <point x="60" y="632" type="line"/>
      <point x="274" y="632" type="line"/>
      <point x="274" y="28" type="line"/>
      <point x="50" y="28" type="line"/>
      <point x="50" y="0" type="line"/>
      <point x="520" y="0" type="line"/>
      <point x="520" y="28" type="line"/>
    </contour>
  </outline>
</glyph>
<glyph name="u16F2C" format="2">
  <advance width="526"/>
  <unicode hex="16F2C"/>
  <outline>
    <contour>
      <point x="335" y="366" type="line"/>
      <point x="145" y="363"/>
      <point x="56" y="286"/>
      <point x="56" y="170" type="curve" smooth="yes"/>
      <point x="56" y="60"/>
      <point x="148" y="-12"/>
      <point x="272" y="-12" type="curve" smooth="yes"/>
      <point x="370" y="-12"/>
      <point x="434" y="30"/>
      <point x="484" y="88" type="curve"/>
      <point x="462" y="110" type="line"/>
      <point x="414" y="54"/>
      <point x="352" y="18"/>
      <point x="272" y="18" type="curve" smooth="yes"/>
      <point x="166" y="18"/>
      <point x="88" y="76"/>
      <point x="88" y="170" type="curve" smooth="yes"/>
      <point x="88" y="268"/>
      <point x="171" y="338"/>
      <point x="335" y="338" type="curve"/>
    </contour>
    <contour>
      <point x="454" y="584" type="curve"/>
      <point x="471" y="610" type="line"/>
      <point x="413" y="650"/>
      <point x="356" y="672"/>
      <point x="277" y="672" type="curve" smooth="yes"/>
      <point x="153" y="672"/>
      <point x="66" y="600"/>
      <point x="66" y="500" type="curve" smooth="yes"/>
      <point x="66" y="401"/>
      <point x="145" y="341"/>
      <point x="335" y="338" type="curve"/>
      <point x="335" y="366" type="line"/>
      <point x="171" y="366"/>
      <point x="98" y="422"/>
      <point x="98" y="500" type="curve" smooth="yes"/>
      <point x="98" y="584"/>
      <point x="171" y="642"/>
      <point x="277" y="642" type="curve" smooth="yes"/>
      <point x="340" y="642"/>
      <point x="398" y="622"/>
    </contour>
  </outline>
</glyph>
<glyph name="u16F2E" format="2">
  <advance width="479"/>
  <unicode hex="16F2E"/>
  <anchor x="475" y="646" name="D"/>
  <anchor x="475" y="463" name="E"/>
  <anchor x="220" y="690" name="H"/>
  <anchor x="475" y="237" name="K"/>
  <anchor x="220" y="-30" name="L"/>
  <anchor x="475" y="660" name="S"/>
  <anchor x="475" y="350" name="W"/>
  <outline>
    <contour>
      <point x="65" y="0" type="line"/>
      <point x="429" y="0" type="line"/>
      <point x="429" y="28" type="line"/>
      <point x="97" y="28" type="line"/>
      <point x="97" y="632" type="line"/>
      <point x="419" y="632" type="line"/>
      <point x="419" y="660" type="line"/>
      <point x="65" y="660" type="line"/>
    </contour>
  </outline>
</glyph>
<glyph name="u16F30" format="2">
  <advance width="556"/>
  <unicode hex="16F30"/>
  <outline>
    <contour>
      <point x="190" y="632" type="line"/>
      <point x="500" y="632" type="line"/>
      <point x="500" y="660" type="line"/>
      <point x="30" y="660" type="line"/>
      <point x="30" y="632" type="line"/>
      <point x="158" y="632" type="line"/>
      <point x="158" y="0" type="line"/>
      <point x="190" y="0" type="line"/>
    </contour>
    <contour>
      <point x="510" y="28" type="line"/>
      <point x="158" y="28" type="line"/>
      <point x="158" y="0" type="line"/>
      <point x="510" y="0" type="line"/>
    </contour>
  </outline>
</glyph>
<glyph name="u16F31" format="2">
  <advance width="510"/>
  <unicode hex="16F31"/>
  <outline>
    <contour>
      <point x="100" y="0" type="line"/>
      <point x="464" y="0" type="line"/>
      <point x="464" y="28" type="line"/>
      <point x="132" y="28" type="line"/>
      <point x="132" y="632" type="line"/>
      <point x="454" y="632" type="line"/>
      <point x="454" y="660" type="line"/>
      <point x="100" y="660" type="line"/>
    </contour>
    <contour>
      <point x="422" y="660" type="line"/>
      <point x="422" y="432" type="line"/>
      <point x="454" y="432" type="line"/>
      <point x="454" y="660" type="line"/>
    </contour>
  </outline>
</glyph>
<glyph name="u16F32" format="2">
  <advance width="550"/>
  <unicode hex="16F32"/>
  <anchor x="550" y="646" name="D"/>
  <anchor x="550" y="450" name="E"/>
  <anchor x="550" y="0" name="F"/>
  <anchor x="275" y="700" name="H"/>
  <anchor x="550" y="240" name="K"/>
  <anchor x="275" y="-40" name="L"/>
  <anchor x="550" y="660" name="S"/>
  <anchor x="550" y="345" name="W"/>
  <outline>
    <contour>
      <point x="244" y="28" type="line"/>
      <point x="30" y="28" type="line"/>
      <point x="30" y="0" type="line"/>
      <point x="500" y="0" type="line"/>
      <point x="500" y="28" type="line"/>
      <point x="276" y="28" type="line"/>
      <point x="276" y="632" type="line"/>
      <point x="490" y="632" type="line"/>
      <point x="490" y="660" type="line"/>
      <point x="244" y="660" type="line"/>
    </contour>
  </outline>
</glyph>
<glyph name="u16F33" format="2">
  <advance width="467"/>
  <unicode hex="16F33"/>
  <anchor x="463" y="646" name="D"/>
  <anchor x="463" y="463" name="E"/>
  <anchor x="232" y="690" name="H"/>
  <anchor x="463" y="237" name="K"/>
  <anchor x="232" y="-30" name="L"/>
  <anchor x="463" y="660" name="S"/>
  <anchor x="463" y="350" name="W"/>
  <outline>
    <contour>
      <point x="44" y="-12" type="line"/>
      <point x="321" y="128"/>
      <point x="417" y="195"/>
      <point x="417" y="613" type="curve" smooth="yes"/>
      <point x="417" y="660" type="line"/>
      <point x="385" y="660" type="line"/>
      <point x="385" y="617" type="line" smooth="yes"/>
      <point x="385" y="206"/>
      <point x="288" y="145"/>
      <point x="30" y="14" type="curve"/>
    </contour>
  </outline>
</glyph>
<glyph name="u16F34" format="2">
  <advance width="472"/>
  <unicode hex="16F34"/>
  <outline>
    <contour>
      <point x="53" y="-12" type="line"/>
      <point x="330" y="128"/>
      <point x="426" y="195"/>
      <point x="426" y="613" type="curve" smooth="yes"/>
      <point x="426" y="660" type="line"/>
      <point x="394" y="660" type="line"/>
      <point x="394" y="617" type="line" smooth="yes"/>
      <point x="394" y="206"/>
      <point x="297" y="145"/>
      <point x="39" y="14" type="curve"/>
    </contour>
    <contour>
      <point x="46" y="632" type="line"/>
      <point x="426" y="632" type="line"/>
      <point x="426" y="660" type="line"/>
      <point x="46" y="660" type="line"/>
    </contour>
  </outline>
</glyph>
<glyph name="u16F35" format="2">
  <advance width="519"/>
  <unicode hex="16F35"/>
  <anchor x="499" y="646" name="D"/>
  <anchor x="499" y="463" name="E"/>
  <anchor x="232" y="690" name="H"/>
  <anchor x="499" y="237" name="K"/>
  <anchor x="232" y="-30" name="L"/>
  <anchor x="499" y="660" name="S"/>
  <anchor x="499" y="350" name="W"/>
  <outline>
    <contour>
      <point x="65" y="0" type="line"/>
      <point x="97" y="0" type="line"/>
      <point x="97" y="312" type="line"/>
      <point x="247" y="312" type="line" smooth="yes"/>
      <point x="377" y="312"/>
      <point x="459" y="374"/>
      <point x="459" y="490" type="curve" smooth="yes"/>
      <point x="459" y="612"/>
      <point x="377" y="660"/>
      <point x="247" y="660" type="curve" smooth="yes"/>
      <point x="65" y="660" type="line"/>
    </contour>
    <contour>
      <point x="97" y="340" type="line"/>
      <point x="97" y="632" type="line"/>
      <point x="235" y="632" type="line" smooth="yes"/>
      <point x="357" y="632"/>
      <point x="425" y="594"/>
      <point x="425" y="490" type="curve" smooth="yes"/>
      <point x="425" y="388"/>
      <point x="357" y="340"/>
      <point x="235" y="340" type="curve" smooth="yes"/>
    </contour>
    <contour>
      <point x="431" y="0" type="line"/>
      <point x="469" y="0" type="line"/>
      <point x="275" y="324" type="line"/>
      <point x="239" y="322" type="line"/>
    </contour>
  </outline>
</glyph>
<glyph name="u16F37" format="2">
  <advance width="460"/>
  <unicode hex="16F37"/>
  <outline>
    <contour>
      <point x="214" y="0" type="line"/>
      <point x="246" y="0" type="line"/>
      <point x="246" y="660" type="line"/>
      <point x="214" y="660" type="line"/>
    </contour>
    <contour>
      <point x="30" y="474" type="line"/>
      <point x="30" y="446" type="line"/>
      <point x="430" y="446" type="line"/>
      <point x="430" y="474" type="line"/>
    </contour>
  </outline>
</glyph>
<glyph name="u16F3D" format="2">
  <advance width="520"/>
  <unicode hex="16F3D"/>
  <anchor x="260" y="690" name="H"/>
  <anchor x="520" y="660" name="S"/>
  <anchor x="520" y="350" name="W"/>
  <anchor x="520" y="463" name="E"/>
  <anchor x="520" y="237" name="K"/>
  <anchor x="520" y="646" name="D"/>
  <anchor x="260" y="-30" name="L"/>
  <outline>
    <contour>
      <point x="10" y="0" type="line"/>
      <point x="42" y="0" type="line"/>
      <point x="182" y="396" type="line" smooth="yes"/>
      <point x="210" y="476"/>
      <point x="234" y="544"/>
      <point x="258" y="626" type="curve"/>
      <point x="262" y="626" type="line"/>
      <point x="286" y="544"/>
      <point x="310" y="476"/>
      <point x="338" y="396" type="curve" smooth="yes"/>
      <point x="476" y="0" type="line"/>
      <point x="510" y="0" type="line"/>
      <point x="274" y="660" type="line"/>
      <point x="246" y="660" type="line"/>
    </contour>
  </outline>
</glyph>
<glyph name="u16F3F" format="2">
  <advance width="720"/>
  <unicode hex="16F3F"/>
  <anchor x="720" y="646" name="D"/>
  <anchor x="720" y="443" name="E"/>
  <anchor x="720" y="0" name="F"/>
  <anchor x="720" y="10" name="FR"/>
  <anchor x="360" y="700" name="H"/>
  <anchor x="670" y="700" name="HD"/>
  <anchor x="720" y="227" name="K"/>
  <anchor x="360" y="-45" name="L"/>
  <anchor x="720" y="660" name="S"/>
  <anchor x="720" y="650" name="SR"/>
  <anchor x="720" y="690" name="SRT"/>
  <anchor x="720" y="690" name="ST"/>
  <anchor x="720" y="335" name="W"/>
  <outline>
    <contour>
      <point x="690" y="238" type="line"/>
      <point x="690" y="270" type="line"/>
      <point x="30" y="488" type="line"/>
      <point x="30" y="456" type="line"/>
      <point x="426" y="328" type="line" smooth="yes"/>
      <point x="508" y="302"/>
      <point x="568" y="284"/>
      <point x="649" y="256" type="curve"/>
      <point x="649" y="252" type="line"/>
      <point x="568" y="224"/>
      <point x="508" y="206"/>
      <point x="426" y="180" type="curve" smooth="yes"/>
      <point x="30" y="52" type="line"/>
      <point x="30" y="18" type="line"/>
    </contour>
  </outline>
</glyph>
<glyph name="u16F48" format="2">
  <advance width="536"/>
  <unicode hex="16F48"/>
  <anchor x="536" y="646" name="D"/>
  <anchor x="536" y="463" name="E"/>
  <anchor x="268" y="690" name="H"/>
  <anchor x="536" y="237" name="K"/>
  <anchor x="268" y="-30" name="L"/>
  <anchor x="536" y="660" name="S"/>
  <anchor x="536" y="350" name="W"/>
  <outline>
    <contour>
      <point x="260" y="0" type="line"/>
      <point x="292" y="0" type="line"/>
      <point x="292" y="632" type="line"/>
      <point x="506" y="632" type="line"/>
      <point x="506" y="660" type="line"/>
      <point x="46" y="660" type="line"/>
      <point x="46" y="632" type="line"/>
      <point x="260" y="632" type="line"/>
    </contour>
    <contour>
      <point x="46" y="780" type="line"/>
      <point x="46" y="512" type="line"/>
      <point x="78" y="512" type="line"/>
      <point x="78" y="780" type="line"/>
    </contour>
  </outline>
</glyph>
<glyph name="u16F49" format="2">
  <advance width="492"/>
  <unicode hex="16F49"/>
  <outline>
    <contour>
      <point x="246" y="0" type="line"/>
      <point x="278" y="0" type="line"/>
      <point x="278" y="660" type="line"/>
      <point x="246" y="660" type="line"/>
    </contour>
    <contour>
      <point x="62" y="474" type="line"/>
      <point x="62" y="446" type="line"/>
      <point x="462" y="446" type="line"/>
      <point x="462" y="474" type="line"/>
    </contour>
    <contour>
      <point x="46" y="594" type="line"/>
      <point x="46" y="326" type="line"/>
      <point x="78" y="326" type="line"/>
      <point x="78" y="594" type="line"/>
    </contour>
  </outline>
</glyph>
<glyph name="u16F4A" format="2">
  <advance width="562"/>
  <unicode hex="16F4A"/>
  <anchor x="281" y="690" name="H"/>
  <anchor x="562" y="660" name="S"/>
  <anchor x="562" y="350" name="W"/>
  <anchor x="562" y="463" name="E"/>
  <anchor x="562" y="237" name="K"/>
  <anchor x="562" y="646" name="D"/>
  <anchor x="281" y="-30" name="L"/>
  <outline>
    <contour>
      <point x="260" y="632" type="line"/>
      <point x="260" y="0" type="line"/>
      <point x="516" y="0" type="line"/>
      <point x="516" y="28" type="line"/>
      <point x="292" y="28" type="line"/>
      <point x="292" y="632" type="line"/>
      <point x="506" y="632" type="line"/>
      <point x="506" y="660" type="line"/>
      <point x="46" y="660" type="line"/>
      <point x="46" y="632" type="line"/>
    </contour>
    <contour>
      <point x="46" y="780" type="line"/>
      <point x="46" y="512" type="line"/>
      <point x="78" y="512" type="line"/>
      <point x="78" y="780" type="line"/>
    </contour>
  </outline>
</glyph>
<glyph name="u16F4F" format="2">
  <advance width="126"/>
  <unicode hex="16F4F"/>
  <outline>
    <contour>
      <point x="49" y="0" type="line"/>
      <point x="77" y="0" type="line"/>
      <point x="77" y="220" type="line"/>
      <point x="49" y="220" type="line"/>
    </contour>
  </outline>
</glyph>
<glyph name="u16F50" format="2">
  <advance width="416"/>
  <unicode hex="16F50"/>
  <outline>
    <contour>
      <point x="352" y="0" type="curve" smooth="yes"/>
      <point x="370" y="0" type="line"/>
      <point x="370" y="28" type="line"/>
      <point x="356" y="28" type="line" smooth="yes"/>
      <point x="168" y="28"/>
      <point x="90" y="154"/>
      <point x="90" y="328" type="curve" smooth="yes"/>
      <point x="90" y="502"/>
      <point x="168" y="632"/>
      <point x="356" y="632" type="curve" smooth="yes"/>
      <point x="360" y="632" type="line"/>
      <point x="360" y="660" type="line"/>
      <point x="352" y="660" type="line" smooth="yes"/>
      <point x="148" y="660"/>
      <point x="56" y="524"/>
      <point x="56" y="328" type="curve" smooth="yes"/>
      <point x="56" y="132"/>
      <point x="148" y="0"/>
    </contour>
  </outline>
</glyph>
<glyph name="u16F51" format="2">
  <advance width="140"/>
  <unicode hex="16F51"/>
  <anchor x="140" y="660" name="S"/>
  <anchor x="0" y="660" name="SB"/>
  <outline>
    <contour>
      <point x="40" y="496" type="line"/>
      <point x="88" y="525"/>
      <point x="116" y="587"/>
      <point x="116" y="641" type="curve" smooth="yes"/>
      <point x="116" y="702"/>
      <point x="91" y="722"/>
      <point x="66" y="722" type="curve" smooth="yes"/>
      <point x="42" y="722"/>
      <point x="24" y="706"/>
      <point x="24" y="682" type="curve" smooth="yes"/>
      <point x="24" y="658"/>
      <point x="42" y="645"/>
      <point x="66" y="645" type="curve" smooth="yes"/>
      <point x="78" y="645"/>
      <point x="94" y="650"/>
      <point x="104" y="662" type="curve"/>
      <point x="88" y="698" type="line"/>
      <point x="88" y="641" type="line"/>
      <point x="88" y="590"/>
      <point x="61" y="536"/>
      <point x="24" y="515" type="curve"/>
    </contour>
  </outline>
</glyph>
<glyph name="u16F52" format="2">
  <advance width="142"/>
  <unicode hex="16F52"/>
  <anchor x="142" y="660" name="S"/>
  <anchor x="0" y="660" name="SB"/>
  <outline>
    <contour>
      <point x="101" y="672" type="line"/>
      <point x="53" y="643"/>
      <point x="25" y="596"/>
      <point x="25" y="552" type="curve" smooth="yes"/>
      <point x="25" y="501"/>
      <point x="50" y="486"/>
      <point x="75" y="486" type="curve" smooth="yes"/>
      <point x="99" y="486"/>
      <point x="117" y="502"/>
      <point x="117" y="526" type="curve" smooth="yes"/>
      <point x="117" y="550"/>
      <point x="99" y="563"/>
      <point x="75" y="563" type="curve" smooth="yes"/>
      <point x="63" y="563"/>
      <point x="47" y="558"/>
      <point x="37" y="546" type="curve"/>
      <point x="53" y="510" type="line"/>
      <point x="53" y="557" type="line"/>
      <point x="53" y="598"/>
      <point x="80" y="632"/>
      <point x="117" y="653" type="curve"/>
    </contour>
  </outline>
</glyph>
<glyph name="u16F54" format="2">
  <advance width="228"/>
  <unicode hex="16F54"/>
  <outline>
    <contour>
      <point x="24" y="124" type="line"/>
      <point x="24" y="96" type="line"/>
      <point x="204" y="96" type="line"/>
      <point x="204" y="124" type="line"/>
    </contour>
  </outline>
</glyph>
<glyph name="u16F55" format="2">
  <advance width="398"/>
  <unicode hex="16F55"/>
  <anchor x="0" y="170" name="_S"/>
  <anchor x="0" y="110" name="_W"/>
  <anchor x="398" y="170" name="S"/>
  <anchor x="398" y="110" name="W"/>
  <outline>
    <contour>
      <point x="184" y="220" type="curve"/>
      <point x="156" y="220" type="line"/>
      <point x="156" y="210"/>
      <point x="156" y="119"/>
      <point x="156" y="109" type="curve" smooth="yes"/>
      <point x="156" y="37"/>
      <point x="195" y="-12"/>
      <point x="262" y="-12" type="curve" smooth="yes"/>
      <point x="330" y="-12"/>
      <point x="369" y="37"/>
      <point x="369" y="109" type="curve" smooth="yes"/>
      <point x="369" y="119"/>
      <point x="369" y="210"/>
      <point x="369" y="220" type="curve"/>
      <point x="341" y="220" type="line"/>
      <point x="341" y="210"/>
      <point x="341" y="124"/>
      <point x="341" y="114" type="curve" smooth="yes"/>
      <point x="341" y="53"/>
      <point x="314" y="16"/>
      <point x="262" y="16" type="curve" smooth="yes"/>
      <point x="211" y="16"/>
      <point x="184" y="53"/>
      <point x="184" y="114" type="curve" smooth="yes"/>
      <point x="184" y="124"/>
      <point x="184" y="210"/>
    </contour>
    <contour>
      <point x="24" y="220" type="line"/>
      <point x="24" y="192" type="line"/>
      <point x="184" y="192" type="line"/>
      <point x="184" y="220" type="line"/>
    </contour>
  </outline>
</glyph>
<glyph name="u16F56" format="2">
  <advance width="273"/>
  <unicode hex="16F56"/>
  <anchor x="0" y="170" name="SB"/>
  <anchor x="0" y="110" name="WB"/>
  <anchor x="0" y="0" name="FB"/>
  <anchor x="273" y="170" name="S"/>
  <anchor x="273" y="110" name="W"/>
  <anchor x="273" y="0" name="F"/>
  <outline>
    <contour>
      <point x="58" y="220" type="curve"/>
      <point x="30" y="220" type="line"/>
      <point x="30" y="210"/>
      <point x="30" y="119"/>
      <point x="30" y="109" type="curve" smooth="yes"/>
      <point x="30" y="37"/>
      <point x="69" y="-12"/>
      <point x="136" y="-12" type="curve" smooth="yes"/>
      <point x="204" y="-12"/>
      <point x="243" y="37"/>
      <point x="243" y="109" type="curve" smooth="yes"/>
      <point x="243" y="119"/>
      <point x="243" y="210"/>
      <point x="243" y="220" type="curve"/>
      <point x="215" y="220" type="line"/>
      <point x="215" y="210"/>
      <point x="215" y="124"/>
      <point x="215" y="114" type="curve" smooth="yes"/>
      <point x="215" y="53"/>
      <point x="188" y="16"/>
      <point x="136" y="16" type="curve" smooth="yes"/>
      <point x="85" y="16"/>
      <point x="58" y="53"/>
      <point x="58" y="114" type="curve" smooth="yes"/>
      <point x="58" y="124"/>
      <point x="58" y="210"/>
    </contour>
    <contour>
      <point x="30" y="146" type="line"/>
      <point x="30" y="118" type="line"/>
      <point x="243" y="118" type="line"/>
      <point x="243" y="146" type="line"/>
    </contour>
  </outline>
</glyph>
<glyph name="u16F57" format="2">
  <advance width="293"/>
  <unicode hex="16F57"/>
  <outline>
    <contour>
      <point x="24" y="192" type="line"/>
      <point x="160" y="192" type="line"/>
      <point x="186" y="220" type="line"/>
      <point x="24" y="220" type="line"/>
    </contour>
    <contour>
      <point x="180" y="-12" type="curve" smooth="yes"/>
      <point x="230" y="-12"/>
      <point x="274" y="27"/>
      <point x="274" y="97" type="curve"/>
      <point x="264" y="97"/>
      <point x="255" y="97"/>
      <point x="246" y="97" type="curve"/>
      <point x="246" y="42"/>
      <point x="218" y="16"/>
      <point x="180" y="16" type="curve" smooth="yes"/>
      <point x="141" y="16"/>
      <point x="118" y="40"/>
      <point x="118" y="78" type="curve" smooth="yes"/>
      <point x="118" y="121"/>
      <point x="163" y="183"/>
      <point x="204" y="220" type="curve"/>
      <point x="173" y="220" type="line"/>
      <point x="137" y="192"/>
      <point x="90" y="134"/>
      <point x="90" y="77" type="curve" smooth="yes"/>
      <point x="90" y="25"/>
      <point x="124" y="-12"/>
    </contour>
  </outline>
</glyph>
<glyph name="u16F58" format="2">
  <advance width="285"/>
  <unicode hex="16F58"/>
  <anchor x="285" y="0" name="F"/>
  <anchor x="0" y="0" name="FB"/>
  <anchor x="285" y="170" name="S"/>
  <anchor x="0" y="170" name="SB"/>
  <anchor x="285" y="110" name="W"/>
  <anchor x="0" y="110" name="WB"/>
  <outline>
    <contour>
      <point x="25" y="220" type="line"/>
      <point x="25" y="192" type="line"/>
      <point x="150" y="192" type="line"/>
      <point x="177" y="220" type="line"/>
    </contour>
    <contour>
      <point x="103" y="100" type="curve"/>
      <point x="103" y="75" type="line"/>
      <point x="110" y="91"/>
      <point x="145" y="113"/>
      <point x="176" y="113" type="curve" smooth="yes"/>
      <point x="215" y="113"/>
      <point x="232" y="92"/>
      <point x="232" y="67" type="curve" smooth="yes"/>
      <point x="232" y="42"/>
      <point x="209" y="16"/>
      <point x="171" y="16" type="curve" smooth="yes"/>
      <point x="132" y="16"/>
      <point x="109" y="40"/>
      <point x="109" y="78" type="curve" smooth="yes"/>
      <point x="109" y="121"/>
      <point x="154" y="183"/>
      <point x="195" y="220" type="curve"/>
      <point x="164" y="220" type="line"/>
      <point x="128" y="192"/>
      <point x="81" y="134"/>
      <point x="81" y="77" type="curve" smooth="yes"/>
      <point x="81" y="25"/>
      <point x="115" y="-12"/>
      <point x="171" y="-12" type="curve" smooth="yes"/>
      <point x="221" y="-12"/>
      <point x="260" y="27"/>
      <point x="260" y="67" type="curve" smooth="yes"/>
      <point x="260" y="110"/>
      <point x="230" y="141"/>
      <point x="182" y="141" type="curve" smooth="yes"/>
      <point x="143" y="141"/>
      <point x="111" y="115"/>
    </contour>
  </outline>
</glyph>
<glyph name="u16F59" format="2">
  <advance width="273"/>
  <unicode hex="16F59"/>
  <anchor x="272" y="170" name="S"/>
  <anchor x="1" y="170" name="SB"/>
  <anchor x="272" y="110" name="W"/>
  <anchor x="1" y="110" name="WB"/>
  <outline>
    <contour>
      <point x="137" y="-12" type="curve" smooth="yes"/>
      <point x="204" y="-12"/>
      <point x="248" y="43"/>
      <point x="248" y="111" type="curve" smooth="yes"/>
      <point x="248" y="178"/>
      <point x="204" y="232"/>
      <point x="137" y="232" type="curve" smooth="yes"/>
      <point x="69" y="232"/>
      <point x="25" y="178"/>
      <point x="25" y="111" type="curve" smooth="yes"/>
      <point x="25" y="43"/>
      <point x="69" y="-12"/>
    </contour>
    <contour>
      <point x="137" y="16" type="curve" smooth="yes"/>
      <point x="85" y="16"/>
      <point x="53" y="58"/>
      <point x="53" y="111" type="curve" smooth="yes"/>
      <point x="53" y="162"/>
      <point x="85" y="204"/>
      <point x="137" y="204" type="curve" smooth="yes"/>
      <point x="188" y="204"/>
      <point x="220" y="162"/>
      <point x="220" y="111" type="curve" smooth="yes"/>
      <point x="220" y="58"/>
      <point x="188" y="16"/>
    </contour>
  </outline>
</glyph>
<glyph name="u16F5A" format="2">
  <advance width="343"/>
  <unicode hex="16F5A"/>
  <anchor x="343" y="0" name="F"/>
  <anchor x="0" y="0" name="FB"/>
  <anchor x="0" y="10" name="FBR"/>
  <anchor x="343" y="10" name="FR"/>
  <anchor x="343" y="170" name="S"/>
  <anchor x="0" y="170" name="SB"/>
  <anchor x="0" y="160" name="SBR"/>
  <anchor x="0" y="180" name="SBRT"/>
  <anchor x="0" y="190" name="SBT"/>
  <anchor x="343" y="160" name="SR"/>
  <anchor x="343" y="180" name="SRT"/>
  <anchor x="343" y="190" name="ST"/>
  <anchor x="343" y="110" name="W"/>
  <anchor x="0" y="110" name="WB"/>
  <outline>
    <contour>
      <point x="137" y="-12" type="curve" smooth="yes"/>
      <point x="204" y="-12"/>
      <point x="248" y="39"/>
      <point x="248" y="105" type="curve" smooth="yes"/>
      <point x="248" y="170"/>
      <point x="204" y="220"/>
      <point x="137" y="220" type="curve" smooth="yes"/>
      <point x="69" y="220"/>
      <point x="25" y="170"/>
      <point x="25" y="105" type="curve" smooth="yes"/>
      <point x="25" y="39"/>
      <point x="69" y="-12"/>
    </contour>
    <contour>
      <point x="137" y="16" type="curve" smooth="yes"/>
      <point x="85" y="16"/>
      <point x="53" y="54"/>
      <point x="53" y="105" type="curve" smooth="yes"/>
      <point x="53" y="154"/>
      <point x="85" y="192"/>
      <point x="137" y="192" type="curve" smooth="yes"/>
      <point x="188" y="192"/>
      <point x="220" y="154"/>
      <point x="220" y="105" type="curve" smooth="yes"/>
      <point x="220" y="54"/>
      <point x="188" y="16"/>
    </contour>
    <contour>
      <point x="138" y="220" type="line"/>
      <point x="138" y="192" type="line"/>
      <point x="318" y="192" type="line"/>
      <point x="318" y="220" type="line"/>
    </contour>
  </outline>
</glyph>
<glyph name="u16F5B" format="2">
  <advance width="271"/>
  <unicode hex="16F5B"/>
  <anchor x="0" y="170" name="SB"/>
  <anchor x="0" y="110" name="WB"/>
  <anchor x="271" y="170" name="S"/>
  <anchor x="271" y="110" name="W"/>
  <outline>
    <contour>
      <point x="136" y="-12" type="curve" smooth="yes"/>
      <point x="203" y="-12"/>
      <point x="247" y="33"/>
      <point x="247" y="96" type="curve" smooth="yes"/>
      <point x="247" y="158"/>
      <point x="203" y="202"/>
      <point x="136" y="202" type="curve" smooth="yes"/>
      <point x="68" y="202"/>
      <point x="24" y="158"/>
      <point x="24" y="96" type="curve" smooth="yes"/>
      <point x="24" y="33"/>
      <point x="68" y="-12"/>
    </contour>
    <contour>
      <point x="136" y="16" type="curve" smooth="yes"/>
      <point x="84" y="16"/>
      <point x="52" y="48"/>
      <point x="52" y="96" type="curve" smooth="yes"/>
      <point x="52" y="142"/>
      <point x="84" y="174"/>
      <point x="136" y="174" type="curve" smooth="yes"/>
      <point x="187" y="174"/>
      <point x="219" y="142"/>
      <point x="219" y="96" type="curve" smooth="yes"/>
      <point x="219" y="48"/>
      <point x="187" y="16"/>
    </contour>
    <contour>
      <point x="150" y="280" type="line"/>
      <point x="122" y="280" type="line"/>
      <point x="122" y="187" type="line"/>
      <point x="150" y="187" type="line"/>
    </contour>
  </outline>
</glyph>
<glyph name="u16F5D" format="2">
  <advance width="268"/>
  <unicode hex="16F5D"/>
  <anchor x="272" y="170" name="S"/>
  <anchor x="1" y="170" name="SB"/>
  <anchor x="272" y="110" name="W"/>
  <anchor x="1" y="110" name="WB"/>
  <outline>
    <contour>
      <point x="237" y="192" type="curve"/>
      <point x="237" y="220" type="line"/>
      <point x="227" y="220"/>
      <point x="156" y="220"/>
      <point x="146" y="220" type="curve" smooth="yes"/>
      <point x="74" y="220"/>
      <point x="25" y="179"/>
      <point x="25" y="110" type="curve" smooth="yes"/>
      <point x="25" y="40"/>
      <point x="74" y="0"/>
      <point x="146" y="0" type="curve" smooth="yes"/>
      <point x="157" y="0"/>
      <point x="228" y="0"/>
      <point x="238" y="0" type="curve"/>
      <point x="238" y="28" type="line"/>
      <point x="228" y="28"/>
      <point x="162" y="28"/>
      <point x="152" y="28" type="curve" smooth="yes"/>
      <point x="90" y="28"/>
      <point x="53" y="56"/>
      <point x="53" y="110" type="curve" smooth="yes"/>
      <point x="53" y="163"/>
      <point x="90" y="192"/>
      <point x="151" y="192" type="curve" smooth="yes"/>
      <point x="161" y="192"/>
      <point x="227" y="192"/>
    </contour>
  </outline>
</glyph>
<glyph name="u16F5E" format="2">
  <advance width="230"/>
  <unicode hex="16F5E"/>
  <anchor x="0" y="170" name="_S"/>
  <anchor x="0" y="110" name="_W"/>
  <anchor x="230" y="170" name="S"/>
  <anchor x="230" y="110" name="W"/>
  <outline>
    <contour>
      <point x="196" y="254" type="curve"/>
      <point x="196" y="282" type="line"/>
      <point x="186" y="282"/>
      <point x="145" y="282"/>
      <point x="135" y="282" type="curve" smooth="yes"/>
      <point x="58" y="282"/>
      <point x="29" y="254"/>
      <point x="29" y="205" type="curve" smooth="yes"/>
      <point x="29" y="155"/>
      <point x="77" y="128"/>
      <point x="134" y="128" type="curve" smooth="yes"/>
      <point x="145" y="128"/>
      <point x="146" y="128"/>
      <point x="156" y="128" type="curve"/>
      <point x="156" y="156" type="line"/>
      <point x="146" y="156"/>
      <point x="150" y="156"/>
      <point x="140" y="156" type="curve" smooth="yes"/>
      <point x="83" y="156"/>
      <point x="57" y="171"/>
      <point x="57" y="205" type="curve" smooth="yes"/>
      <point x="57" y="238"/>
      <point x="79" y="254"/>
      <point x="140" y="254" type="curve" smooth="yes"/>
      <point x="150" y="254"/>
      <point x="186" y="254"/>
    </contour>
    <contour>
      <point x="156" y="128" type="curve"/>
      <point x="156" y="156" type="line"/>
      <point x="146" y="156"/>
      <point x="145" y="156"/>
      <point x="135" y="156" type="curve" smooth="yes"/>
      <point x="78" y="156"/>
      <point x="24" y="127"/>
      <point x="24" y="78" type="curve" smooth="yes"/>
      <point x="24" y="28"/>
      <point x="57" y="0"/>
      <point x="134" y="0" type="curve" smooth="yes"/>
      <point x="145" y="0"/>
      <point x="196" y="0"/>
      <point x="206" y="0" type="curve"/>
      <point x="206" y="28" type="line"/>
      <point x="196" y="28"/>
      <point x="150" y="28"/>
      <point x="140" y="28" type="curve" smooth="yes"/>
      <point x="78" y="28"/>
      <point x="52" y="44"/>
      <point x="52" y="78" type="curve" smooth="yes"/>
      <point x="52" y="111"/>
      <point x="84" y="128"/>
      <point x="140" y="128" type="curve" smooth="yes"/>
      <point x="150" y="128"/>
      <point x="146" y="128"/>
    </contour>
  </outline>
</glyph>
<glyph name="u16F5F" format="2">
  <advance width="315"/>
  <unicode hex="16F5F"/>
  <anchor x="315" y="0" name="F"/>
  <anchor x="0" y="0" name="FB"/>
  <anchor x="0" y="10" name="FBR"/>
  <anchor x="315" y="10" name="FR"/>
  <anchor x="315" y="170" name="S"/>
  <anchor x="0" y="170" name="SB"/>
  <anchor x="0" y="160" name="SBR"/>
  <anchor x="0" y="180" name="SBRT"/>
  <anchor x="0" y="190" name="SBT"/>
  <anchor x="315" y="160" name="SR"/>
  <anchor x="315" y="180" name="SRT"/>
  <anchor x="315" y="190" name="ST"/>
  <anchor x="315" y="110" name="W"/>
  <anchor x="0" y="110" name="WB"/>
  <outline>
    <contour>
      <point x="197" y="254" type="curve"/>
      <point x="197" y="282" type="line"/>
      <point x="187" y="282"/>
      <point x="146" y="282"/>
      <point x="136" y="282" type="curve" smooth="yes"/>
      <point x="59" y="282"/>
      <point x="30" y="254"/>
      <point x="30" y="205" type="curve" smooth="yes"/>
      <point x="30" y="155"/>
      <point x="78" y="128"/>
      <point x="135" y="128" type="curve" smooth="yes"/>
      <point x="146" y="128"/>
      <point x="147" y="128"/>
      <point x="157" y="128" type="curve"/>
      <point x="157" y="156" type="line"/>
      <point x="147" y="156"/>
      <point x="151" y="156"/>
      <point x="141" y="156" type="curve" smooth="yes"/>
      <point x="84" y="156"/>
      <point x="58" y="171"/>
      <point x="58" y="205" type="curve" smooth="yes"/>
      <point x="58" y="238"/>
      <point x="80" y="254"/>
      <point x="141" y="254" type="curve" smooth="yes"/>
      <point x="151" y="254"/>
      <point x="187" y="254"/>
    </contour>
    <contour>
      <point x="157" y="128" type="curve"/>
      <point x="157" y="156" type="line"/>
      <point x="147" y="156"/>
      <point x="146" y="156"/>
      <point x="136" y="156" type="curve" smooth="yes"/>
      <point x="79" y="156"/>
      <point x="25" y="127"/>
      <point x="25" y="78" type="curve" smooth="yes"/>
      <point x="25" y="28"/>
      <point x="58" y="0"/>
      <point x="135" y="0" type="curve" smooth="yes"/>
      <point x="146" y="0"/>
      <point x="157" y="0"/>
      <point x="167" y="0" type="curve"/>
      <point x="167" y="28" type="line"/>
      <point x="157" y="28"/>
      <point x="151" y="28"/>
      <point x="141" y="28" type="curve" smooth="yes"/>
      <point x="79" y="28"/>
      <point x="53" y="44"/>
      <point x="53" y="78" type="curve" smooth="yes"/>
      <point x="53" y="111"/>
      <point x="85" y="128"/>
      <point x="141" y="128" type="curve" smooth="yes"/>
      <point x="151" y="128"/>
      <point x="147" y="128"/>
    </contour>
    <contour>
      <point x="225" y="-65" type="curve" smooth="yes"/>
      <point x="267" y="-65"/>
      <point x="295" y="-30"/>
      <point x="295" y="14" type="curve" smooth="yes"/>
      <point x="295" y="56"/>
      <point x="267" y="91"/>
      <point x="225" y="91" type="curve" smooth="yes"/>
      <point x="182" y="91"/>
      <point x="154" y="56"/>
      <point x="154" y="14" type="curve" smooth="yes"/>
      <point x="154" y="-30"/>
      <point x="182" y="-65"/>
    </contour>
    <contour>
      <point x="225" y="-37" type="curve" smooth="yes"/>
      <point x="197" y="-37"/>
      <point x="180" y="-15"/>
      <point x="180" y="14" type="curve" smooth="yes"/>
      <point x="180" y="41"/>
      <point x="197" y="63"/>
      <point x="225" y="63" type="curve" smooth="yes"/>
      <point x="252" y="63"/>
      <point x="269" y="41"/>
      <point x="269" y="14" type="curve" smooth="yes"/>
      <point x="269" y="-15"/>
      <point x="252" y="-37"/>
    </contour>
  </outline>
</glyph>
<glyph name="u16F60" format="2">
  <advance width="237"/>
  <unicode hex="16F60"/>
  <anchor x="237" y="0" name="F"/>
  <anchor x="0" y="0" name="FB"/>
  <anchor x="0" y="10" name="FBR"/>
  <anchor x="237" y="10" name="FR"/>
  <anchor x="237" y="232" name="S"/>
  <anchor x="0" y="232" name="SB"/>
  <anchor x="0" y="222" name="SBR"/>
  <anchor x="0" y="302" name="SBRT"/>
  <anchor x="0" y="312" name="SBT"/>
  <anchor x="237" y="222" name="SR"/>
  <anchor x="237" y="302" name="SRT"/>
  <anchor x="237" y="312" name="ST"/>
  <anchor x="237" y="110" name="W"/>
  <anchor x="0" y="110" name="WB"/>
  <outline>
    <contour>
      <point x="207" y="254" type="curve"/>
      <point x="207" y="282" type="line"/>
      <point x="197" y="282"/>
      <point x="146" y="282"/>
      <point x="136" y="282" type="curve" smooth="yes"/>
      <point x="59" y="282"/>
      <point x="25" y="246"/>
      <point x="25" y="192" type="curve" smooth="yes"/>
      <point x="25" y="137"/>
      <point x="58" y="102"/>
      <point x="135" y="102" type="curve" smooth="yes"/>
      <point x="146" y="102"/>
      <point x="197" y="102"/>
      <point x="207" y="102" type="curve"/>
      <point x="207" y="130" type="line"/>
      <point x="197" y="130"/>
      <point x="151" y="130"/>
      <point x="141" y="130" type="curve" smooth="yes"/>
      <point x="79" y="130"/>
      <point x="53" y="153"/>
      <point x="53" y="192" type="curve" smooth="yes"/>
      <point x="53" y="230"/>
      <point x="80" y="254"/>
      <point x="141" y="254" type="curve" smooth="yes"/>
      <point x="151" y="254"/>
      <point x="197" y="254"/>
    </contour>
    <contour>
      <point x="179" y="0" type="line"/>
      <point x="207" y="0" type="line"/>
      <point x="207" y="130" type="line"/>
      <point x="179" y="130" type="line"/>
    </contour>
  </outline>
</glyph>
<glyph name="u16F61" format="2">
  <advance width="273"/>
  <unicode hex="16F61"/>
  <anchor x="273" y="0" name="F"/>
  <anchor x="0" y="0" name="FB"/>
  <anchor x="0" y="10" name="FBR"/>
  <anchor x="273" y="10" name="FR"/>
  <anchor x="273" y="170" name="S"/>
  <anchor x="0" y="170" name="SB"/>
  <anchor x="0" y="160" name="SBR"/>
  <anchor x="0" y="180" name="SBRT"/>
  <anchor x="0" y="190" name="SBT"/>
  <anchor x="273" y="160" name="SR"/>
  <anchor x="273" y="180" name="SRT"/>
  <anchor x="273" y="190" name="ST"/>
  <anchor x="273" y="110" name="W"/>
  <anchor x="0" y="110" name="WB"/>
  <outline>
    <contour>
      <point x="215" y="0" type="curve"/>
      <point x="243" y="0" type="line"/>
      <point x="243" y="10"/>
      <point x="243" y="101"/>
      <point x="243" y="111" type="curve" smooth="yes"/>
      <point x="243" y="183"/>
      <point x="204" y="232"/>
      <point x="137" y="232" type="curve" smooth="yes"/>
      <point x="69" y="232"/>
      <point x="30" y="183"/>
      <point x="30" y="111" type="curve" smooth="yes"/>
      <point x="30" y="101"/>
      <point x="30" y="10"/>
      <point x="30" y="0" type="curve"/>
      <point x="58" y="0" type="line"/>
      <point x="58" y="10"/>
      <point x="58" y="96"/>
      <point x="58" y="106" type="curve" smooth="yes"/>
      <point x="58" y="167"/>
      <point x="85" y="204"/>
      <point x="137" y="204" type="curve" smooth="yes"/>
      <point x="188" y="204"/>
      <point x="215" y="167"/>
      <point x="215" y="106" type="curve" smooth="yes"/>
      <point x="215" y="96"/>
      <point x="215" y="10"/>
    </contour>
  </outline>
</glyph>
<glyph name="u16F62" format="2">
  <advance width="390"/>
  <unicode hex="16F62"/>
  <anchor x="390" y="0" name="F"/>
  <anchor x="0" y="0" name="FB"/>
  <anchor x="390" y="170" name="S"/>
  <anchor x="0" y="170" name="SB"/>
  <anchor x="390" y="110" name="W"/>
  <anchor x="0" y="110" name="WB"/>
  <outline>
    <contour>
      <point x="205" y="0" type="curve"/>
      <point x="233" y="0" type="line"/>
      <point x="233" y="10"/>
      <point x="233" y="101"/>
      <point x="233" y="111" type="curve" smooth="yes"/>
      <point x="233" y="183"/>
      <point x="198" y="232"/>
      <point x="132" y="232" type="curve" smooth="yes"/>
      <point x="65" y="232"/>
      <point x="30" y="183"/>
      <point x="30" y="111" type="curve" smooth="yes"/>
      <point x="30" y="101"/>
      <point x="30" y="10"/>
      <point x="30" y="0" type="curve"/>
      <point x="58" y="0" type="line"/>
      <point x="58" y="10"/>
      <point x="58" y="96"/>
      <point x="58" y="106" type="curve" smooth="yes"/>
      <point x="58" y="167"/>
      <point x="81" y="204"/>
      <point x="132" y="204" type="curve" smooth="yes"/>
      <point x="182" y="204"/>
      <point x="205" y="167"/>
      <point x="205" y="106" type="curve" smooth="yes"/>
      <point x="205" y="96"/>
      <point x="205" y="10"/>
    </contour>
    <contour>
      <point x="365" y="0" type="line"/>
      <point x="365" y="28" type="line"/>
      <point x="205" y="28" type="line"/>
      <point x="205" y="0" type="line"/>
    </contour>
  </outline>
</glyph>
<glyph name="u16F63" format="2">
  <advance width="380"/>
  <unicode hex="16F63"/>
  <anchor x="380" y="0" name="F"/>
  <anchor x="0" y="0" name="FB"/>
  <anchor x="380" y="170" name="S"/>
  <anchor x="0" y="170" name="SB"/>
  <anchor x="380" y="110" name="W"/>
  <anchor x="0" y="110" name="WB"/>
  <outline>
    <contour>
      <point x="119" y="232" type="curve" smooth="yes"/>
      <point x="56" y="232"/>
      <point x="30" y="183"/>
      <point x="30" y="111" type="curve" smooth="yes"/>
      <point x="30" y="101"/>
      <point x="30" y="10"/>
      <point x="30" y="0" type="curve"/>
      <point x="58" y="0" type="line"/>
      <point x="58" y="10"/>
      <point x="58" y="96"/>
      <point x="58" y="106" type="curve" smooth="yes"/>
      <point x="58" y="167"/>
      <point x="72" y="204"/>
      <point x="119" y="204" type="curve" smooth="yes"/>
      <point x="166" y="204"/>
      <point x="180" y="167"/>
      <point x="180" y="106" type="curve" smooth="yes"/>
      <point x="180" y="96"/>
      <point x="180" y="10"/>
      <point x="180" y="0" type="curve"/>
      <point x="208" y="0" type="line"/>
      <point x="208" y="10"/>
      <point x="208" y="101"/>
      <point x="208" y="111" type="curve" smooth="yes"/>
      <point x="208" y="183"/>
      <point x="182" y="232"/>
    </contour>
    <contour>
      <point x="180" y="28" type="line"/>
      <point x="180" y="0" type="line"/>
      <point x="312" y="0" type="line"/>
      <point x="346" y="28" type="line"/>
    </contour>
    <contour>
      <point x="336" y="-204" type="curve" smooth="yes"/>
      <point x="386" y="-204"/>
      <point x="430" y="-165"/>
      <point x="430" y="-95" type="curve"/>
      <point x="420" y="-95"/>
      <point x="411" y="-95"/>
      <point x="402" y="-95" type="curve"/>
      <point x="402" y="-150"/>
      <point x="374" y="-176"/>
      <point x="336" y="-176" type="curve" smooth="yes"/>
      <point x="297" y="-176"/>
      <point x="274" y="-152"/>
      <point x="274" y="-114" type="curve" smooth="yes"/>
      <point x="274" y="-71"/>
      <point x="319" y="-9"/>
      <point x="360" y="28" type="curve"/>
      <point x="329" y="28" type="line"/>
      <point x="293" y="0"/>
      <point x="246" y="-58"/>
      <point x="246" y="-115" type="curve" smooth="yes"/>
      <point x="246" y="-167"/>
      <point x="280" y="-204"/>
    </contour>
  </outline>
</glyph>
<glyph name="u16F64" format="2">
  <advance width="345"/>
  <unicode hex="16F64"/>
  <anchor x="345" y="0" name="F"/>
  <anchor x="0" y="0" name="FB"/>
  <anchor x="345" y="170" name="S"/>
  <anchor x="0" y="170" name="SB"/>
  <anchor x="345" y="110" name="W"/>
  <anchor x="0" y="110" name="WB"/>
  <outline>
    <contour>
      <point x="30" y="0" type="curve"/>
      <point x="58" y="0" type="line"/>
      <point x="58" y="10"/>
      <point x="58" y="96"/>
      <point x="58" y="106" type="curve" smooth="yes"/>
      <point x="58" y="167"/>
      <point x="72" y="204"/>
      <point x="119" y="204" type="curve" smooth="yes"/>
      <point x="166" y="204"/>
      <point x="180" y="167"/>
      <point x="180" y="106" type="curve" smooth="yes"/>
      <point x="180" y="96"/>
      <point x="180" y="10"/>
      <point x="180" y="0" type="curve"/>
      <point x="208" y="0" type="line"/>
      <point x="208" y="10"/>
      <point x="208" y="101"/>
      <point x="208" y="111" type="curve" smooth="yes"/>
      <point x="208" y="183"/>
      <point x="182" y="232"/>
      <point x="119" y="232" type="curve" smooth="yes"/>
      <point x="56" y="232"/>
      <point x="30" y="183"/>
      <point x="30" y="111" type="curve" smooth="yes"/>
      <point x="30" y="101"/>
      <point x="30" y="10"/>
    </contour>
    <contour>
      <point x="180" y="0" type="line"/>
      <point x="272" y="0" type="line"/>
      <point x="305" y="28" type="line"/>
      <point x="180" y="28" type="line"/>
    </contour>
    <contour>
      <point x="320" y="28" type="curve"/>
      <point x="287" y="28" type="line"/>
      <point x="256" y="-2"/>
      <point x="226" y="-44"/>
      <point x="226" y="-90" type="curve"/>
      <point x="226" y="-142"/>
      <point x="260" y="-174"/>
      <point x="316" y="-174" type="curve" smooth="yes"/>
      <point x="366" y="-174"/>
      <point x="405" y="-142"/>
      <point x="405" y="-100" type="curve" smooth="yes"/>
      <point x="405" y="-60"/>
      <point x="376" y="-31"/>
      <point x="332" y="-31" type="curve" smooth="yes"/>
      <point x="288" y="-31"/>
      <point x="256" y="-59"/>
      <point x="248" y="-74" type="curve"/>
      <point x="248" y="-102" type="line"/>
      <point x="255" y="-86"/>
      <point x="290" y="-59"/>
      <point x="326" y="-59" type="curve" smooth="yes"/>
      <point x="361" y="-59"/>
      <point x="377" y="-78"/>
      <point x="377" y="-100" type="curve" smooth="yes"/>
      <point x="377" y="-124"/>
      <point x="354" y="-146"/>
      <point x="316" y="-146" type="curve" smooth="yes"/>
      <point x="277" y="-146"/>
      <point x="254" y="-127"/>
      <point x="254" y="-89" type="curve"/>
      <point x="254" y="-53"/>
      <point x="286" y="-8"/>
    </contour>
  </outline>
</glyph>
<glyph name="u16F65" format="2">
  <advance width="388"/>
  <unicode hex="16F65"/>
  <anchor x="388" y="0" name="F"/>
  <anchor x="0" y="0" name="FB"/>
  <anchor x="0" y="10" name="FBR"/>
  <anchor x="388" y="10" name="FR"/>
  <anchor x="388" y="170" name="S"/>
  <anchor x="0" y="170" name="SB"/>
  <anchor x="0" y="160" name="SBR"/>
  <anchor x="0" y="240" name="SBRT"/>
  <anchor x="0" y="250" name="SBT"/>
  <anchor x="388" y="160" name="SR"/>
  <anchor x="388" y="240" name="SRT"/>
  <anchor x="388" y="250" name="ST"/>
  <anchor x="388" y="110" name="W"/>
  <anchor x="0" y="110" name="WB"/>
  <outline>
    <contour>
      <point x="170" y="111" type="curve"/>
      <point x="198" y="111" type="line"/>
      <point x="198" y="121"/>
      <point x="198" y="111"/>
      <point x="198" y="121" type="curve" smooth="yes"/>
      <point x="199" y="196"/>
      <point x="171" y="232"/>
      <point x="114" y="232" type="curve" smooth="yes"/>
      <point x="56" y="232"/>
      <point x="30" y="183"/>
      <point x="30" y="111" type="curve" smooth="yes"/>
      <point x="30" y="101"/>
      <point x="30" y="10"/>
      <point x="30" y="0" type="curve"/>
      <point x="58" y="0" type="line"/>
      <point x="58" y="10"/>
      <point x="58" y="96"/>
      <point x="58" y="106" type="curve" smooth="yes"/>
      <point x="58" y="167"/>
      <point x="72" y="204"/>
      <point x="114" y="204" type="curve" smooth="yes"/>
      <point x="155" y="204"/>
      <point x="170" y="177"/>
      <point x="170" y="116" type="curve" smooth="yes"/>
      <point x="170" y="110"/>
      <point x="170" y="121"/>
    </contour>
    <contour>
      <point x="267" y="-12" type="curve" smooth="yes"/>
      <point x="329" y="-12"/>
      <point x="363" y="43"/>
      <point x="363" y="111" type="curve" smooth="yes"/>
      <point x="363" y="178"/>
      <point x="329" y="232"/>
      <point x="267" y="232" type="curve" smooth="yes"/>
      <point x="204" y="232"/>
      <point x="170" y="178"/>
      <point x="170" y="111" type="curve" smooth="yes"/>
      <point x="170" y="43"/>
      <point x="204" y="-12"/>
    </contour>
    <contour>
      <point x="267" y="16" type="curve" smooth="yes"/>
      <point x="220" y="16"/>
      <point x="198" y="58"/>
      <point x="198" y="111" type="curve" smooth="yes"/>
      <point x="198" y="162"/>
      <point x="220" y="204"/>
      <point x="267" y="204" type="curve" smooth="yes"/>
      <point x="313" y="204"/>
      <point x="335" y="162"/>
      <point x="335" y="111" type="curve" smooth="yes"/>
      <point x="335" y="58"/>
      <point x="313" y="16"/>
    </contour>
  </outline>
</glyph>
<glyph name="u16F66" format="2">
  <advance width="260"/>
  <unicode hex="16F66"/>
  <anchor x="260" y="0" name="F"/>
  <anchor x="0" y="0" name="FB"/>
  <anchor x="260" y="170" name="S"/>
  <anchor x="0" y="170" name="SB"/>
  <anchor x="260" y="110" name="W"/>
  <anchor x="0" y="110" name="WB"/>
  <outline>
    <contour>
      <point x="30" y="180" type="line"/>
      <point x="30" y="152" type="line"/>
      <point x="230" y="152" type="line"/>
      <point x="230" y="180" type="line"/>
    </contour>
    <contour>
      <point x="30" y="68" type="line"/>
      <point x="30" y="40" type="line"/>
      <point x="230" y="40" type="line"/>
      <point x="230" y="68" type="line"/>
    </contour>
  </outline>
</glyph>
<glyph name="u16F67" format="2">
  <advance width="368"/>
  <unicode hex="16F67"/>
  <anchor x="377" y="170" name="S"/>
  <anchor x="-9" y="170" name="SB"/>
  <anchor x="377" y="110" name="W"/>
  <anchor x="-9" y="110" name="WB"/>
  <outline>
    <contour>
      <point x="170" y="37" type="curve"/>
      <point x="198" y="37" type="line"/>
      <point x="198" y="47"/>
      <point x="198" y="111"/>
      <point x="198" y="121" type="curve" smooth="yes"/>
      <point x="198" y="186"/>
      <point x="171" y="232"/>
      <point x="114" y="232" type="curve" smooth="yes"/>
      <point x="56" y="232"/>
      <point x="30" y="183"/>
      <point x="30" y="111" type="curve" smooth="yes"/>
      <point x="30" y="101"/>
      <point x="30" y="10"/>
      <point x="30" y="0" type="curve"/>
      <point x="58" y="0" type="line"/>
      <point x="58" y="10"/>
      <point x="58" y="96"/>
      <point x="58" y="106" type="curve" smooth="yes"/>
      <point x="58" y="167"/>
      <point x="72" y="204"/>
      <point x="114" y="204" type="curve" smooth="yes"/>
      <point x="155" y="204"/>
      <point x="170" y="177"/>
      <point x="170" y="116" type="curve" smooth="yes"/>
      <point x="170" y="36"/>
      <point x="170" y="47"/>
    </contour>
    <contour>
      <point x="198" y="37" type="line"/>
      <point x="198" y="47"/>
      <point x="198" y="86"/>
      <point x="198" y="116" type="curve" smooth="yes"/>
      <point x="198" y="177"/>
      <point x="213" y="204"/>
      <point x="254" y="204" type="curve" smooth="yes"/>
      <point x="296" y="204"/>
      <point x="310" y="167"/>
      <point x="310" y="106" type="curve" smooth="yes"/>
      <point x="310" y="96"/>
      <point x="310" y="10"/>
      <point x="310" y="0" type="curve"/>
      <point x="338" y="0" type="line"/>
      <point x="338" y="10"/>
      <point x="338" y="101"/>
      <point x="338" y="111" type="curve" smooth="yes"/>
      <point x="338" y="183"/>
      <point x="312" y="232"/>
      <point x="254" y="232" type="curve" smooth="yes"/>
      <point x="197" y="232"/>
      <point x="170" y="186"/>
      <point x="170" y="121" type="curve" smooth="yes"/>
      <point x="170" y="91"/>
      <point x="170" y="47"/>
      <point x="170" y="37" type="curve"/>
    </contour>
  </outline>
</glyph>
<glyph name="u16F68" format="2">
  <advance width="386"/>
  <unicode hex="16F68"/>
  <anchor x="386" y="170" name="S"/>
  <anchor x="0" y="170" name="SB"/>
  <anchor x="386" y="110" name="W"/>
  <anchor x="0" y="110" name="WB"/>
  <outline>
    <contour>
      <point x="179" y="107" type="curve"/>
      <point x="207" y="107" type="line"/>
      <point x="207" y="117"/>
      <point x="207" y="111"/>
      <point x="207" y="121" type="curve" smooth="yes"/>
      <point x="207" y="196"/>
      <point x="177" y="232"/>
      <point x="118" y="232" type="curve" smooth="yes"/>
      <point x="58" y="232"/>
      <point x="29" y="183"/>
      <point x="29" y="111" type="curve" smooth="yes"/>
      <point x="29" y="101"/>
      <point x="29" y="10"/>
      <point x="29" y="0" type="curve"/>
      <point x="57" y="0" type="line"/>
      <point x="57" y="10"/>
      <point x="57" y="96"/>
      <point x="57" y="106" type="curve" smooth="yes"/>
      <point x="57" y="167"/>
      <point x="74" y="204"/>
      <point x="118" y="204" type="curve" smooth="yes"/>
      <point x="161" y="204"/>
      <point x="179" y="177"/>
      <point x="179" y="116" type="curve" smooth="yes"/>
      <point x="179" y="106"/>
      <point x="179" y="117"/>
    </contour>
    <contour>
      <point x="207" y="113" type="curve"/>
      <point x="179" y="113" type="line"/>
      <point x="179" y="103"/>
      <point x="179" y="119"/>
      <point x="179" y="99" type="curve" smooth="yes"/>
      <point x="179" y="24"/>
      <point x="209" y="-12"/>
      <point x="268" y="-12" type="curve" smooth="yes"/>
      <point x="328" y="-12"/>
      <point x="357" y="37"/>
      <point x="357" y="109" type="curve" smooth="yes"/>
      <point x="357" y="119"/>
      <point x="357" y="210"/>
      <point x="357" y="220" type="curve"/>
      <point x="329" y="220" type="line"/>
      <point x="329" y="210"/>
      <point x="329" y="124"/>
      <point x="329" y="114" type="curve" smooth="yes"/>
      <point x="329" y="53"/>
      <point x="312" y="16"/>
      <point x="268" y="16" type="curve" smooth="yes"/>
      <point x="225" y="16"/>
      <point x="207" y="43"/>
      <point x="207" y="104" type="curve" smooth="yes"/>
      <point x="207" y="124"/>
      <point x="207" y="103"/>
    </contour>
  </outline>
</glyph>
<glyph name="u16F69" format="2">
  <advance width="393"/>
  <unicode hex="16F69"/>
  <outline>
    <contour>
      <point x="214" y="70" type="curve"/>
      <point x="242" y="70" type="line"/>
      <point x="242" y="80"/>
      <point x="242" y="101"/>
      <point x="242" y="111" type="curve" smooth="yes"/>
      <point x="242" y="183"/>
      <point x="203" y="232"/>
      <point x="136" y="232" type="curve" smooth="yes"/>
      <point x="68" y="232"/>
      <point x="29" y="183"/>
      <point x="29" y="111" type="curve" smooth="yes"/>
      <point x="29" y="101"/>
      <point x="29" y="10"/>
      <point x="29" y="0" type="curve"/>
      <point x="57" y="0" type="line"/>
      <point x="57" y="10"/>
      <point x="57" y="96"/>
      <point x="57" y="106" type="curve" smooth="yes"/>
      <point x="57" y="167"/>
      <point x="84" y="204"/>
      <point x="136" y="204" type="curve" smooth="yes"/>
      <point x="187" y="204"/>
      <point x="214" y="167"/>
      <point x="214" y="106" type="curve" smooth="yes"/>
      <point x="214" y="96"/>
      <point x="214" y="80"/>
    </contour>
    <contour>
      <point x="236" y="38" type="curve"/>
      <point x="236" y="8" type="line"/>
      <point x="243" y="24"/>
      <point x="278" y="46"/>
      <point x="309" y="46" type="curve" smooth="yes"/>
      <point x="348" y="46"/>
      <point x="365" y="25"/>
      <point x="365" y="0" type="curve" smooth="yes"/>
      <point x="365" y="-25"/>
      <point x="342" y="-51"/>
      <point x="304" y="-51" type="curve" smooth="yes"/>
      <point x="265" y="-51"/>
      <point x="242" y="-27"/>
      <point x="242" y="11" type="curve" smooth="yes"/>
      <point x="242" y="29"/>
      <point x="242" y="84"/>
      <point x="242" y="89" type="curve"/>
      <point x="214" y="89" type="line"/>
      <point x="214" y="85"/>
      <point x="214" y="20"/>
      <point x="214" y="10" type="curve" smooth="yes"/>
      <point x="214" y="-42"/>
      <point x="248" y="-79"/>
      <point x="304" y="-79" type="curve" smooth="yes"/>
      <point x="354" y="-79"/>
      <point x="393" y="-40"/>
      <point x="393" y="0" type="curve" smooth="yes"/>
      <point x="393" y="43"/>
      <point x="363" y="74"/>
      <point x="315" y="74" type="curve" smooth="yes"/>
      <point x="276" y="74"/>
      <point x="244" y="53"/>
    </contour>
  </outline>
</glyph>
<glyph name="u16F6A" format="2">
  <advance width="273"/>
  <unicode hex="16F6A"/>
  <anchor x="272" y="170" name="S"/>
  <anchor x="1" y="170" name="SB"/>
  <anchor x="272" y="110" name="W"/>
  <anchor x="1" y="110" name="WB"/>
  <outline>
    <contour>
      <point x="58" y="220" type="curve"/>
      <point x="30" y="220" type="line"/>
      <point x="30" y="210"/>
      <point x="30" y="119"/>
      <point x="30" y="109" type="curve" smooth="yes"/>
      <point x="30" y="37"/>
      <point x="69" y="-12"/>
      <point x="136" y="-12" type="curve" smooth="yes"/>
      <point x="204" y="-12"/>
      <point x="243" y="37"/>
      <point x="243" y="109" type="curve" smooth="yes"/>
      <point x="243" y="119"/>
      <point x="243" y="210"/>
      <point x="243" y="220" type="curve"/>
      <point x="215" y="220" type="line"/>
      <point x="215" y="210"/>
      <point x="215" y="124"/>
      <point x="215" y="114" type="curve" smooth="yes"/>
      <point x="215" y="53"/>
      <point x="188" y="16"/>
      <point x="136" y="16" type="curve" smooth="yes"/>
      <point x="85" y="16"/>
      <point x="58" y="53"/>
      <point x="58" y="114" type="curve" smooth="yes"/>
      <point x="58" y="124"/>
      <point x="58" y="210"/>
    </contour>
  </outline>
</glyph>
<glyph name="u16F6B" format="2">
  <advance width="398"/>
  <unicode hex="16F6B"/>
  <outline>
    <contour>
      <point x="57" y="220" type="curve"/>
      <point x="29" y="220" type="line"/>
      <point x="29" y="210"/>
      <point x="29" y="119"/>
      <point x="29" y="109" type="curve" smooth="yes"/>
      <point x="29" y="37"/>
      <point x="68" y="-12"/>
      <point x="135" y="-12" type="curve" smooth="yes"/>
      <point x="203" y="-12"/>
      <point x="242" y="37"/>
      <point x="242" y="109" type="curve" smooth="yes"/>
      <point x="242" y="119"/>
      <point x="242" y="210"/>
      <point x="242" y="220" type="curve"/>
      <point x="214" y="220" type="line"/>
      <point x="214" y="210"/>
      <point x="214" y="124"/>
      <point x="214" y="114" type="curve" smooth="yes"/>
      <point x="214" y="53"/>
      <point x="187" y="16"/>
      <point x="135" y="16" type="curve" smooth="yes"/>
      <point x="84" y="16"/>
      <point x="57" y="53"/>
      <point x="57" y="114" type="curve" smooth="yes"/>
      <point x="57" y="124"/>
      <point x="57" y="210"/>
    </contour>
    <contour>
      <point x="214" y="220" type="line"/>
      <point x="214" y="192" type="line"/>
      <point x="374" y="192" type="line"/>
      <point x="374" y="220" type="line"/>
    </contour>
  </outline>
</glyph>
<glyph name="u16F6D" format="2">
  <advance width="478"/>
  <unicode hex="16F6D"/>
  <anchor x="0" y="170" name="_S"/>
  <anchor x="0" y="110" name="_W"/>
  <anchor x="478" y="170" name="S"/>
  <anchor x="478" y="110" name="W"/>
  <outline>
    <contour>
      <point x="57" y="220" type="curve"/>
      <point x="29" y="220" type="line"/>
      <point x="29" y="210"/>
      <point x="29" y="119"/>
      <point x="29" y="109" type="curve" smooth="yes"/>
      <point x="29" y="37"/>
      <point x="55" y="-12"/>
      <point x="118" y="-12" type="curve" smooth="yes"/>
      <point x="181" y="-12"/>
      <point x="207" y="37"/>
      <point x="207" y="109" type="curve" smooth="yes"/>
      <point x="207" y="119"/>
      <point x="207" y="210"/>
      <point x="207" y="220" type="curve"/>
      <point x="179" y="220" type="line"/>
      <point x="179" y="210"/>
      <point x="179" y="124"/>
      <point x="179" y="114" type="curve" smooth="yes"/>
      <point x="179" y="53"/>
      <point x="165" y="16"/>
      <point x="118" y="16" type="curve" smooth="yes"/>
      <point x="71" y="16"/>
      <point x="57" y="53"/>
      <point x="57" y="114" type="curve" smooth="yes"/>
      <point x="57" y="124"/>
      <point x="57" y="210"/>
    </contour>
    <contour>
      <point x="179" y="220" type="line"/>
      <point x="179" y="192" type="line"/>
      <point x="344" y="192" type="line"/>
      <point x="371" y="220" type="line"/>
    </contour>
    <contour>
      <point x="297" y="100" type="curve"/>
      <point x="297" y="75" type="line"/>
      <point x="304" y="91"/>
      <point x="339" y="113"/>
      <point x="370" y="113" type="curve" smooth="yes"/>
      <point x="409" y="113"/>
      <point x="426" y="92"/>
      <point x="426" y="67" type="curve" smooth="yes"/>
      <point x="426" y="42"/>
      <point x="403" y="16"/>
      <point x="365" y="16" type="curve" smooth="yes"/>
      <point x="326" y="16"/>
      <point x="303" y="40"/>
      <point x="303" y="78" type="curve" smooth="yes"/>
      <point x="303" y="121"/>
      <point x="348" y="183"/>
      <point x="389" y="220" type="curve"/>
      <point x="358" y="220" type="line"/>
      <point x="322" y="192"/>
      <point x="275" y="134"/>
      <point x="275" y="77" type="curve" smooth="yes"/>
      <point x="275" y="25"/>
      <point x="309" y="-12"/>
      <point x="365" y="-12" type="curve" smooth="yes"/>
      <point x="415" y="-12"/>
      <point x="454" y="27"/>
      <point x="454" y="67" type="curve" smooth="yes"/>
      <point x="454" y="110"/>
      <point x="424" y="141"/>
      <point x="376" y="141" type="curve" smooth="yes"/>
      <point x="337" y="141"/>
      <point x="305" y="115"/>
    </contour>
  </outline>
</glyph>
<glyph name="u16F6E" format="2">
  <advance width="386"/>
  <unicode hex="16F6E"/>
  <outline>
    <contour>
      <point x="179" y="183" type="line"/>
      <point x="179" y="173"/>
      <point x="179" y="184"/>
      <point x="179" y="104" type="curve" smooth="yes"/>
      <point x="179" y="43"/>
      <point x="161" y="16"/>
      <point x="118" y="16" type="curve" smooth="yes"/>
      <point x="74" y="16"/>
      <point x="57" y="53"/>
      <point x="57" y="114" type="curve" smooth="yes"/>
      <point x="57" y="124"/>
      <point x="57" y="210"/>
      <point x="57" y="220" type="curve"/>
      <point x="29" y="220" type="line"/>
      <point x="29" y="210"/>
      <point x="29" y="119"/>
      <point x="29" y="109" type="curve" smooth="yes"/>
      <point x="29" y="37"/>
      <point x="58" y="-12"/>
      <point x="118" y="-12" type="curve" smooth="yes"/>
      <point x="177" y="-12"/>
      <point x="207" y="34"/>
      <point x="207" y="99" type="curve" smooth="yes"/>
      <point x="207" y="109"/>
      <point x="207" y="173"/>
      <point x="207" y="183" type="curve"/>
    </contour>
    <contour>
      <point x="207" y="183" type="curve"/>
      <point x="179" y="183" type="line"/>
      <point x="179" y="173"/>
      <point x="179" y="129"/>
      <point x="179" y="99" type="curve" smooth="yes"/>
      <point x="179" y="34"/>
      <point x="209" y="-12"/>
      <point x="268" y="-12" type="curve" smooth="yes"/>
      <point x="328" y="-12"/>
      <point x="357" y="37"/>
      <point x="357" y="109" type="curve" smooth="yes"/>
      <point x="357" y="119"/>
      <point x="357" y="210"/>
      <point x="357" y="220" type="curve"/>
      <point x="329" y="220" type="line"/>
      <point x="329" y="210"/>
      <point x="329" y="124"/>
      <point x="329" y="114" type="curve" smooth="yes"/>
      <point x="329" y="53"/>
      <point x="312" y="16"/>
      <point x="268" y="16" type="curve" smooth="yes"/>
      <point x="225" y="16"/>
      <point x="207" y="43"/>
      <point x="207" y="104" type="curve" smooth="yes"/>
      <point x="207" y="134"/>
      <point x="207" y="173"/>
    </contour>
  </outline>
</glyph>
<glyph name="u16F70" format="2">
  <advance width="374"/>
  <unicode hex="16F70"/>
  <anchor x="374" y="0" name="F"/>
  <anchor x="0" y="0" name="FB"/>
  <anchor x="0" y="10" name="FBR"/>
  <anchor x="374" y="10" name="FR"/>
  <anchor x="374" y="170" name="S"/>
  <anchor x="0" y="170" name="SB"/>
  <anchor x="0" y="160" name="SBR"/>
  <anchor x="0" y="180" name="SBRT"/>
  <anchor x="0" y="190" name="SBT"/>
  <anchor x="374" y="160" name="SR"/>
  <anchor x="374" y="180" name="SRT"/>
  <anchor x="374" y="190" name="ST"/>
  <anchor x="374" y="110" name="W"/>
  <anchor x="0" y="110" name="WB"/>
  <outline>
    <contour>
      <point x="192" y="105" type="curve"/>
      <point x="192" y="75" type="line"/>
      <point x="199" y="91"/>
      <point x="234" y="113"/>
      <point x="265" y="113" type="curve" smooth="yes"/>
      <point x="304" y="113"/>
      <point x="321" y="92"/>
      <point x="321" y="67" type="curve" smooth="yes"/>
      <point x="321" y="42"/>
      <point x="298" y="16"/>
      <point x="260" y="16" type="curve" smooth="yes"/>
      <point x="221" y="16"/>
      <point x="198" y="40"/>
      <point x="198" y="78" type="curve" smooth="yes"/>
      <point x="198" y="96"/>
      <point x="198" y="151"/>
      <point x="198" y="156" type="curve"/>
      <point x="170" y="156" type="line"/>
      <point x="170" y="152"/>
      <point x="170" y="87"/>
      <point x="170" y="77" type="curve" smooth="yes"/>
      <point x="170" y="35"/>
      <point x="204" y="-12"/>
      <point x="260" y="-12" type="curve" smooth="yes"/>
      <point x="310" y="-12"/>
      <point x="349" y="27"/>
      <point x="349" y="67" type="curve" smooth="yes"/>
      <point x="349" y="110"/>
      <point x="319" y="141"/>
      <point x="271" y="141" type="curve" smooth="yes"/>
      <point x="232" y="141"/>
      <point x="200" y="120"/>
    </contour>
    <contour>
      <point x="114" y="-12" type="curve" smooth="yes"/>
      <point x="175" y="-12"/>
      <point x="198" y="37"/>
      <point x="198" y="109" type="curve" smooth="yes"/>
      <point x="198" y="119"/>
      <point x="198" y="210"/>
      <point x="198" y="220" type="curve"/>
      <point x="170" y="220" type="line"/>
      <point x="170" y="210"/>
      <point x="170" y="124"/>
      <point x="170" y="114" type="curve" smooth="yes"/>
      <point x="170" y="53"/>
      <point x="159" y="16"/>
      <point x="114" y="16" type="curve" smooth="yes"/>
      <point x="69" y="16"/>
      <point x="58" y="53"/>
      <point x="58" y="114" type="curve" smooth="yes"/>
      <point x="58" y="124"/>
      <point x="58" y="210"/>
      <point x="58" y="220" type="curve"/>
      <point x="30" y="220" type="line"/>
      <point x="30" y="210"/>
      <point x="30" y="119"/>
      <point x="30" y="109" type="curve" smooth="yes"/>
      <point x="30" y="37"/>
      <point x="53" y="-12"/>
    </contour>
  </outline>
</glyph>
<glyph name="u16F71" format="2">
  <advance width="270"/>
  <unicode hex="16F71"/>
  <anchor x="270" y="170" name="S"/>
  <anchor x="0" y="170" name="SB"/>
  <anchor x="270" y="110" name="W"/>
  <anchor x="0" y="110" name="WB"/>
  <outline>
    <contour>
      <point x="24" y="28" type="curve"/>
      <point x="24" y="0" type="line"/>
      <point x="34" y="0"/>
      <point x="115" y="0"/>
      <point x="125" y="0" type="curve" smooth="yes"/>
      <point x="197" y="0"/>
      <point x="246" y="41"/>
      <point x="246" y="110" type="curve" smooth="yes"/>
      <point x="246" y="180"/>
      <point x="198" y="220"/>
      <point x="126" y="220" type="curve" smooth="yes"/>
      <point x="115" y="220"/>
      <point x="34" y="220"/>
      <point x="24" y="220" type="curve"/>
      <point x="24" y="192" type="line"/>
      <point x="34" y="192"/>
      <point x="110" y="192"/>
      <point x="120" y="192" type="curve" smooth="yes"/>
      <point x="182" y="192"/>
      <point x="218" y="164"/>
      <point x="218" y="110" type="curve" smooth="yes"/>
      <point x="218" y="57"/>
      <point x="181" y="28"/>
      <point x="120" y="28" type="curve" smooth="yes"/>
      <point x="110" y="28"/>
      <point x="34" y="28"/>
    </contour>
  </outline>
</glyph>
<glyph name="u16F72" format="2">
  <advance width="227"/>
  <unicode hex="16F72"/>
  <anchor x="0" y="170" name="_S"/>
  <anchor x="0" y="110" name="_W"/>
  <anchor x="227" y="170" name="S"/>
  <anchor x="227" y="110" name="W"/>
  <outline>
    <contour>
      <point x="181" y="120" type="curve"/>
      <point x="181" y="145" type="line"/>
      <point x="174" y="129"/>
      <point x="139" y="107"/>
      <point x="108" y="107" type="curve" smooth="yes"/>
      <point x="69" y="107"/>
      <point x="52" y="128"/>
      <point x="52" y="153" type="curve" smooth="yes"/>
      <point x="52" y="178"/>
      <point x="75" y="204"/>
      <point x="113" y="204" type="curve" smooth="yes"/>
      <point x="152" y="204"/>
      <point x="175" y="180"/>
      <point x="175" y="142" type="curve" smooth="yes"/>
      <point x="175" y="89"/>
      <point x="137" y="28"/>
      <point x="71" y="-12" type="curve"/>
      <point x="87" y="-32" type="line"/>
      <point x="161" y="15"/>
      <point x="203" y="76"/>
      <point x="203" y="143" type="curve" smooth="yes"/>
      <point x="203" y="195"/>
      <point x="169" y="232"/>
      <point x="113" y="232" type="curve" smooth="yes"/>
      <point x="63" y="232"/>
      <point x="24" y="193"/>
      <point x="24" y="153" type="curve" smooth="yes"/>
      <point x="24" y="110"/>
      <point x="54" y="79"/>
      <point x="102" y="79" type="curve" smooth="yes"/>
      <point x="141" y="79"/>
      <point x="173" y="105"/>
    </contour>
  </outline>
</glyph>
<glyph name="u16F73" format="2">
  <advance width="237"/>
  <unicode hex="16F73"/>
  <anchor x="237" y="0" name="F"/>
  <anchor x="0" y="0" name="FB"/>
  <anchor x="0" y="10" name="FBR"/>
  <anchor x="237" y="10" name="FR"/>
  <anchor x="237" y="232" name="S"/>
  <anchor x="0" y="232" name="SB"/>
  <anchor x="0" y="222" name="SBR"/>
  <anchor x="0" y="242" name="SBRT"/>
  <anchor x="0" y="252" name="SBT"/>
  <anchor x="237" y="222" name="SR"/>
  <anchor x="237" y="242" name="SRT"/>
  <anchor x="237" y="252" name="ST"/>
  <anchor x="237" y="110" name="W"/>
  <anchor x="0" y="110" name="WB"/>
  <outline>
    <contour>
      <point x="30" y="254" type="line"/>
      <point x="40" y="254"/>
      <point x="86" y="254"/>
      <point x="96" y="254" type="curve" smooth="yes"/>
      <point x="157" y="254"/>
      <point x="184" y="230"/>
      <point x="184" y="192" type="curve" smooth="yes"/>
      <point x="184" y="153"/>
      <point x="158" y="130"/>
      <point x="96" y="130" type="curve" smooth="yes"/>
      <point x="86" y="130"/>
      <point x="40" y="130"/>
      <point x="30" y="130" type="curve"/>
      <point x="30" y="102" type="line"/>
      <point x="40" y="102"/>
      <point x="91" y="102"/>
      <point x="102" y="102" type="curve" smooth="yes"/>
      <point x="179" y="102"/>
      <point x="212" y="137"/>
      <point x="212" y="192" type="curve" smooth="yes"/>
      <point x="212" y="246"/>
      <point x="178" y="282"/>
      <point x="101" y="282" type="curve" smooth="yes"/>
      <point x="91" y="282"/>
      <point x="40" y="282"/>
      <point x="30" y="282" type="curve"/>
    </contour>
    <contour>
      <point x="58" y="0" type="line"/>
      <point x="58" y="130" type="line"/>
      <point x="30" y="130" type="line"/>
      <point x="30" y="0" type="line"/>
    </contour>
  </outline>
</glyph>
<glyph name="u16F74" format="2">
  <advance width="230"/>
  <unicode hex="16F74"/>
  <outline>
    <contour>
      <point x="206" y="28" type="line"/>
      <point x="196" y="28"/>
      <point x="150" y="28"/>
      <point x="140" y="28" type="curve" smooth="yes"/>
      <point x="79" y="28"/>
      <point x="52" y="52"/>
      <point x="52" y="90" type="curve" smooth="yes"/>
      <point x="52" y="129"/>
      <point x="78" y="152"/>
      <point x="140" y="152" type="curve" smooth="yes"/>
      <point x="150" y="152"/>
      <point x="196" y="152"/>
      <point x="206" y="152" type="curve"/>
      <point x="206" y="180" type="line"/>
      <point x="196" y="180"/>
      <point x="145" y="180"/>
      <point x="134" y="180" type="curve" smooth="yes"/>
      <point x="57" y="180"/>
      <point x="24" y="145"/>
      <point x="24" y="90" type="curve" smooth="yes"/>
      <point x="24" y="36"/>
      <point x="58" y="0"/>
      <point x="135" y="0" type="curve" smooth="yes"/>
      <point x="145" y="0"/>
      <point x="196" y="0"/>
      <point x="206" y="0" type="curve"/>
    </contour>
    <contour>
      <point x="178" y="282" type="line"/>
      <point x="178" y="152" type="line"/>
      <point x="206" y="152" type="line"/>
      <point x="206" y="282" type="line"/>
    </contour>
  </outline>
</glyph>
<glyph name="u16F75" format="2">
  <advance width="233"/>
  <unicode hex="16F75"/>
  <outline>
    <contour>
      <point x="24" y="220" type="line"/>
      <point x="24" y="192" type="line"/>
      <point x="204" y="192" type="line"/>
      <point x="204" y="220" type="line"/>
    </contour>
    <contour>
      <point x="176" y="220" type="line"/>
      <point x="176" y="0" type="line"/>
      <point x="204" y="0" type="line"/>
      <point x="204" y="220" type="line"/>
    </contour>
  </outline>
</glyph>
<glyph name="u16F76" format="2">
  <advance width="233"/>
  <unicode hex="16F76"/>
  <anchor x="232" y="170" name="S"/>
  <anchor x="-4" y="170" name="SB"/>
  <anchor x="232" y="110" name="W"/>
  <anchor x="-4" y="110" name="WB"/>
  <outline>
    <contour>
      <point x="53" y="107" type="line"/>
      <point x="53" y="117"/>
      <point x="53" y="106"/>
      <point x="53" y="116" type="curve" smooth="yes"/>
      <point x="53" y="177"/>
      <point x="71" y="204"/>
      <point x="114" y="204" type="curve" smooth="yes"/>
      <point x="158" y="204"/>
      <point x="175" y="167"/>
      <point x="175" y="106" type="curve" smooth="yes"/>
      <point x="175" y="96"/>
      <point x="175" y="10"/>
      <point x="175" y="0" type="curve"/>
      <point x="203" y="0" type="line"/>
      <point x="203" y="10"/>
      <point x="203" y="101"/>
      <point x="203" y="111" type="curve" smooth="yes"/>
      <point x="203" y="183"/>
      <point x="174" y="232"/>
      <point x="114" y="232" type="curve" smooth="yes"/>
      <point x="55" y="232"/>
      <point x="25" y="196"/>
      <point x="25" y="121" type="curve" smooth="yes"/>
      <point x="25" y="111"/>
      <point x="25" y="117"/>
      <point x="25" y="107" type="curve"/>
    </contour>
  </outline>
</glyph>
<glyph name="u16F77" format="2">
  <advance width="235"/>
  <unicode hex="16F77"/>
  <anchor x="234" y="170" name="S"/>
  <anchor x="1" y="170" name="SB"/>
  <anchor x="234" y="110" name="W"/>
  <anchor x="1" y="110" name="WB"/>
  <outline>
    <contour>
      <point x="210" y="220" type="line"/>
      <point x="30" y="220" type="line"/>
      <point x="30" y="192" type="line"/>
      <point x="210" y="192" type="line"/>
    </contour>
    <contour>
      <point x="58" y="220" type="line"/>
      <point x="30" y="220" type="line"/>
      <point x="30" y="0" type="line"/>
      <point x="58" y="0" type="line"/>
    </contour>
  </outline>
</glyph>
<glyph name="u16F78" format="2">
  <advance width="236"/>
  <unicode hex="16F78"/>
  <anchor x="0" y="170" name="SB"/>
  <anchor x="0" y="110" name="WB"/>
  <anchor x="236" y="170" name="S"/>
  <anchor x="236" y="110" name="W"/>
  <outline>
    <contour>
      <point x="179" y="107" type="curve"/>
      <point x="207" y="107" type="line"/>
      <point x="207" y="117"/>
      <point x="207" y="111"/>
      <point x="207" y="121" type="curve" smooth="yes"/>
      <point x="207" y="196"/>
      <point x="177" y="232"/>
      <point x="118" y="232" type="curve" smooth="yes"/>
      <point x="58" y="232"/>
      <point x="29" y="183"/>
      <point x="29" y="111" type="curve" smooth="yes"/>
      <point x="29" y="101"/>
      <point x="29" y="10"/>
      <point x="29" y="0" type="curve"/>
      <point x="57" y="0" type="line"/>
      <point x="57" y="10"/>
      <point x="57" y="96"/>
      <point x="57" y="106" type="curve" smooth="yes"/>
      <point x="57" y="167"/>
      <point x="74" y="204"/>
      <point x="118" y="204" type="curve" smooth="yes"/>
      <point x="161" y="204"/>
      <point x="179" y="177"/>
      <point x="179" y="116" type="curve" smooth="yes"/>
      <point x="179" y="106"/>
      <point x="179" y="117"/>
    </contour>
  </outline>
</glyph>
<glyph name="u16F79" format="2">
  <advance width="148"/>
  <unicode hex="16F79"/>
  <anchor x="137" y="170" name="S"/>
  <anchor x="11" y="170" name="SB"/>
  <anchor x="137" y="110" name="W"/>
  <anchor x="11" y="110" name="WB"/>
  <outline>
    <contour>
      <point x="88" y="220" type="line"/>
      <point x="60" y="220" type="line"/>
      <point x="60" y="0" type="line"/>
      <point x="88" y="0" type="line"/>
    </contour>
  </outline>
</glyph>
<glyph name="u16F7A" format="2">
  <advance width="233"/>
  <unicode hex="16F7A"/>
  <anchor x="233" y="0" name="F"/>
  <anchor x="0" y="0" name="FB"/>
  <anchor x="233" y="170" name="S"/>
  <anchor x="0" y="170" name="SB"/>
  <anchor x="233" y="110" name="W"/>
  <anchor x="0" y="110" name="WB"/>
  <outline>
    <contour>
      <point x="180" y="113" type="line"/>
      <point x="180" y="103"/>
      <point x="180" y="114"/>
      <point x="180" y="104" type="curve" smooth="yes"/>
      <point x="180" y="43"/>
      <point x="162" y="16"/>
      <point x="119" y="16" type="curve" smooth="yes"/>
      <point x="75" y="16"/>
      <point x="58" y="53"/>
      <point x="58" y="114" type="curve" smooth="yes"/>
      <point x="58" y="124"/>
      <point x="58" y="210"/>
      <point x="58" y="220" type="curve"/>
      <point x="30" y="220" type="line"/>
      <point x="30" y="210"/>
      <point x="30" y="119"/>
      <point x="30" y="109" type="curve" smooth="yes"/>
      <point x="30" y="37"/>
      <point x="59" y="-12"/>
      <point x="119" y="-12" type="curve" smooth="yes"/>
      <point x="178" y="-12"/>
      <point x="208" y="24"/>
      <point x="208" y="99" type="curve" smooth="yes"/>
      <point x="208" y="109"/>
      <point x="208" y="103"/>
      <point x="208" y="113" type="curve"/>
    </contour>
  </outline>
</glyph>
<glyph name="u16F7B" format="2">
  <advance width="230"/>
  <unicode hex="16F7B"/>
  <anchor x="230" y="120" name="E"/>
  <anchor x="0" y="120" name="EB"/>
  <anchor x="230" y="0" name="F"/>
  <anchor x="0" y="0" name="FB"/>
  <anchor x="0" y="10" name="FBR"/>
  <anchor x="230" y="10" name="FR"/>
  <anchor x="230" y="100" name="K"/>
  <anchor x="0" y="100" name="KB"/>
  <anchor x="230" y="170" name="S"/>
  <anchor x="0" y="170" name="SB"/>
  <anchor x="0" y="160" name="SBR"/>
  <anchor x="0" y="240" name="SBRT"/>
  <anchor x="0" y="250" name="SBT"/>
  <anchor x="230" y="160" name="SR"/>
  <anchor x="230" y="240" name="SRT"/>
  <anchor x="230" y="250" name="ST"/>
  <anchor x="230" y="110" name="W"/>
  <anchor x="0" y="110" name="WB"/>
  <outline>
    <contour>
      <point x="152" y="220" type="line"/>
      <point x="152" y="0" type="line"/>
      <point x="180" y="0" type="line"/>
      <point x="180" y="220" type="line"/>
    </contour>
    <contour>
      <point x="50" y="220" type="line"/>
      <point x="50" y="0" type="line"/>
      <point x="78" y="0" type="line"/>
      <point x="78" y="220" type="line"/>
    </contour>
  </outline>
</glyph>
<glyph name="u16F7C" format="2">
  <advance width="278"/>
  <unicode hex="16F7C"/>
  <anchor x="278" y="0" name="F"/>
  <anchor x="0" y="0" name="FB"/>
  <anchor x="278" y="170" name="S"/>
  <anchor x="0" y="170" name="SB"/>
  <anchor x="278" y="110" name="W"/>
  <anchor x="0" y="110" name="WB"/>
  <outline>
    <contour>
      <point x="137" y="18" type="curve" smooth="yes"/>
      <point x="204" y="18"/>
      <point x="248" y="63"/>
      <point x="248" y="126" type="curve" smooth="yes"/>
      <point x="248" y="188"/>
      <point x="204" y="232"/>
      <point x="137" y="232" type="curve" smooth="yes"/>
      <point x="69" y="232"/>
      <point x="25" y="188"/>
      <point x="25" y="126" type="curve" smooth="yes"/>
      <point x="25" y="63"/>
      <point x="69" y="18"/>
    </contour>
    <contour>
      <point x="137" y="46" type="curve" smooth="yes"/>
      <point x="85" y="46"/>
      <point x="53" y="78"/>
      <point x="53" y="126" type="curve" smooth="yes"/>
      <point x="53" y="172"/>
      <point x="85" y="204"/>
      <point x="137" y="204" type="curve" smooth="yes"/>
      <point x="188" y="204"/>
      <point x="220" y="172"/>
      <point x="220" y="126" type="curve" smooth="yes"/>
      <point x="220" y="78"/>
      <point x="188" y="46"/>
    </contour>
    <contour>
      <point x="248" y="126" type="line"/>
      <point x="220" y="69" type="line"/>
      <point x="220" y="-65" type="line"/>
      <point x="248" y="-65" type="line"/>
    </contour>
  </outline>
</glyph>
<glyph name="u16F7D" format="2">
  <advance width="227"/>
  <unicode hex="16F7D"/>
  <anchor x="0" y="170" name="_S"/>
  <anchor x="0" y="110" name="_W"/>
  <anchor x="227" y="170" name="S"/>
  <anchor x="227" y="110" name="W"/>
  <outline>
    <contour>
      <point x="114" y="-12" type="curve" smooth="yes"/>
      <point x="164" y="-12"/>
      <point x="208" y="27"/>
      <point x="208" y="97" type="curve"/>
      <point x="198" y="97"/>
      <point x="189" y="97"/>
      <point x="180" y="97" type="curve"/>
      <point x="180" y="42"/>
      <point x="152" y="16"/>
      <point x="114" y="16" type="curve" smooth="yes"/>
      <point x="75" y="16"/>
      <point x="52" y="40"/>
      <point x="52" y="78" type="curve" smooth="yes"/>
      <point x="52" y="131"/>
      <point x="90" y="192"/>
      <point x="156" y="232" type="curve"/>
      <point x="140" y="252" type="line"/>
      <point x="66" y="205"/>
      <point x="24" y="144"/>
      <point x="24" y="77" type="curve" smooth="yes"/>
      <point x="24" y="25"/>
      <point x="58" y="-12"/>
    </contour>
  </outline>
</glyph>
<glyph name="u16F80" format="2">
  <advance width="287"/>
  <unicode hex="16F80"/>
  <anchor x="279" y="170" name="S"/>
  <anchor x="8" y="170" name="SB"/>
  <anchor x="279" y="110" name="W"/>
  <anchor x="8" y="110" name="WB"/>
  <outline>
    <contour>
      <point x="65" y="190" type="curve"/>
      <point x="37" y="190" type="line"/>
      <point x="37" y="180"/>
      <point x="37" y="119"/>
      <point x="37" y="109" type="curve" smooth="yes"/>
      <point x="37" y="37"/>
      <point x="76" y="-12"/>
      <point x="143" y="-12" type="curve" smooth="yes"/>
      <point x="211" y="-12"/>
      <point x="250" y="37"/>
      <point x="250" y="109" type="curve" smooth="yes"/>
      <point x="250" y="119"/>
      <point x="250" y="180"/>
      <point x="250" y="190" type="curve"/>
      <point x="222" y="190" type="line"/>
      <point x="222" y="180"/>
      <point x="222" y="124"/>
      <point x="222" y="114" type="curve" smooth="yes"/>
      <point x="222" y="53"/>
      <point x="195" y="16"/>
      <point x="143" y="16" type="curve" smooth="yes"/>
      <point x="92" y="16"/>
      <point x="65" y="53"/>
      <point x="65" y="114" type="curve" smooth="yes"/>
      <point x="65" y="124"/>
      <point x="65" y="180"/>
    </contour>
    <contour>
      <point x="236" y="242" type="curve" smooth="yes"/>
      <point x="247" y="242"/>
      <point x="257" y="252"/>
      <point x="257" y="263" type="curve" smooth="yes"/>
      <point x="257" y="274"/>
      <point x="247" y="284"/>
      <point x="236" y="284" type="curve" smooth="yes"/>
      <point x="225" y="284"/>
      <point x="215" y="274"/>
      <point x="215" y="263" type="curve" smooth="yes"/>
      <point x="215" y="252"/>
      <point x="225" y="242"/>
    </contour>
    <contour>
      <point x="51" y="242" type="curve" smooth="yes"/>
      <point x="62" y="242"/>
      <point x="72" y="252"/>
      <point x="72" y="263" type="curve" smooth="yes"/>
      <point x="72" y="274"/>
      <point x="62" y="284"/>
      <point x="51" y="284" type="curve" smooth="yes"/>
      <point x="40" y="284"/>
      <point x="30" y="274"/>
      <point x="30" y="263" type="curve" smooth="yes"/>
      <point x="30" y="252"/>
      <point x="40" y="242"/>
    </contour>
  </outline>
</glyph>
<glyph name="u16F81" format="2">
  <advance width="258"/>
  <unicode hex="16F81"/>
  <anchor x="258" y="170" name="S"/>
  <anchor x="0" y="170" name="SB"/>
  <anchor x="258" y="110" name="W"/>
  <anchor x="0" y="110" name="WB"/>
  <outline>
    <contour>
      <point x="234" y="9" type="curve"/>
      <point x="224" y="36" type="line"/>
      <point x="193" y="22"/>
      <point x="174" y="16"/>
      <point x="149" y="16" type="curve" smooth="yes"/>
      <point x="95" y="16"/>
      <point x="52" y="50"/>
      <point x="52" y="110" type="curve" smooth="yes"/>
      <point x="52" y="170"/>
      <point x="94" y="204"/>
      <point x="143" y="204" type="curve" smooth="yes"/>
      <point x="186" y="204"/>
      <point x="206" y="187"/>
      <point x="206" y="162" type="curve" smooth="yes"/>
      <point x="206" y="137"/>
      <point x="184" y="124"/>
      <point x="132" y="124" type="curve" smooth="yes"/>
      <point x="126" y="124"/>
      <point x="90" y="124"/>
      <point x="83" y="124" type="curve"/>
      <point x="83" y="96" type="line"/>
      <point x="90" y="96"/>
      <point x="125" y="96"/>
      <point x="131" y="96" type="curve" smooth="yes"/>
      <point x="208" y="96"/>
      <point x="234" y="125"/>
      <point x="234" y="162" type="curve" smooth="yes"/>
      <point x="234" y="201"/>
      <point x="205" y="232"/>
      <point x="143" y="232" type="curve" smooth="yes"/>
      <point x="74" y="232"/>
      <point x="24" y="179"/>
      <point x="24" y="110" type="curve" smooth="yes"/>
      <point x="24" y="41"/>
      <point x="67" y="-12"/>
      <point x="149" y="-12" type="curve" smooth="yes"/>
      <point x="179" y="-12"/>
      <point x="203" y="-5"/>
    </contour>
  </outline>
</glyph>
<glyph name="u16F82" format="2">
  <advance width="233"/>
  <unicode hex="16F82"/>
  <anchor x="0" y="170" name="_S"/>
  <anchor x="0" y="110" name="_W"/>
  <anchor x="233" y="170" name="S"/>
  <anchor x="233" y="110" name="W"/>
  <outline>
    <contour>
      <point x="209" y="0" type="line"/>
      <point x="209" y="28" type="line"/>
      <point x="29" y="28" type="line"/>
      <point x="29" y="0" type="line"/>
    </contour>
    <contour>
      <point x="57" y="0" type="line"/>
      <point x="57" y="220" type="line"/>
      <point x="29" y="220" type="line"/>
      <point x="29" y="0" type="line"/>
    </contour>
  </outline>
</glyph>
<glyph name="u16F83" format="2">
  <advance width="244"/>
  <unicode hex="16F83"/>
  <anchor x="244" y="170" name="S"/>
  <anchor x="0" y="170" name="SB"/>
  <anchor x="244" y="110" name="W"/>
  <anchor x="0" y="110" name="WB"/>
  <outline>
    <contour>
      <point x="107" y="0" type="line"/>
      <point x="137" y="0" type="line"/>
      <point x="230" y="220" type="line"/>
      <point x="200" y="220" type="line"/>
      <point x="138" y="71" type="line" smooth="yes"/>
      <point x="133" y="58"/>
      <point x="129" y="46"/>
      <point x="123" y="29" type="curve"/>
      <point x="122" y="29" type="line"/>
      <point x="116" y="46"/>
      <point x="111" y="58"/>
      <point x="106" y="71" type="curve" smooth="yes"/>
      <point x="44" y="220" type="line"/>
      <point x="14" y="220" type="line"/>
    </contour>
  </outline>
</glyph>
<glyph name="u16F85" format="2">
  <advance width="230"/>
  <unicode hex="16F85"/>
  <anchor x="0" y="170" name="SB"/>
  <anchor x="0" y="110" name="WB"/>
  <anchor x="230" y="170" name="S"/>
  <anchor x="230" y="110" name="W"/>
  <outline>
    <contour>
      <point x="52" y="282" type="line"/>
      <point x="24" y="282" type="line"/>
      <point x="24" y="15" type="line"/>
      <point x="52" y="15" type="line"/>
    </contour>
    <contour>
      <point x="128" y="173" type="curve" smooth="yes"/>
      <point x="87" y="173"/>
      <point x="60" y="151"/>
      <point x="49" y="138" type="curve"/>
      <point x="49" y="107" type="line"/>
      <point x="59" y="121"/>
      <point x="89" y="145"/>
      <point x="122" y="145" type="curve" smooth="yes"/>
      <point x="161" y="145"/>
      <point x="178" y="119"/>
      <point x="178" y="89" type="curve" smooth="yes"/>
      <point x="178" y="54"/>
      <point x="155" y="28"/>
      <point x="112" y="28" type="curve" smooth="yes"/>
      <point x="24" y="28" type="line"/>
      <point x="24" y="0" type="line"/>
      <point x="112" y="0" type="line" smooth="yes"/>
      <point x="167" y="0"/>
      <point x="206" y="39"/>
      <point x="206" y="89" type="curve" smooth="yes"/>
      <point x="206" y="137"/>
      <point x="176" y="173"/>
    </contour>
  </outline>
</glyph>
<glyph name="u16F86" format="2">
  <advance width="238"/>
  <unicode hex="16F86"/>
  <anchor x="238" y="0" name="F"/>
  <anchor x="0" y="0" name="FB"/>
  <anchor x="0" y="10" name="FBR"/>
  <anchor x="238" y="10" name="FR"/>
  <anchor x="238" y="170" name="S"/>
  <anchor x="0" y="170" name="SB"/>
  <anchor x="0" y="160" name="SBR"/>
  <anchor x="0" y="240" name="SBRT"/>
  <anchor x="0" y="250" name="SBT"/>
  <anchor x="238" y="160" name="SR"/>
  <anchor x="238" y="240" name="SRT"/>
  <anchor x="238" y="250" name="ST"/>
  <anchor x="238" y="110" name="W"/>
  <anchor x="0" y="110" name="WB"/>
  <outline>
    <contour>
      <point x="180" y="0" type="line"/>
      <point x="208" y="0" type="line"/>
      <point x="208" y="220" type="line"/>
      <point x="180" y="220" type="line"/>
    </contour>
    <contour>
      <point x="108" y="79" type="curve" smooth="yes"/>
      <point x="149" y="79"/>
      <point x="176" y="101"/>
      <point x="187" y="114" type="curve"/>
      <point x="187" y="145" type="line"/>
      <point x="177" y="131"/>
      <point x="147" y="107"/>
      <point x="114" y="107" type="curve" smooth="yes"/>
      <point x="75" y="107"/>
      <point x="58" y="133"/>
      <point x="58" y="163" type="curve" smooth="yes"/>
      <point x="58" y="173"/>
      <point x="58" y="214"/>
      <point x="58" y="220" type="curve"/>
      <point x="30" y="220" type="line"/>
      <point x="30" y="214"/>
      <point x="30" y="173"/>
      <point x="30" y="163" type="curve" smooth="yes"/>
      <point x="30" y="115"/>
      <point x="60" y="79"/>
    </contour>
  </outline>
</glyph>
<glyph name="u16F87" format="2">
  <advance width="368"/>
  <unicode hex="16F87"/>
  <anchor x="0" y="170" name="SB"/>
  <anchor x="0" y="110" name="WB"/>
  <anchor x="0" y="0" name="FB"/>
  <anchor x="368" y="170" name="S"/>
  <anchor x="368" y="110" name="W"/>
  <anchor x="368" y="0" name="F"/>
  <outline>
    <contour>
      <point x="198" y="107" type="line"/>
      <point x="198" y="117"/>
      <point x="198" y="106"/>
      <point x="198" y="116" type="curve" smooth="yes"/>
      <point x="198" y="177"/>
      <point x="214" y="204"/>
      <point x="254" y="204" type="curve" smooth="yes"/>
      <point x="296" y="204"/>
      <point x="310" y="167"/>
      <point x="310" y="106" type="curve" smooth="yes"/>
      <point x="310" y="96"/>
      <point x="310" y="10"/>
      <point x="310" y="0" type="curve"/>
      <point x="338" y="0" type="line"/>
      <point x="338" y="10"/>
      <point x="338" y="101"/>
      <point x="338" y="111" type="curve" smooth="yes"/>
      <point x="338" y="183"/>
      <point x="312" y="232"/>
      <point x="254" y="232" type="curve" smooth="yes"/>
      <point x="198" y="232"/>
      <point x="170" y="196"/>
      <point x="170" y="121" type="curve" smooth="yes"/>
      <point x="170" y="111"/>
      <point x="170" y="117"/>
      <point x="170" y="107" type="curve"/>
    </contour>
    <contour>
      <point x="170" y="113" type="line"/>
      <point x="170" y="103"/>
      <point x="170" y="124"/>
      <point x="170" y="104" type="curve" smooth="yes"/>
      <point x="170" y="43"/>
      <point x="155" y="16"/>
      <point x="114" y="16" type="curve" smooth="yes"/>
      <point x="72" y="16"/>
      <point x="58" y="53"/>
      <point x="58" y="114" type="curve" smooth="yes"/>
      <point x="58" y="124"/>
      <point x="58" y="210"/>
      <point x="58" y="220" type="curve"/>
      <point x="30" y="220" type="line"/>
      <point x="30" y="210"/>
      <point x="30" y="119"/>
      <point x="30" y="109" type="curve" smooth="yes"/>
      <point x="30" y="37"/>
      <point x="56" y="-12"/>
      <point x="114" y="-12" type="curve" smooth="yes"/>
      <point x="171" y="-12"/>
      <point x="198" y="24"/>
      <point x="198" y="99" type="curve" smooth="yes"/>
      <point x="198" y="119"/>
      <point x="198" y="103"/>
      <point x="198" y="113" type="curve"/>
    </contour>
  </outline>
</glyph>
<glyph name="u16F93" format="2">
  <advance width="238"/>
  <unicode hex="16F93"/>
  <outline>
    <contour>
      <point x="25" y="220" type="line"/>
      <point x="25" y="192" type="line"/>
      <point x="213" y="192" type="line"/>
      <point x="213" y="220" type="line"/>
    </contour>
    <contour>
      <point x="105" y="220" type="line"/>
      <point x="105" y="0" type="line"/>
      <point x="133" y="0" type="line"/>
      <point x="133" y="220" type="line"/>
    </contour>
  </outline>
</glyph>
<glyph name="u16F94" format="2">
  <advance width="238"/>
  <unicode hex="16F94"/>
  <outline>
    <contour>
      <point x="200" y="192" type="line"/>
      <point x="200" y="220" type="line"/>
      <point x="36" y="220" type="line"/>
      <point x="36" y="192" type="line"/>
    </contour>
    <contour>
      <point x="181" y="212" type="line"/>
      <point x="76" y="130" type="line"/>
      <point x="76" y="108" type="line"/>
      <point x="84" y="108"/>
      <point x="86" y="108"/>
      <point x="92" y="108" type="curve"/>
      <point x="200" y="192" type="line"/>
    </contour>
    <contour>
      <point x="25" y="35" type="line"/>
      <point x="46" y="7"/>
      <point x="74" y="-12"/>
      <point x="122" y="-12" type="curve" smooth="yes"/>
      <point x="169" y="-12"/>
      <point x="208" y="19"/>
      <point x="208" y="62" type="curve" smooth="yes"/>
      <point x="208" y="108"/>
      <point x="170" y="134"/>
      <point x="87" y="134" type="curve"/>
      <point x="76" y="108" type="line"/>
      <point x="155" y="108"/>
      <point x="180" y="89"/>
      <point x="180" y="62" type="curve" smooth="yes"/>
      <point x="180" y="33"/>
      <point x="152" y="16"/>
      <point x="122" y="16" type="curve" smooth="yes"/>
      <point x="83" y="16"/>
      <point x="62" y="32"/>
      <point x="46" y="54" type="curve"/>
    </contour>
  </outline>
</glyph>
<glyph name="u16F95" format="2">
  <advance width="278"/>
  <unicode hex="16F95"/>
  <outline>
    <contour>
      <point x="35" y="220" type="line"/>
      <point x="78" y="220" type="line"/>
      <point x="117" y="130" type="line"/>
      <point x="138" y="82" type="line"/>
      <point x="141" y="82" type="line"/>
      <point x="162" y="130" type="line"/>
      <point x="200" y="220" type="line"/>
      <point x="243" y="220" type="line"/>
      <point x="243" y="0" type="line"/>
      <point x="215" y="0" type="line"/>
      <point x="215" y="113" type="line"/>
      <point x="217" y="140"/>
      <point x="216" y="166"/>
      <point x="218" y="193" type="curve"/>
      <point x="215" y="193" type="line"/>
      <point x="193" y="144" type="line"/>
      <point x="153" y="55" type="line"/>
      <point x="125" y="55" type="line"/>
      <point x="85" y="144" type="line"/>
      <point x="63" y="193" type="line"/>
      <point x="60" y="193" type="line"/>
      <point x="62" y="166"/>
      <point x="61" y="140"/>
      <point x="63" y="113" type="curve"/>
      <point x="63" y="0" type="line"/>
      <point x="35" y="0" type="line"/>
    </contour>
  </outline>
</glyph>
<glyph name="u16F96" format="2">
  <advance width="203"/>
  <unicode hex="16F96"/>
  <outline>
    <contour>
      <point x="30" y="220" type="line"/>
      <point x="30" y="192" type="line"/>
      <point x="178" y="192" type="line"/>
      <point x="178" y="220" type="line"/>
    </contour>
    <contour>
      <point x="30" y="220" type="line"/>
      <point x="30" y="0" type="line"/>
      <point x="58" y="0" type="line"/>
      <point x="58" y="220" type="line"/>
    </contour>
  </outline>
</glyph>
<glyph name="u16F97" format="2">
  <advance width="210"/>
  <unicode hex="16F97"/>
  <outline>
    <contour>
      <point x="111" y="-12" type="curve" smooth="yes"/>
      <point x="160" y="-12"/>
      <point x="185" y="17"/>
      <point x="185" y="52" type="curve" smooth="yes"/>
      <point x="185" y="89"/>
      <point x="145" y="110"/>
      <point x="107" y="130" type="curve" smooth="yes"/>
      <point x="82" y="143"/>
      <point x="69" y="155"/>
      <point x="69" y="173" type="curve" smooth="yes"/>
      <point x="69" y="191"/>
      <point x="83" y="204"/>
      <point x="109" y="204" type="curve" smooth="yes"/>
      <point x="133" y="204"/>
      <point x="149" y="186"/>
      <point x="155" y="175" type="curve"/>
      <point x="181" y="185" type="line"/>
      <point x="173" y="202"/>
      <point x="151" y="232"/>
      <point x="108" y="232" type="curve" smooth="yes"/>
      <point x="67" y="232"/>
      <point x="41" y="205"/>
      <point x="41" y="172" type="curve" smooth="yes"/>
      <point x="41" y="135"/>
      <point x="70" y="118"/>
      <point x="100" y="102" type="curve" smooth="yes"/>
      <point x="126" y="88"/>
      <point x="157" y="71"/>
      <point x="157" y="51" type="curve" smooth="yes"/>
      <point x="157" y="30"/>
      <point x="139" y="16"/>
      <point x="113" y="16" type="curve" smooth="yes"/>
      <point x="85" y="16"/>
      <point x="61" y="37"/>
      <point x="53" y="56" type="curve"/>
      <point x="26" y="46" type="line"/>
      <point x="35" y="21"/>
      <point x="68" y="-12"/>
    </contour>
  </outline>
</glyph>
<glyph name="u16F98" format="2">
  <advance width="203"/>
  <unicode hex="16F98"/>
  <outline>
    <contour>
      <point x="30" y="0" type="line"/>
      <point x="178" y="0" type="line"/>
      <point x="178" y="28" type="line"/>
      <point x="30" y="28" type="line"/>
    </contour>
    <contour>
      <point x="30" y="0" type="line"/>
      <point x="58" y="0" type="line"/>
      <point x="58" y="220" type="line"/>
      <point x="30" y="220" type="line"/>
    </contour>
  </outline>
</glyph>
<glyph name="u16F99" format="2">
  <advance width="180"/>
  <unicode hex="16F99"/>
  <outline>
    <contour>
      <point x="144" y="42" type="line"/>
      <point x="140" y="26"/>
      <point x="130" y="16"/>
      <point x="118" y="16" type="curve" smooth="yes"/>
      <point x="103" y="16"/>
      <point x="93" y="28"/>
      <point x="93" y="62" type="curve" smooth="yes"/>
      <point x="93" y="142" type="line"/>
      <point x="153" y="142" type="line"/>
      <point x="153" y="170" type="line"/>
      <point x="93" y="170" type="line"/>
      <point x="93" y="230" type="line"/>
      <point x="68" y="230" type="line"/>
      <point x="65" y="170" type="line"/>
      <point x="10" y="167" type="line"/>
      <point x="10" y="142" type="line"/>
      <point x="65" y="142" type="line"/>
      <point x="65" y="65" type="line" smooth="yes"/>
      <point x="65" y="0"/>
      <point x="92" y="-12"/>
      <point x="115" y="-12" type="curve" smooth="yes"/>
      <point x="144" y="-12"/>
      <point x="163" y="5"/>
      <point x="170" y="34" type="curve"/>
    </contour>
  </outline>
</glyph>
<glyph name="u16F9A" format="2">
  <advance width="380"/>
  <unicode hex="16F9A"/>
  <outline>
    <contour>
      <point x="176" y="107" type="line"/>
      <point x="204" y="107" type="line"/>
      <point x="204" y="117"/>
      <point x="204" y="111"/>
      <point x="204" y="121" type="curve" smooth="yes"/>
      <point x="204" y="196"/>
      <point x="179" y="232"/>
      <point x="115" y="232" type="curve" smooth="yes"/>
      <point x="60" y="232"/>
      <point x="25" y="199"/>
      <point x="25" y="137" type="curve" smooth="yes"/>
      <point x="25" y="111"/>
      <point x="40" y="27"/>
      <point x="45" y="0" type="curve"/>
      <point x="73" y="0" type="line"/>
      <point x="70" y="17"/>
      <point x="53" y="121"/>
      <point x="53" y="139" type="curve" smooth="yes"/>
      <point x="53" y="185"/>
      <point x="76" y="204"/>
      <point x="115" y="204" type="curve" smooth="yes"/>
      <point x="163" y="204"/>
      <point x="176" y="180"/>
      <point x="176" y="116" type="curve" smooth="yes"/>
    </contour>
    <contour>
      <point x="204" y="113" type="line"/>
      <point x="176" y="113" type="line"/>
      <point x="176" y="99" type="line" smooth="yes"/>
      <point x="176" y="24"/>
      <point x="201" y="-12"/>
      <point x="265" y="-12" type="curve" smooth="yes"/>
      <point x="324" y="-12"/>
      <point x="355" y="23"/>
      <point x="355" y="89" type="curve" smooth="yes"/>
      <point x="355" y="105"/>
      <point x="339" y="198"/>
      <point x="335" y="220" type="curve"/>
      <point x="307" y="220" type="line"/>
      <point x="310" y="203"/>
      <point x="327" y="104"/>
      <point x="327" y="85" type="curve" smooth="yes"/>
      <point x="327" y="35"/>
      <point x="306" y="16"/>
      <point x="265" y="16" type="curve" smooth="yes"/>
      <point x="217" y="16"/>
      <point x="204" y="40"/>
      <point x="204" y="104" type="curve" smooth="yes"/>
    </contour>
  </outline>
</glyph>
<glyph name="u16F9B" format="2">
  <advance width="368"/>
  <unicode hex="16F9B"/>
  <outline>
    <contour>
      <point x="115" y="204" type="curve" smooth="yes"/>
      <point x="156" y="204"/>
      <point x="170" y="177"/>
      <point x="170" y="116" type="curve" smooth="yes"/>
      <point x="170" y="36"/>
      <point x="170" y="47"/>
      <point x="170" y="37" type="curve"/>
      <point x="198" y="37" type="line"/>
      <point x="198" y="47"/>
      <point x="198" y="111"/>
      <point x="198" y="121" type="curve" smooth="yes"/>
      <point x="198" y="186"/>
      <point x="172" y="232"/>
      <point x="115" y="232" type="curve" smooth="yes"/>
      <point x="60" y="232"/>
      <point x="25" y="199"/>
      <point x="25" y="137" type="curve" smooth="yes"/>
      <point x="25" y="113"/>
      <point x="40" y="30"/>
      <point x="45" y="0" type="curve"/>
      <point x="73" y="0" type="line"/>
      <point x="66" y="37"/>
      <point x="53" y="111"/>
      <point x="53" y="139" type="curve" smooth="yes"/>
      <point x="53" y="185"/>
      <point x="76" y="204"/>
    </contour>
    <contour>
      <point x="254" y="204" type="curve" smooth="yes"/>
      <point x="293" y="204"/>
      <point x="318" y="185"/>
      <point x="318" y="141" type="curve" smooth="yes"/>
      <point x="318" y="125"/>
      <point x="302" y="26"/>
      <point x="297" y="0" type="curve"/>
      <point x="325" y="0" type="line"/>
      <point x="330" y="27"/>
      <point x="347" y="125"/>
      <point x="347" y="140" type="curve" smooth="yes"/>
      <point x="347" y="199"/>
      <point x="308" y="232"/>
      <point x="254" y="232" type="curve" smooth="yes"/>
      <point x="197" y="232"/>
      <point x="170" y="186"/>
      <point x="170" y="121" type="curve" smooth="yes"/>
      <point x="170" y="91"/>
      <point x="170" y="47"/>
      <point x="170" y="37" type="curve"/>
      <point x="198" y="37" type="line"/>
      <point x="198" y="47"/>
      <point x="198" y="86"/>
      <point x="198" y="116" type="curve" smooth="yes"/>
      <point x="198" y="177"/>
      <point x="213" y="204"/>
    </contour>
  </outline>
</glyph>
<glyph name="u16F9C" format="2">
  <advance width="243"/>
  <unicode hex="16F9C"/>
  <outline>
    <contour>
      <point x="232" y="133" type="line"/>
      <point x="215" y="144"/>
      <point x="178" y="151"/>
      <point x="154" y="151" type="curve" smooth="yes"/>
      <point x="102" y="151"/>
      <point x="61" y="116"/>
      <point x="61" y="62" type="curve" smooth="yes"/>
      <point x="61" y="15"/>
      <point x="89" y="-12"/>
      <point x="126" y="-12" type="curve" smooth="yes"/>
      <point x="160" y="-12"/>
      <point x="195" y="20"/>
      <point x="195" y="76" type="curve" smooth="yes"/>
      <point x="195" y="151"/>
      <point x="130" y="218"/>
      <point x="23" y="250" type="curve"/>
      <point x="10" y="225" type="line"/>
      <point x="100" y="199"/>
      <point x="167" y="145"/>
      <point x="167" y="74" type="curve" smooth="yes"/>
      <point x="167" y="43"/>
      <point x="151" y="16"/>
      <point x="126" y="16" type="curve" smooth="yes"/>
      <point x="104" y="16"/>
      <point x="89" y="31"/>
      <point x="89" y="63" type="curve" smooth="yes"/>
      <point x="89" y="98"/>
      <point x="118" y="126"/>
      <point x="154" y="126" type="curve" smooth="yes"/>
      <point x="176" y="126"/>
      <point x="217" y="118"/>
      <point x="233" y="105" type="curve"/>
    </contour>
  </outline>
</glyph>
<glyph name="u16F9E" format="2">
  <advance width="243"/>
  <unicode hex="16F9E"/>
  <outline>
    <contour>
      <point x="11" y="87" type="line"/>
      <point x="28" y="76"/>
      <point x="65" y="69"/>
      <point x="89" y="69" type="curve" smooth="yes"/>
      <point x="141" y="69"/>
      <point x="182" y="104"/>
      <point x="182" y="158" type="curve" smooth="yes"/>
      <point x="182" y="205"/>
      <point x="154" y="232"/>
      <point x="117" y="232" type="curve" smooth="yes"/>
      <point x="83" y="232"/>
      <point x="48" y="200"/>
      <point x="48" y="144" type="curve" smooth="yes"/>
      <point x="48" y="69"/>
      <point x="113" y="2"/>
      <point x="220" y="-30" type="curve"/>
      <point x="233" y="-5" type="line"/>
      <point x="143" y="21"/>
      <point x="76" y="75"/>
      <point x="76" y="146" type="curve" smooth="yes"/>
      <point x="76" y="177"/>
      <point x="92" y="204"/>
      <point x="117" y="204" type="curve" smooth="yes"/>
      <point x="139" y="204"/>
      <point x="154" y="189"/>
      <point x="154" y="157" type="curve" smooth="yes"/>
      <point x="154" y="122"/>
      <point x="125" y="94"/>
      <point x="89" y="94" type="curve" smooth="yes"/>
      <point x="67" y="94"/>
      <point x="26" y="102"/>
      <point x="10" y="115" type="curve"/>
    </contour>
  </outline>
</glyph>
<glyph name="E.sc" format="2">
  <advance width="456"/>
  <anchor x="261" y="562" name="aboveUC"/>
  <anchor x="264" y="-22" name="belowLC"/>
  <anchor x="324" y="0" name="ogonekUC"/>
  <outline>
    <contour>
      <point x="100" y="0" type="line"/>
      <point x="410" y="0" type="line"/>
      <point x="410" y="28" type="line"/>
      <point x="132" y="28" type="line"/>
      <point x="132" y="258" type="line"/>
      <point x="358" y="258" type="line"/>
      <point x="358" y="286" type="line"/>
      <point x="132" y="286" type="line"/>
      <point x="132" y="482" type="line"/>
      <point x="400" y="482" type="line"/>
      <point x="400" y="510" type="line"/>
      <point x="100" y="510" type="line"/>
    </contour>
  </outline>
</glyph>
<glyph name="I.alt" format="2">
  <advance width="300"/>
  <anchor x="150" y="682" name="aboveUC"/>
  <anchor x="152" y="-22" name="belowLC"/>
  <anchor x="124" y="0" name="ogonekUC"/>
  <outline>
    <contour>
      <point x="42" y="0" type="line"/>
      <point x="258" y="0" type="line"/>
      <point x="258" y="28" type="line"/>
      <point x="166" y="28" type="line"/>
      <point x="166" y="632" type="line"/>
      <point x="258" y="632" type="line"/>
      <point x="258" y="660" type="line"/>
      <point x="42" y="660" type="line"/>
      <point x="42" y="632" type="line"/>
      <point x="134" y="632" type="line"/>
      <point x="134" y="28" type="line"/>
      <point x="42" y="28" type="line"/>
    </contour>
  </outline>
</glyph>
<glyph name="I.sc" format="2">
  <advance width="232"/>
  <anchor x="116" y="562" name="aboveUC"/>
  <anchor x="116" y="-22" name="belowLC"/>
  <anchor x="90" y="0" name="ogonekUC"/>
  <outline>
    <contour>
      <point x="100" y="0" type="line"/>
      <point x="132" y="0" type="line"/>
      <point x="132" y="510" type="line"/>
      <point x="100" y="510" type="line"/>
    </contour>
  </outline>
</glyph>
<glyph name="T.sc" format="2">
  <advance width="448"/>
  <anchor x="224" y="562" name="aboveUC"/>
  <anchor x="216" y="0" name="baseLC"/>
  <anchor x="224" y="-22" name="belowLC"/>
  <outline>
    <contour>
      <point x="208" y="0" type="line"/>
      <point x="240" y="0" type="line"/>
      <point x="240" y="482" type="line"/>
      <point x="418" y="482" type="line"/>
      <point x="418" y="510" type="line"/>
      <point x="30" y="510" type="line"/>
      <point x="30" y="482" type="line"/>
      <point x="208" y="482" type="line"/>
    </contour>
  </outline>
</glyph>
<glyph name="Tbar.sc" format="2">
  <advance width="448"/>
  <anchor x="224" y="562" name="aboveUC"/>
  <anchor x="216" y="0" name="baseLC"/>
  <anchor x="224" y="-22" name="belowLC"/>
  <outline>
    <contour>
      <point x="208" y="0" type="line"/>
      <point x="240" y="0" type="line"/>
      <point x="240" y="482" type="line"/>
      <point x="418" y="482" type="line"/>
      <point x="418" y="510" type="line"/>
      <point x="30" y="510" type="line"/>
      <point x="30" y="482" type="line"/>
      <point x="208" y="482" type="line"/>
    </contour>
    <contour>
      <point x="80" y="256" type="line"/>
      <point x="368" y="256" type="line"/>
      <point x="368" y="284" type="line"/>
      <point x="164" y="284" type="line"/>
      <point x="80" y="282" type="line"/>
    </contour>
  </outline>
</glyph>
<glyph name="caroncmb.cap" format="2">
  <anchor x="0" y="682" name="_aboveUC"/>
  <outline>
    <contour>
      <point x="-14" y="710" type="line"/>
      <point x="14" y="710" type="line"/>
      <point x="130" y="824" type="line"/>
      <point x="116" y="840" type="line"/>
      <point x="2" y="740" type="line"/>
      <point x="-2" y="740" type="line"/>
      <point x="-116" y="840" type="line"/>
      <point x="-130" y="824" type="line"/>
    </contour>
  </outline>
</glyph>
<glyph name="circumflexcmb.cap" format="2">
  <anchor x="0" y="682" name="_aboveUC"/>
  <outline>
    <contour>
      <point x="-130" y="726" type="line"/>
      <point x="-116" y="710" type="line"/>
      <point x="-2" y="810" type="line"/>
      <point x="2" y="810" type="line"/>
      <point x="116" y="710" type="line"/>
      <point x="130" y="726" type="line"/>
      <point x="14" y="840" type="line"/>
      <point x="-14" y="840" type="line"/>
    </contour>
  </outline>
</glyph>
<glyph name="dot" format="2">
  <advance width="99"/>
  <anchor x="99" y="660" name="S"/>
  <anchor x="99" y="690" name="ST"/>
  <anchor x="0" y="646" name="_D"/>
  <outline>
    <contour>
      <point x="42" y="602" type="curve" smooth="yes"/>
      <point x="60" y="602"/>
      <point x="74" y="616"/>
      <point x="74" y="638" type="curve" smooth="yes"/>
      <point x="74" y="658"/>
      <point x="60" y="672"/>
      <point x="42" y="672" type="curve" smooth="yes"/>
      <point x="24" y="672"/>
      <point x="10" y="658"/>
      <point x="10" y="638" type="curve" smooth="yes"/>
      <point x="10" y="616"/>
      <point x="24" y="602"/>
    </contour>
  </outline>
</glyph>
<glyph name="l.alt" format="2">
  <advance width="222"/>
  <anchor x="112" y="730" name="aboveLC"/>
  <anchor x="112" y="-22" name="belowLC"/>
  <outline>
    <contour>
      <point x="96" y="0" type="line"/>
      <point x="126" y="0" type="line"/>
      <point x="126" y="722" type="line"/>
      <point x="96" y="722" type="line"/>
    </contour>
  </outline>
</glyph>
<glyph name="macroncmb.cap" format="2">
  <anchor x="0" y="682" name="_aboveUC"/>
  <outline>
    <contour>
      <point x="-120" y="746" type="line"/>
      <point x="120" y="746" type="line"/>
      <point x="120" y="774" type="line"/>
      <point x="-120" y="774" type="line"/>
    </contour>
  </outline>
</glyph>
<glyph name="overlinecmb.cap" format="1">
  <outline>
    <component base="macroncmb.cap"/>
    <contour>
      <point x="0" y="682" type="move" name="_aboveUC"/>
    </contour>
  </outline>
</glyph>
<glyph name="tonemarkvisible" format="2">
  <advance width="258"/>
  <outline>
    <contour>
      <point x="25" y="220" type="line"/>
      <point x="25" y="192" type="line"/>
      <point x="233" y="192" type="line"/>
      <point x="233" y="220" type="line"/>
    </contour>
    <contour>
      <point x="115" y="220" type="line"/>
      <point x="115" y="0" type="line"/>
      <point x="143" y="0" type="line"/>
      <point x="143" y="220" type="line"/>
    </contour>
  </outline>
</glyph>
<glyph name="u16F02.ygp" format="2">
  <advance width="530"/>
  <anchor x="356" y="640" name="D"/>
  <anchor x="356" y="443" name="E"/>
  <anchor x="530" y="0" name="F"/>
  <anchor x="530" y="10" name="FR"/>
  <anchor x="265" y="700" name="H"/>
  <anchor x="306" y="700" name="HD"/>
  <anchor x="530" y="227" name="K"/>
  <anchor x="285" y="-45" name="L"/>
  <anchor x="356" y="660" name="S"/>
  <anchor x="530" y="650" name="SR"/>
  <anchor x="530" y="690" name="SRT"/>
  <anchor x="356" y="690" name="ST"/>
  <anchor x="356" y="335" name="W"/>
  <outline>
    <contour>
      <point x="281" y="28" type="line"/>
      <point x="281" y="660" type="line"/>
      <point x="249" y="660" type="line"/>
      <point x="249" y="28" type="line"/>
      <point x="30" y="28" type="line"/>
      <point x="30" y="0" type="line"/>
      <point x="500" y="0" type="line"/>
      <point x="500" y="28" type="line"/>
    </contour>
  </outline>
</glyph>
<glyph name="u16F04.hmdd" format="2">
  <advance width="459"/>
  <anchor x="459" y="646" name="D"/>
  <anchor x="459" y="443" name="E"/>
  <anchor x="459" y="0" name="F"/>
  <anchor x="178" y="700" name="H"/>
  <anchor x="340" y="700" name="HD"/>
  <anchor x="459" y="227" name="K"/>
  <anchor x="178" y="-45" name="L"/>
  <anchor x="459" y="660" name="S"/>
  <anchor x="459" y="335" name="W"/>
  <outline>
    <contour>
      <point x="50" y="0" type="line"/>
      <point x="219" y="0" type="line"/>
      <point x="329" y="0"/>
      <point x="399" y="73"/>
      <point x="399" y="153" type="curve" smooth="yes"/>
      <point x="399" y="507" type="line" smooth="yes"/>
      <point x="399" y="587"/>
      <point x="329" y="660"/>
      <point x="219" y="660" type="curve" smooth="yes"/>
      <point x="60" y="660" type="line"/>
      <point x="60" y="632" type="line"/>
      <point x="213" y="632" type="line" smooth="yes"/>
      <point x="313" y="632"/>
      <point x="367" y="576"/>
      <point x="367" y="497" type="curve" smooth="yes"/>
      <point x="367" y="163" type="line" smooth="yes"/>
      <point x="367" y="85"/>
      <point x="313" y="28"/>
      <point x="213" y="28" type="curve" smooth="yes"/>
      <point x="50" y="28" type="line"/>
    </contour>
  </outline>
</glyph>
<glyph name="u16F04.lpo" format="2">
  <advance width="534"/>
  <anchor x="534" y="646" name="D"/>
  <anchor x="534" y="443" name="E"/>
  <anchor x="534" y="0" name="F"/>
  <anchor x="252" y="700" name="H"/>
  <anchor x="434" y="700" name="HD"/>
  <anchor x="534" y="227" name="K"/>
  <anchor x="252" y="-45" name="L"/>
  <anchor x="534" y="660" name="S"/>
  <anchor x="534" y="335" name="W"/>
  <outline>
    <contour>
      <point x="220" y="-12" type="curve" smooth="yes"/>
      <point x="382" y="-12"/>
      <point x="494" y="124"/>
      <point x="494" y="332" type="curve" smooth="yes"/>
      <point x="494" y="540"/>
      <point x="384" y="672"/>
      <point x="216" y="672" type="curve" smooth="yes"/>
      <point x="140" y="672"/>
      <point x="82" y="634"/>
      <point x="48" y="594" type="curve"/>
      <point x="68" y="572" type="line"/>
      <point x="104" y="614"/>
      <point x="154" y="642"/>
      <point x="216" y="642" type="curve" smooth="yes"/>
      <point x="368" y="642"/>
      <point x="460" y="522"/>
      <point x="460" y="332" type="curve" smooth="yes"/>
      <point x="460" y="142"/>
      <point x="370" y="18"/>
      <point x="222" y="18" type="curve" smooth="yes"/>
      <point x="152" y="18"/>
      <point x="98" y="46"/>
      <point x="48" y="102" type="curve"/>
      <point x="28" y="82" type="line"/>
      <point x="78" y="24"/>
      <point x="134" y="-12"/>
    </contour>
  </outline>
</glyph>
<glyph name="u16F04.narrow" format="2">
  <advance width="404"/>
  <anchor x="404" y="646" name="D"/>
  <anchor x="404" y="443" name="E"/>
  <anchor x="404" y="0" name="F"/>
  <anchor x="404" y="10" name="FR"/>
  <anchor x="202" y="700" name="H"/>
  <anchor x="314" y="700" name="HD"/>
  <anchor x="404" y="227" name="K"/>
  <anchor x="202" y="-45" name="L"/>
  <anchor x="404" y="660" name="S"/>
  <anchor x="404" y="650" name="SR"/>
  <anchor x="404" y="680" name="SRT"/>
  <anchor x="404" y="690" name="ST"/>
  <anchor x="404" y="335" name="W"/>
  <outline>
    <contour>
      <point x="50" y="0" type="line"/>
      <point x="68" y="0" type="line" smooth="yes"/>
      <point x="272" y="0"/>
      <point x="364" y="132"/>
      <point x="364" y="328" type="curve" smooth="yes"/>
      <point x="364" y="524"/>
      <point x="272" y="660"/>
      <point x="68" y="660" type="curve" smooth="yes"/>
      <point x="60" y="660" type="line"/>
      <point x="60" y="632" type="line"/>
      <point x="64" y="632" type="line" smooth="yes"/>
      <point x="252" y="632"/>
      <point x="330" y="502"/>
      <point x="330" y="328" type="curve" smooth="yes"/>
      <point x="330" y="154"/>
      <point x="252" y="28"/>
      <point x="64" y="28" type="curve" smooth="yes"/>
      <point x="50" y="28" type="line"/>
    </contour>
  </outline>
</glyph>
<glyph name="u16F10.hmdd" format="2">
  <advance width="459"/>
  <anchor x="459" y="646" name="D"/>
  <anchor x="459" y="443" name="E"/>
  <anchor x="459" y="0" name="F"/>
  <anchor x="227" y="700" name="H"/>
  <anchor x="409" y="700" name="HD"/>
  <anchor x="459" y="227" name="K"/>
  <anchor x="227" y="-45" name="L"/>
  <anchor x="459" y="660" name="S"/>
  <anchor x="293" y="335" name="W"/>
  <outline>
    <contour>
      <point x="409" y="0" type="line"/>
      <point x="409" y="28" type="line"/>
      <point x="216" y="28" type="line" smooth="yes"/>
      <point x="146" y="28"/>
      <point x="92" y="88"/>
      <point x="92" y="153" type="curve" smooth="yes"/>
      <point x="92" y="507" type="line" smooth="yes"/>
      <point x="92" y="572"/>
      <point x="146" y="632"/>
      <point x="216" y="632" type="curve" smooth="yes"/>
      <point x="409" y="632" type="line"/>
      <point x="409" y="660" type="line"/>
      <point x="210" y="660" type="line" smooth="yes"/>
      <point x="130" y="660"/>
      <point x="60" y="587"/>
      <point x="60" y="517" type="curve" smooth="yes"/>
      <point x="60" y="143" type="line" smooth="yes"/>
      <point x="60" y="73"/>
      <point x="130" y="0"/>
      <point x="210" y="0" type="curve"/>
    </contour>
  </outline>
</glyph>
<glyph name="u16F10.lpo" format="2">
  <advance width="534"/>
  <anchor x="534" y="646" name="D"/>
  <anchor x="534" y="443" name="E"/>
  <anchor x="534" y="0" name="F"/>
  <anchor x="534" y="10" name="FR"/>
  <anchor x="302" y="700" name="H"/>
  <anchor x="484" y="700" name="HD"/>
  <anchor x="534" y="227" name="K"/>
  <anchor x="302" y="-45" name="L"/>
  <anchor x="534" y="660" name="S"/>
  <anchor x="534" y="650" name="SR"/>
  <anchor x="534" y="680" name="SRT"/>
  <anchor x="534" y="690" name="ST"/>
  <anchor x="379" y="335" name="W"/>
  <outline>
    <contour>
      <point x="312" y="-12" type="curve" smooth="yes"/>
      <point x="398" y="-12"/>
      <point x="456" y="24"/>
      <point x="506" y="82" type="curve"/>
      <point x="486" y="102" type="line"/>
      <point x="436" y="46"/>
      <point x="384" y="18"/>
      <point x="314" y="18" type="curve" smooth="yes"/>
      <point x="166" y="18"/>
      <point x="74" y="142"/>
      <point x="74" y="332" type="curve" smooth="yes"/>
      <point x="74" y="522"/>
      <point x="166" y="642"/>
      <point x="318" y="642" type="curve" smooth="yes"/>
      <point x="380" y="642"/>
      <point x="430" y="614"/>
      <point x="466" y="572" type="curve"/>
      <point x="486" y="594" type="line"/>
      <point x="452" y="634"/>
      <point x="394" y="672"/>
      <point x="318" y="672" type="curve" smooth="yes"/>
      <point x="150" y="672"/>
      <point x="40" y="540"/>
      <point x="40" y="332" type="curve" smooth="yes"/>
      <point x="40" y="124"/>
      <point x="150" y="-12"/>
    </contour>
  </outline>
</glyph>
<glyph name="u16F14.flat" format="2">
  <advance width="543"/>
  <anchor x="543" y="646" name="D"/>
  <anchor x="543" y="443" name="E"/>
  <anchor x="543" y="0" name="F"/>
  <anchor x="301" y="700" name="H"/>
  <anchor x="493" y="700" name="HD"/>
  <anchor x="543" y="227" name="K"/>
  <anchor x="301" y="-45" name="L"/>
  <anchor x="543" y="660" name="S"/>
  <anchor x="523" y="335" name="W"/>
  <outline>
    <contour>
      <point x="194" y="0" type="curve" smooth="yes"/>
      <point x="483" y="0" type="line"/>
      <point x="483" y="28" type="line"/>
      <point x="200" y="28" type="line" smooth="yes"/>
      <point x="135" y="28"/>
      <point x="106" y="68"/>
      <point x="106" y="123" type="curve" smooth="yes"/>
      <point x="106" y="541" type="line" smooth="yes"/>
      <point x="106" y="596"/>
      <point x="135" y="632"/>
      <point x="200" y="632" type="curve" smooth="yes"/>
      <point x="261" y="632"/>
      <point x="267" y="632"/>
      <point x="342" y="632" type="curve"/>
      <point x="342" y="660" type="line"/>
      <point x="259" y="660"/>
      <point x="249" y="660"/>
      <point x="194" y="660" type="curve" smooth="yes"/>
      <point x="114" y="660"/>
      <point x="74" y="617"/>
      <point x="74" y="547" type="curve" smooth="yes"/>
      <point x="74" y="113" type="line" smooth="yes"/>
      <point x="74" y="43"/>
      <point x="114" y="0"/>
    </contour>
    <contour>
      <point x="342" y="660" type="curve" smooth="yes"/>
      <point x="333" y="660"/>
      <point x="315" y="639"/>
      <point x="326" y="639" type="curve"/>
      <point x="299" y="628"/>
      <point x="270" y="588"/>
      <point x="270" y="534" type="curve" smooth="yes"/>
      <point x="270" y="466"/>
      <point x="314" y="411"/>
      <point x="382" y="411" type="curve" smooth="yes"/>
      <point x="449" y="411"/>
      <point x="493" y="466"/>
      <point x="493" y="534" type="curve" smooth="yes"/>
      <point x="493" y="601"/>
      <point x="459" y="660"/>
    </contour>
    <contour>
      <point x="382" y="439" type="curve" smooth="yes"/>
      <point x="330" y="439"/>
      <point x="298" y="481"/>
      <point x="298" y="534" type="curve" smooth="yes"/>
      <point x="298" y="585"/>
      <point x="330" y="627"/>
      <point x="382" y="627" type="curve" smooth="yes"/>
      <point x="433" y="627"/>
      <point x="465" y="585"/>
      <point x="465" y="534" type="curve" smooth="yes"/>
      <point x="465" y="481"/>
      <point x="433" y="439"/>
    </contour>
  </outline>
</glyph>
<glyph name="u16F14.hmdd" format="2">
  <advance width="544"/>
  <anchor x="544" y="646" name="D"/>
  <anchor x="544" y="443" name="E"/>
  <anchor x="544" y="0" name="F"/>
  <anchor x="302" y="700" name="H"/>
  <anchor x="494" y="700" name="HD"/>
  <anchor x="544" y="227" name="K"/>
  <anchor x="302" y="-45" name="L"/>
  <anchor x="544" y="660" name="S"/>
  <anchor x="524" y="335" name="W"/>
  <outline>
    <contour>
      <point x="72" y="350" type="curve"/>
      <point x="492" y="350" type="line"/>
      <point x="494" y="362"/>
      <point x="494" y="372"/>
      <point x="494" y="382" type="curve" smooth="yes"/>
      <point x="494" y="564"/>
      <point x="424" y="672"/>
      <point x="279" y="672" type="curve" smooth="yes"/>
      <point x="168" y="672"/>
      <point x="40" y="600"/>
      <point x="40" y="344" type="curve" smooth="yes"/>
      <point x="40" y="142"/>
      <point x="132" y="0"/>
      <point x="336" y="0" type="curve" smooth="yes"/>
      <point x="484" y="0" type="line"/>
      <point x="484" y="28" type="line"/>
      <point x="340" y="28" type="line" smooth="yes"/>
      <point x="162" y="28"/>
      <point x="72" y="150"/>
    </contour>
    <contour>
      <point x="72" y="378" type="line"/>
      <point x="72" y="560"/>
      <point x="178" y="644"/>
      <point x="279" y="644" type="curve" smooth="yes"/>
      <point x="401" y="644"/>
      <point x="462" y="548"/>
      <point x="462" y="378" type="curve"/>
    </contour>
  </outline>
</glyph>
<glyph name="u16F14.ygp" format="2">
  <advance width="489"/>
  <anchor x="489" y="646" name="D"/>
  <anchor x="489" y="443" name="E"/>
  <anchor x="489" y="0" name="F"/>
  <anchor x="489" y="10" name="FR"/>
  <anchor x="255" y="700" name="H"/>
  <anchor x="449" y="700" name="HD"/>
  <anchor x="489" y="227" name="K"/>
  <anchor x="255" y="-45" name="L"/>
  <anchor x="489" y="660" name="S"/>
  <anchor x="489" y="650" name="SR"/>
  <anchor x="489" y="690" name="SRT"/>
  <anchor x="489" y="690" name="ST"/>
  <anchor x="469" y="335" name="W"/>
  <outline>
    <contour>
      <point x="321" y="0" type="curve" smooth="yes"/>
      <point x="429" y="0" type="line"/>
      <point x="429" y="28" type="line"/>
      <point x="325" y="28" type="line" smooth="yes"/>
      <point x="147" y="28"/>
      <point x="74" y="164"/>
      <point x="74" y="334" type="curve" smooth="yes"/>
      <point x="74" y="488"/>
      <point x="151" y="644"/>
      <point x="288" y="644" type="curve" smooth="yes"/>
      <point x="375" y="644"/>
      <point x="405" y="598"/>
      <point x="405" y="546" type="curve" smooth="yes"/>
      <point x="405" y="495"/>
      <point x="367" y="451"/>
      <point x="298" y="451" type="curve" smooth="yes"/>
      <point x="213" y="451"/>
      <point x="148" y="500"/>
      <point x="124" y="578" type="curve"/>
      <point x="105" y="554" type="line"/>
      <point x="134" y="473"/>
      <point x="207" y="423"/>
      <point x="298" y="423" type="curve" smooth="yes"/>
      <point x="385" y="423"/>
      <point x="439" y="479"/>
      <point x="439" y="546" type="curve" smooth="yes"/>
      <point x="439" y="613"/>
      <point x="395" y="672"/>
      <point x="288" y="672" type="curve" smooth="yes"/>
      <point x="133" y="672"/>
      <point x="40" y="520"/>
      <point x="40" y="334" type="curve" smooth="yes"/>
      <point x="40" y="142"/>
      <point x="127" y="0"/>
    </contour>
  </outline>
</glyph>
<glyph name="u16F23.flat" format="2">
  <advance width="544"/>
  <anchor x="544" y="646" name="D"/>
  <anchor x="544" y="443" name="E"/>
  <anchor x="544" y="0" name="F"/>
  <anchor x="302" y="700" name="H"/>
  <anchor x="494" y="700" name="HD"/>
  <anchor x="544" y="227" name="K"/>
  <anchor x="302" y="-45" name="L"/>
  <anchor x="544" y="660" name="S"/>
  <anchor x="524" y="335" name="W"/>
  <outline>
    <contour>
      <point x="343" y="-12" type="curve" smooth="yes"/>
      <point x="460" y="-12"/>
      <point x="494" y="47"/>
      <point x="494" y="114" type="curve" smooth="yes"/>
      <point x="494" y="182"/>
      <point x="450" y="237"/>
      <point x="383" y="237" type="curve" smooth="yes"/>
      <point x="315" y="237"/>
      <point x="271" y="182"/>
      <point x="271" y="114" type="curve" smooth="yes"/>
      <point x="271" y="60"/>
      <point x="300" y="20"/>
      <point x="327" y="9" type="curve"/>
      <point x="316" y="9"/>
      <point x="334" y="-12"/>
    </contour>
    <contour>
      <point x="383" y="209" type="curve" smooth="yes"/>
      <point x="434" y="209"/>
      <point x="466" y="167"/>
      <point x="466" y="114" type="curve" smooth="yes"/>
      <point x="466" y="63"/>
      <point x="434" y="21"/>
      <point x="383" y="21" type="curve" smooth="yes"/>
      <point x="331" y="21"/>
      <point x="299" y="63"/>
      <point x="299" y="114" type="curve" smooth="yes"/>
      <point x="299" y="167"/>
      <point x="331" y="209"/>
    </contour>
    <contour>
      <point x="195" y="660" type="line" smooth="yes"/>
      <point x="115" y="660"/>
      <point x="74" y="617"/>
      <point x="74" y="547" type="curve" smooth="yes"/>
      <point x="74" y="101" type="line" smooth="yes"/>
      <point x="74" y="31"/>
      <point x="115" y="-12"/>
      <point x="195" y="-12" type="curve" smooth="yes"/>
      <point x="250" y="-12"/>
      <point x="260" y="-12"/>
      <point x="343" y="-12" type="curve"/>
      <point x="343" y="16" type="line"/>
      <point x="268" y="16"/>
      <point x="262" y="16"/>
      <point x="201" y="16" type="curve" smooth="yes"/>
      <point x="136" y="16"/>
      <point x="108" y="56"/>
      <point x="108" y="111" type="curve" smooth="yes"/>
      <point x="108" y="541" type="line" smooth="yes"/>
      <point x="108" y="596"/>
      <point x="136" y="632"/>
      <point x="201" y="632" type="curve" smooth="yes"/>
      <point x="484" y="632" type="line"/>
      <point x="484" y="660" type="line"/>
    </contour>
  </outline>
</glyph>
<glyph name="u16F23.hmdd" format="2">
  <advance width="556"/>
  <anchor x="556" y="646" name="D"/>
  <anchor x="556" y="443" name="E"/>
  <anchor x="556" y="0" name="F"/>
  <anchor x="290" y="700" name="H"/>
  <anchor x="506" y="700" name="HD"/>
  <anchor x="556" y="227" name="K"/>
  <anchor x="290" y="-45" name="L"/>
  <anchor x="556" y="660" name="S"/>
  <anchor x="556" y="335" name="W"/>
  <outline>
    <contour>
      <point x="84" y="344" type="line"/>
      <point x="84" y="537"/>
      <point x="145" y="632"/>
      <point x="293" y="632" type="curve" smooth="yes"/>
      <point x="350" y="632"/>
      <point x="443" y="632"/>
      <point x="494" y="632" type="curve"/>
      <point x="494" y="660" type="line"/>
      <point x="441" y="660"/>
      <point x="351" y="660"/>
      <point x="288" y="660" type="curve" smooth="yes"/>
      <point x="134" y="660"/>
      <point x="50" y="572"/>
      <point x="50" y="326" type="curve" smooth="yes"/>
      <point x="50" y="67"/>
      <point x="143" y="-12"/>
      <point x="278" y="-12" type="curve" smooth="yes"/>
      <point x="413" y="-12"/>
      <point x="506" y="67"/>
      <point x="506" y="314" type="curve" smooth="yes"/>
      <point x="506" y="324"/>
      <point x="506" y="332"/>
      <point x="506" y="344" type="curve"/>
    </contour>
    <contour>
      <point x="84" y="316" type="curve"/>
      <point x="472" y="316" type="line"/>
      <point x="472" y="90"/>
      <point x="395" y="16"/>
      <point x="278" y="16" type="curve" smooth="yes"/>
      <point x="161" y="16"/>
      <point x="84" y="90"/>
    </contour>
  </outline>
</glyph>
<glyph name="u16F23.ygp" format="2">
  <advance width="489"/>
  <anchor x="489" y="646" name="D"/>
  <anchor x="489" y="453" name="E"/>
  <anchor x="489" y="0" name="F"/>
  <anchor x="489" y="10" name="FR"/>
  <anchor x="255" y="700" name="H"/>
  <anchor x="449" y="700" name="HD"/>
  <anchor x="489" y="217" name="K"/>
  <anchor x="255" y="-45" name="L"/>
  <anchor x="489" y="660" name="S"/>
  <anchor x="489" y="650" name="SR"/>
  <anchor x="489" y="680" name="SRT"/>
  <anchor x="489" y="690" name="ST"/>
  <anchor x="469" y="335" name="W"/>
  <outline>
    <contour>
      <point x="321" y="660" type="line" smooth="yes"/>
      <point x="127" y="660"/>
      <point x="40" y="518"/>
      <point x="40" y="326" type="curve" smooth="yes"/>
      <point x="40" y="140"/>
      <point x="113" y="-12"/>
      <point x="278" y="-12" type="curve" smooth="yes"/>
      <point x="385" y="-12"/>
      <point x="439" y="47"/>
      <point x="439" y="114" type="curve" smooth="yes"/>
      <point x="439" y="181"/>
      <point x="385" y="237"/>
      <point x="288" y="237" type="curve" smooth="yes"/>
      <point x="217" y="237"/>
      <point x="144" y="197"/>
      <point x="95" y="116" type="curve"/>
      <point x="114" y="92" type="line"/>
      <point x="158" y="170"/>
      <point x="223" y="209"/>
      <point x="288" y="209" type="curve" smooth="yes"/>
      <point x="367" y="209"/>
      <point x="405" y="165"/>
      <point x="405" y="114" type="curve" smooth="yes"/>
      <point x="405" y="62"/>
      <point x="365" y="16"/>
      <point x="278" y="16" type="curve" smooth="yes"/>
      <point x="131" y="16"/>
      <point x="74" y="172"/>
      <point x="74" y="326" type="curve" smooth="yes"/>
      <point x="74" y="496"/>
      <point x="147" y="632"/>
      <point x="325" y="632" type="curve" smooth="yes"/>
      <point x="429" y="632" type="line"/>
      <point x="429" y="660" type="line"/>
    </contour>
  </outline>
</glyph>
<glyph name="u16F33.lpo" format="2">
  <advance width="561"/>
  <anchor x="561" y="646" name="D"/>
  <anchor x="536" y="443" name="E"/>
  <anchor x="440" y="0" name="F"/>
  <anchor x="300" y="700" name="H"/>
  <anchor x="519" y="700" name="HD"/>
  <anchor x="486" y="227" name="K"/>
  <anchor x="188" y="-45" name="L"/>
  <anchor x="562" y="660" name="S"/>
  <anchor x="501" y="335" name="W"/>
  <outline>
    <contour>
      <point x="501" y="660" type="line"/>
      <point x="469" y="660" type="line"/>
      <point x="338" y="239" type="line" smooth="yes"/>
      <point x="283" y="62"/>
      <point x="238" y="18"/>
      <point x="170" y="18" type="curve" smooth="yes"/>
      <point x="112" y="18"/>
      <point x="75" y="60"/>
      <point x="45" y="111" type="curve"/>
      <point x="20" y="92" type="line"/>
      <point x="51" y="40"/>
      <point x="94" y="-12"/>
      <point x="170" y="-12" type="curve" smooth="yes"/>
      <point x="246" y="-12"/>
      <point x="304" y="30"/>
      <point x="364" y="221" type="curve" smooth="yes"/>
    </contour>
  </outline>
</glyph>
<glyph name="u16F35.ywqa" format="2">
  <advance width="529"/>
  <anchor x="509" y="646" name="D"/>
  <anchor x="529" y="443" name="E"/>
  <anchor x="529" y="0" name="F"/>
  <anchor x="249" y="700" name="H"/>
  <anchor x="460" y="700" name="HD"/>
  <anchor x="509" y="227" name="K"/>
  <anchor x="249" y="-45" name="L"/>
  <anchor x="509" y="660" name="S"/>
  <anchor x="509" y="335" name="W"/>
  <outline>
    <contour>
      <point x="70" y="626" type="line"/>
      <point x="468" y="626" type="line"/>
      <point x="468" y="660" type="line"/>
      <point x="70" y="660" type="line"/>
    </contour>
    <contour>
      <point x="193" y="510" type="line"/>
      <point x="220" y="510" type="line"/>
      <point x="468" y="626" type="line"/>
      <point x="447" y="652" type="line"/>
      <point x="193" y="525" type="line"/>
    </contour>
    <contour>
      <point x="193" y="491" type="line"/>
      <point x="408" y="491" type="line"/>
      <point x="408" y="525" type="line"/>
      <point x="193" y="525" type="line"/>
    </contour>
    <contour>
      <point x="133" y="375" type="line"/>
      <point x="160" y="375" type="line"/>
      <point x="408" y="491" type="line"/>
      <point x="387" y="517" type="line"/>
      <point x="133" y="390" type="line"/>
    </contour>
    <contour>
      <point x="133" y="356" type="line"/>
      <point x="348" y="356" type="line"/>
      <point x="348" y="390" type="line"/>
      <point x="133" y="390" type="line"/>
    </contour>
    <contour>
      <point x="89" y="186" type="curve"/>
      <point x="89" y="154" type="line"/>
      <point x="102" y="183"/>
      <point x="193" y="225"/>
      <point x="271" y="225" type="curve" smooth="yes"/>
      <point x="394" y="225"/>
      <point x="441" y="171"/>
      <point x="441" y="125" type="curve" smooth="yes"/>
      <point x="441" y="68"/>
      <point x="388" y="16"/>
      <point x="271" y="16" type="curve" smooth="yes"/>
      <point x="158" y="16"/>
      <point x="100" y="63"/>
      <point x="100" y="125" type="curve" smooth="yes"/>
      <point x="100" y="215"/>
      <point x="200" y="267"/>
      <point x="348" y="356" type="curve"/>
      <point x="291" y="356" type="line"/>
      <point x="157" y="272"/>
      <point x="66" y="231"/>
      <point x="66" y="125" type="curve" smooth="yes"/>
      <point x="66" y="46"/>
      <point x="137" y="-12"/>
      <point x="271" y="-12" type="curve" smooth="yes"/>
      <point x="395" y="-12"/>
      <point x="475" y="49"/>
      <point x="475" y="125" type="curve" smooth="yes"/>
      <point x="475" y="194"/>
      <point x="402" y="251"/>
      <point x="282" y="251" type="curve" smooth="yes"/>
      <point x="188" y="251"/>
      <point x="114" y="213"/>
    </contour>
  </outline>
</glyph>
<glyph name="u16F57.mark.open" format="2">
  <advance width="275"/>
  <anchor x="145" y="-40" name="_H"/>
  <anchor x="0" y="-40" name="_HL"/>
  <anchor x="275" y="-40" name="_HR"/>
  <anchor x="145" y="265" name="_L"/>
  <anchor x="0" y="265" name="_LL"/>
  <anchor x="275" y="265" name="_LR"/>
  <outline>
    <contour>
      <point x="25" y="192" type="line"/>
      <point x="171" y="192" type="line"/>
      <point x="197" y="220" type="line"/>
      <point x="25" y="220" type="line"/>
    </contour>
    <contour>
      <point x="141" y="-12" type="curve" smooth="yes"/>
      <point x="201" y="-12"/>
      <point x="230" y="-12"/>
      <point x="250" y="-12" type="curve"/>
      <point x="250" y="-5"/>
      <point x="250" y="7"/>
      <point x="250" y="16" type="curve"/>
      <point x="230" y="16"/>
      <point x="189" y="16"/>
      <point x="141" y="16" type="curve" smooth="yes"/>
      <point x="112" y="16"/>
      <point x="99" y="20"/>
      <point x="99" y="38" type="curve" smooth="yes"/>
      <point x="99" y="66"/>
      <point x="152" y="153"/>
      <point x="225" y="220" type="curve"/>
      <point x="188" y="220" type="line"/>
      <point x="139" y="172"/>
      <point x="71" y="79"/>
      <point x="71" y="37" type="curve" smooth="yes"/>
      <point x="71" y="5"/>
      <point x="85" y="-12"/>
    </contour>
  </outline>
</glyph>
<glyph name="u16F58.mark.lpo" format="2">
  <advance width="295"/>
  <anchor x="147" y="-40" name="_H"/>
  <anchor x="0" y="-40" name="_HL"/>
  <anchor x="295" y="-40" name="_HR"/>
  <anchor x="147" y="265" name="_L"/>
  <anchor x="0" y="265" name="_LL"/>
  <anchor x="295" y="265" name="_LR"/>
  <outline>
    <contour>
      <point x="25" y="220" type="line"/>
      <point x="25" y="192" type="line"/>
      <point x="170" y="192" type="line"/>
      <point x="197" y="220" type="line"/>
    </contour>
    <contour>
      <point x="245" y="77" type="line"/>
      <point x="245" y="41"/>
      <point x="208" y="16"/>
      <point x="171" y="16" type="curve" smooth="yes"/>
      <point x="129" y="16"/>
      <point x="99" y="37"/>
      <point x="99" y="75" type="curve" smooth="yes"/>
      <point x="99" y="119"/>
      <point x="143" y="170"/>
      <point x="225" y="220" type="curve"/>
      <point x="189" y="220" type="line"/>
      <point x="117" y="175"/>
      <point x="71" y="132"/>
      <point x="71" y="75" type="curve" smooth="yes"/>
      <point x="71" y="22"/>
      <point x="112" y="-12"/>
      <point x="171" y="-12" type="curve" smooth="yes"/>
      <point x="221" y="-12"/>
      <point x="270" y="28"/>
      <point x="270" y="77" type="curve"/>
    </contour>
    <contour>
      <point x="210" y="18" type="curve" smooth="yes"/>
      <point x="245" y="18"/>
      <point x="270" y="41"/>
      <point x="270" y="77" type="curve" smooth="yes"/>
      <point x="270" y="111"/>
      <point x="245" y="139"/>
      <point x="210" y="139" type="curve" smooth="yes"/>
      <point x="174" y="139"/>
      <point x="149" y="111"/>
      <point x="149" y="77" type="curve" smooth="yes"/>
      <point x="149" y="41"/>
      <point x="174" y="18"/>
    </contour>
    <contour>
      <point x="210" y="41" type="curve" smooth="yes"/>
      <point x="189" y="41"/>
      <point x="175" y="56"/>
      <point x="175" y="77" type="curve" smooth="yes"/>
      <point x="175" y="96"/>
      <point x="189" y="111"/>
      <point x="210" y="111" type="curve" smooth="yes"/>
      <point x="230" y="111"/>
      <point x="244" y="96"/>
      <point x="244" y="77" type="curve" smooth="yes"/>
      <point x="244" y="56"/>
      <point x="230" y="41"/>
    </contour>
  </outline>
</glyph>
<glyph name="u16F5F.hmdd" format="2">
  <advance width="315"/>
  <anchor x="315" y="0" name="F"/>
  <anchor x="0" y="0" name="FB"/>
  <anchor x="315" y="170" name="S"/>
  <anchor x="0" y="170" name="SB"/>
  <anchor x="315" y="110" name="W"/>
  <anchor x="0" y="110" name="WB"/>
  <outline>
    <contour>
      <point x="225" y="-65" type="curve" smooth="yes"/>
      <point x="267" y="-65"/>
      <point x="295" y="-30"/>
      <point x="295" y="14" type="curve" smooth="yes"/>
      <point x="295" y="56"/>
      <point x="267" y="91"/>
      <point x="225" y="91" type="curve" smooth="yes"/>
      <point x="182" y="91"/>
      <point x="154" y="56"/>
      <point x="154" y="14" type="curve" smooth="yes"/>
      <point x="154" y="-30"/>
      <point x="182" y="-65"/>
    </contour>
    <contour>
      <point x="225" y="-37" type="curve" smooth="yes"/>
      <point x="197" y="-37"/>
      <point x="180" y="-15"/>
      <point x="180" y="14" type="curve" smooth="yes"/>
      <point x="180" y="41"/>
      <point x="197" y="63"/>
      <point x="225" y="63" type="curve" smooth="yes"/>
      <point x="252" y="63"/>
      <point x="269" y="41"/>
      <point x="269" y="14" type="curve" smooth="yes"/>
      <point x="269" y="-15"/>
      <point x="252" y="-37"/>
    </contour>
    <contour>
      <point x="36" y="254" type="line"/>
      <point x="197" y="254" type="line"/>
      <point x="197" y="282" type="line"/>
      <point x="36" y="282" type="line"/>
    </contour>
    <contour>
      <point x="157" y="148" type="line"/>
      <point x="146" y="171" type="line"/>
      <point x="121" y="170" type="line" smooth="yes"/>
      <point x="64" y="168"/>
      <point x="25" y="135"/>
      <point x="25" y="79" type="curve" smooth="yes"/>
      <point x="25" y="20"/>
      <point x="71" y="-12"/>
      <point x="128" y="-12" type="curve" smooth="yes"/>
      <point x="144" y="-12"/>
      <point x="159" y="-9"/>
      <point x="172" y="-4" type="curve"/>
      <point x="162" y="23" type="line"/>
      <point x="152" y="19"/>
      <point x="141" y="16"/>
      <point x="128" y="16" type="curve" smooth="yes"/>
      <point x="86" y="16"/>
      <point x="53" y="37"/>
      <point x="53" y="77" type="curve" smooth="yes"/>
      <point x="53" y="121"/>
      <point x="78" y="144"/>
      <point x="135" y="147" type="curve" smooth="yes"/>
    </contour>
    <contour>
      <point x="58" y="272" type="line"/>
      <point x="36" y="254" type="line"/>
      <point x="139" y="148" type="line"/>
      <point x="145" y="148"/>
      <point x="150" y="148"/>
      <point x="157" y="148" type="curve"/>
      <point x="157" y="167" type="line"/>
    </contour>
  </outline>
</glyph>
<glyph name="u16F73.ygp" format="2">
  <advance width="237"/>
  <anchor x="237" y="120" name="E"/>
  <anchor x="0" y="120" name="EB"/>
  <anchor x="237" y="0" name="F"/>
  <anchor x="0" y="0" name="FB"/>
  <anchor x="0" y="10" name="FBR"/>
  <anchor x="237" y="10" name="FR"/>
  <anchor x="237" y="100" name="K"/>
  <anchor x="0" y="100" name="KB"/>
  <anchor x="237" y="232" name="S"/>
  <anchor x="0" y="232" name="SB"/>
  <anchor x="0" y="222" name="SBR"/>
  <anchor x="0" y="302" name="SBRT"/>
  <anchor x="0" y="312" name="SBT"/>
  <anchor x="237" y="222" name="SR"/>
  <anchor x="237" y="302" name="SRT"/>
  <anchor x="237" y="312" name="ST"/>
  <anchor x="237" y="110" name="W"/>
  <anchor x="0" y="110" name="WB"/>
  <outline>
    <contour>
      <point x="30" y="254" type="line"/>
      <point x="40" y="254"/>
      <point x="86" y="254"/>
      <point x="96" y="254" type="curve" smooth="yes"/>
      <point x="157" y="254"/>
      <point x="184" y="230"/>
      <point x="184" y="192" type="curve" smooth="yes"/>
      <point x="184" y="153"/>
      <point x="158" y="130"/>
      <point x="96" y="130" type="curve" smooth="yes"/>
      <point x="86" y="130"/>
      <point x="85" y="130"/>
      <point x="75" y="130" type="curve"/>
      <point x="75" y="102" type="line"/>
      <point x="85" y="102"/>
      <point x="91" y="102"/>
      <point x="102" y="102" type="curve" smooth="yes"/>
      <point x="179" y="102"/>
      <point x="212" y="137"/>
      <point x="212" y="192" type="curve" smooth="yes"/>
      <point x="212" y="246"/>
      <point x="178" y="282"/>
      <point x="101" y="282" type="curve" smooth="yes"/>
      <point x="91" y="282"/>
      <point x="40" y="282"/>
      <point x="30" y="282" type="curve"/>
    </contour>
    <contour>
      <point x="103" y="0" type="line"/>
      <point x="103" y="130" type="line"/>
      <point x="75" y="130" type="line"/>
      <point x="75" y="0" type="line"/>
    </contour>
  </outline>
</glyph>
<glyph name="u16F7A.mark.point" format="2">
  <advance width="193"/>
  <anchor x="93" y="-40" name="_H"/>
  <anchor x="0" y="-40" name="_HL"/>
  <anchor x="193" y="-40" name="_HR"/>
  <anchor x="83" y="265" name="_L"/>
  <anchor x="0" y="265" name="_LL"/>
  <anchor x="193" y="265" name="_LR"/>
  <outline>
    <contour>
      <point x="141" y="130" type="line"/>
      <point x="58" y="37" type="line"/>
      <point x="58" y="220" type="line"/>
      <point x="30" y="220" type="line"/>
      <point x="30" y="0" type="line"/>
      <point x="62" y="0" type="line"/>
      <point x="178" y="130" type="line"/>
    </contour>
  </outline>
</glyph>
<glyph name="uni3001.lpo" format="2">
  <advance width="500"/>
  <outline>
    <contour>
      <point x="310" y="-109" type="line"/>
      <point x="172" y="-60" type="line"/>
      <point x="105" y="100" type="line"/>
      <point x="155" y="100" type="line"/>
      <point x="184" y="35"/>
      <point x="240" y="-28"/>
      <point x="302" y="-64" type="curve"/>
    </contour>
  </outline>
</glyph>
